<?xml version="1.0" encoding="UTF-8" standalone="no"?>
<!DOCTYPE svg PUBLIC "-//W3C//DTD SVG 1.1//EN"
 "http://www.w3.org/Graphics/SVG/1.1/DTD/svg11.dtd">
<!-- Generated by graphviz version 2.43.0 (0)
 -->
<!-- Title: Graphical Class Hierarchy Pages: 1 -->
<svg width="2494pt" height="877pt"
 viewBox="0.00 0.00 2494.00 877.00" xmlns="http://www.w3.org/2000/svg" xmlns:xlink="http://www.w3.org/1999/xlink">
<g id="graph0" class="graph" transform="scale(1 1) rotate(0) translate(4 873)">
<title>Graphical Class Hierarchy</title>
<!-- Node0 -->
<g id="node1" class="node">
<title>Node0</title>
<g id="a_node1"><a xlink:href="d8/dfb/class_translator.html" target="_top" xlink:title="Abstract base class for all translatable text fragments.">
<polygon fill="white" stroke="#666666" points="65,-111 0,-111 0,-92 65,-92 65,-111"/>
<text text-anchor="middle" x="32.5" y="-99" font-family="Helvetica,sans-Serif" font-size="10.00">Translator</text>
</a>
</g>
</g>
<!-- Node1 -->
<g id="node2" class="node">
<title>Node1</title>
<g id="a_node2"><a xlink:href="db/d6c/class_translator_adapter_base.html" target="_top" xlink:title="Base of the translator adapter tree.">
<polygon fill="white" stroke="#666666" points="228,-204 101,-204 101,-185 228,-185 228,-204"/>
<text text-anchor="middle" x="164.5" y="-192" font-family="Helvetica,sans-Serif" font-size="10.00">TranslatorAdapterBase</text>
</a>
</g>
</g>
<!-- Node0&#45;&gt;Node1 -->
<g id="edge1" class="edge">
<title>Node0&#45;&gt;Node1</title>
<path fill="none" stroke="#63b8ff" d="M45.63,-119.62C57.77,-136.41 77.93,-160.93 101,-175.5 107.04,-179.31 113.89,-182.4 120.79,-184.89"/>
<polygon fill="#63b8ff" stroke="#63b8ff" points="48.34,-117.39 39.75,-111.2 42.61,-121.4 48.34,-117.39"/>
</g>
<!-- Node51 -->
<g id="node52" class="node">
<title>Node51</title>
<g id="a_node52"><a xlink:href="d2/d4c/class_translator_brazilian.html" target="_top" xlink:title=" ">
<polygon fill="white" stroke="#666666" points="218,-167 111,-167 111,-148 218,-148 218,-167"/>
<text text-anchor="middle" x="164.5" y="-155" font-family="Helvetica,sans-Serif" font-size="10.00">TranslatorBrazilian</text>
</a>
</g>
</g>
<!-- Node0&#45;&gt;Node51 -->
<g id="edge51" class="edge">
<title>Node0&#45;&gt;Node51</title>
<path fill="none" stroke="#63b8ff" d="M57.79,-116.41C70.38,-123.72 86.18,-132.26 101,-138.5 109.47,-142.06 118.83,-145.27 127.68,-148"/>
<polygon fill="#63b8ff" stroke="#63b8ff" points="59.25,-113.2 48.86,-111.12 55.68,-119.23 59.25,-113.2"/>
</g>
<!-- Node52 -->
<g id="node53" class="node">
<title>Node52</title>
<g id="a_node53"><a xlink:href="d9/d1b/class_translator_dutch.html" target="_top" xlink:title=" ">
<polygon fill="white" stroke="#666666" points="211,-130 118,-130 118,-111 211,-111 211,-130"/>
<text text-anchor="middle" x="164.5" y="-118" font-family="Helvetica,sans-Serif" font-size="10.00">TranslatorDutch</text>
</a>
</g>
</g>
<!-- Node0&#45;&gt;Node52 -->
<g id="edge52" class="edge">
<title>Node0&#45;&gt;Node52</title>
<path fill="none" stroke="#63b8ff" d="M75.32,-107.61C88.87,-109.59 103.97,-111.8 117.79,-113.82"/>
<polygon fill="#63b8ff" stroke="#63b8ff" points="75.7,-104.13 65.3,-106.15 74.69,-111.06 75.7,-104.13"/>
</g>
<!-- Node53 -->
<g id="node54" class="node">
<title>Node53</title>
<g id="a_node54"><a xlink:href="d6/d78/class_translator_english.html" target="_top" xlink:title=" ">
<polygon fill="white" stroke="#666666" points="214.5,-93 114.5,-93 114.5,-74 214.5,-74 214.5,-93"/>
<text text-anchor="middle" x="164.5" y="-81" font-family="Helvetica,sans-Serif" font-size="10.00">TranslatorEnglish</text>
</a>
</g>
</g>
<!-- Node0&#45;&gt;Node53 -->
<g id="edge53" class="edge">
<title>Node0&#45;&gt;Node53</title>
<path fill="none" stroke="#63b8ff" d="M75.37,-95.7C87.77,-93.99 101.47,-92.09 114.29,-90.31"/>
<polygon fill="#63b8ff" stroke="#63b8ff" points="74.73,-92.26 65.3,-97.1 75.69,-99.19 74.73,-92.26"/>
</g>
<!-- Node56 -->
<g id="node57" class="node">
<title>Node56</title>
<g id="a_node57"><a xlink:href="dc/df2/class_translator_portuguese.html" target="_top" xlink:title=" ">
<polygon fill="white" stroke="#666666" points="224,-56 105,-56 105,-37 224,-37 224,-56"/>
<text text-anchor="middle" x="164.5" y="-44" font-family="Helvetica,sans-Serif" font-size="10.00">TranslatorPortuguese</text>
</a>
</g>
</g>
<!-- Node0&#45;&gt;Node56 -->
<g id="edge56" class="edge">
<title>Node0&#45;&gt;Node56</title>
<path fill="none" stroke="#63b8ff" d="M57.5,-86.65C70.12,-79.28 86.03,-70.67 101,-64.5 108.73,-61.32 117.21,-58.47 125.36,-56.03"/>
<polygon fill="#63b8ff" stroke="#63b8ff" points="55.37,-83.85 48.57,-91.97 58.95,-89.86 55.37,-83.85"/>
</g>
<!-- Node57 -->
<g id="node58" class="node">
<title>Node57</title>
<g id="a_node58"><a xlink:href="dc/d44/class_translator_spanish.html" target="_top" xlink:title=" ">
<polygon fill="white" stroke="#666666" points="216,-19 113,-19 113,0 216,0 216,-19"/>
<text text-anchor="middle" x="164.5" y="-7" font-family="Helvetica,sans-Serif" font-size="10.00">TranslatorSpanish</text>
</a>
</g>
</g>
<!-- Node0&#45;&gt;Node57 -->
<g id="edge57" class="edge">
<title>Node0&#45;&gt;Node57</title>
<path fill="none" stroke="#63b8ff" d="M45.59,-83.3C57.69,-66.45 77.82,-41.9 101,-27.5 106.47,-24.1 112.6,-21.33 118.83,-19.06"/>
<polygon fill="#63b8ff" stroke="#63b8ff" points="42.55,-81.54 39.72,-91.76 48.3,-85.54 42.55,-81.54"/>
</g>
<!-- Node2 -->
<g id="node3" class="node">
<title>Node2</title>
<g id="a_node3"><a xlink:href="db/d71/class_translator_adapter__1__9__6.html" target="_top" xlink:title=" ">
<polygon fill="white" stroke="#666666" points="401,-204 264,-204 264,-185 401,-185 401,-204"/>
<text text-anchor="middle" x="332.5" y="-192" font-family="Helvetica,sans-Serif" font-size="10.00">TranslatorAdapter_1_9_6</text>
</a>
</g>
</g>
<!-- Node1&#45;&gt;Node2 -->
<g id="edge2" class="edge">
<title>Node1&#45;&gt;Node2</title>
<path fill="none" stroke="#63b8ff" d="M238.49,-194.5C246.95,-194.5 255.56,-194.5 263.94,-194.5"/>
<polygon fill="#63b8ff" stroke="#63b8ff" points="238.26,-191 228.26,-194.5 238.26,-198 238.26,-191"/>
</g>
<!-- Node3 -->
<g id="node4" class="node">
<title>Node3</title>
<g id="a_node4"><a xlink:href="dd/dba/class_translator_adapter__1__9__5.html" target="_top" xlink:title=" ">
<polygon fill="white" stroke="#666666" points="574,-241 437,-241 437,-222 574,-222 574,-241"/>
<text text-anchor="middle" x="505.5" y="-229" font-family="Helvetica,sans-Serif" font-size="10.00">TranslatorAdapter_1_9_5</text>
</a>
</g>
</g>
<!-- Node2&#45;&gt;Node3 -->
<g id="edge3" class="edge">
<title>Node2&#45;&gt;Node3</title>
<path fill="none" stroke="#63b8ff" d="M387.35,-206.15C410.84,-211.23 438.04,-217.12 460.32,-221.94"/>
<polygon fill="#63b8ff" stroke="#63b8ff" points="388.05,-202.72 377.54,-204.03 386.57,-209.56 388.05,-202.72"/>
</g>
<!-- Node49 -->
<g id="node50" class="node">
<title>Node49</title>
<g id="a_node50"><a xlink:href="dd/d8a/class_translator_czech.html" target="_top" xlink:title=" ">
<polygon fill="white" stroke="#666666" points="552.5,-204 458.5,-204 458.5,-185 552.5,-185 552.5,-204"/>
<text text-anchor="middle" x="505.5" y="-192" font-family="Helvetica,sans-Serif" font-size="10.00">TranslatorCzech</text>
</a>
</g>
</g>
<!-- Node2&#45;&gt;Node49 -->
<g id="edge49" class="edge">
<title>Node2&#45;&gt;Node49</title>
<path fill="none" stroke="#63b8ff" d="M411.09,-194.5C427.28,-194.5 443.84,-194.5 458.44,-194.5"/>
<polygon fill="#63b8ff" stroke="#63b8ff" points="411.08,-191 401.08,-194.5 411.08,-198 411.08,-191"/>
</g>
<!-- Node50 -->
<g id="node51" class="node">
<title>Node50</title>
<g id="a_node51"><a xlink:href="d5/d5c/class_translator_swedish.html" target="_top" xlink:title=" ">
<polygon fill="white" stroke="#666666" points="558,-167 453,-167 453,-148 558,-148 558,-167"/>
<text text-anchor="middle" x="505.5" y="-155" font-family="Helvetica,sans-Serif" font-size="10.00">TranslatorSwedish</text>
</a>
</g>
</g>
<!-- Node2&#45;&gt;Node50 -->
<g id="edge50" class="edge">
<title>Node2&#45;&gt;Node50</title>
<path fill="none" stroke="#63b8ff" d="M387.35,-182.85C410.84,-177.77 438.04,-171.88 460.32,-167.06"/>
<polygon fill="#63b8ff" stroke="#63b8ff" points="386.57,-179.44 377.54,-184.97 388.05,-186.28 386.57,-179.44"/>
</g>
<!-- Node4 -->
<g id="node5" class="node">
<title>Node4</title>
<g id="a_node5"><a xlink:href="d0/d33/class_translator_adapter__1__9__4.html" target="_top" xlink:title=" ">
<polygon fill="white" stroke="#666666" points="747,-259 610,-259 610,-240 747,-240 747,-259"/>
<text text-anchor="middle" x="678.5" y="-247" font-family="Helvetica,sans-Serif" font-size="10.00">TranslatorAdapter_1_9_4</text>
</a>
</g>
</g>
<!-- Node3&#45;&gt;Node4 -->
<g id="edge4" class="edge">
<title>Node3&#45;&gt;Node4</title>
<path fill="none" stroke="#63b8ff" d="M584.1,-239.67C592.69,-240.57 601.39,-241.49 609.85,-242.38"/>
<polygon fill="#63b8ff" stroke="#63b8ff" points="584.4,-236.18 574.08,-238.61 583.66,-243.14 584.4,-236.18"/>
</g>
<!-- Node48 -->
<g id="node49" class="node">
<title>Node48</title>
<g id="a_node49"><a xlink:href="da/d1a/class_translator_french.html" target="_top" xlink:title=" ">
<polygon fill="white" stroke="#666666" points="727,-222 630,-222 630,-203 727,-203 727,-222"/>
<text text-anchor="middle" x="678.5" y="-210" font-family="Helvetica,sans-Serif" font-size="10.00">TranslatorFrench</text>
</a>
</g>
</g>
<!-- Node3&#45;&gt;Node48 -->
<g id="edge48" class="edge">
<title>Node3&#45;&gt;Node48</title>
<path fill="none" stroke="#63b8ff" d="M584.24,-222.86C599.81,-221.13 615.72,-219.36 629.9,-217.79"/>
<polygon fill="#63b8ff" stroke="#63b8ff" points="583.64,-219.41 574.08,-223.99 584.41,-226.36 583.64,-219.41"/>
</g>
<!-- Node5 -->
<g id="node6" class="node">
<title>Node5</title>
<g id="a_node6"><a xlink:href="d3/d2e/class_translator_adapter__1__9__2.html" target="_top" xlink:title=" ">
<polygon fill="white" stroke="#666666" points="920,-333 783,-333 783,-314 920,-314 920,-333"/>
<text text-anchor="middle" x="851.5" y="-321" font-family="Helvetica,sans-Serif" font-size="10.00">TranslatorAdapter_1_9_2</text>
</a>
</g>
</g>
<!-- Node4&#45;&gt;Node5 -->
<g id="edge5" class="edge">
<title>Node4&#45;&gt;Node5</title>
<path fill="none" stroke="#63b8ff" d="M703.82,-264.34C724.35,-276.4 754.83,-293.2 783,-304.5 791.93,-308.08 801.77,-311.26 811.12,-313.95"/>
<polygon fill="#63b8ff" stroke="#63b8ff" points="705.51,-261.27 695.13,-259.17 701.93,-267.29 705.51,-261.27"/>
</g>
<!-- Node44 -->
<g id="node45" class="node">
<title>Node44</title>
<g id="a_node45"><a xlink:href="da/dbb/class_translator_bulgarian.html" target="_top" xlink:title=" ">
<polygon fill="white" stroke="#666666" points="907,-296 796,-296 796,-277 907,-277 907,-296"/>
<text text-anchor="middle" x="851.5" y="-284" font-family="Helvetica,sans-Serif" font-size="10.00">TranslatorBulgarian</text>
</a>
</g>
</g>
<!-- Node4&#45;&gt;Node44 -->
<g id="edge44" class="edge">
<title>Node4&#45;&gt;Node44</title>
<path fill="none" stroke="#63b8ff" d="M733.35,-261.15C756.84,-266.23 784.04,-272.12 806.32,-276.94"/>
<polygon fill="#63b8ff" stroke="#63b8ff" points="734.05,-257.72 723.54,-259.03 732.57,-264.56 734.05,-257.72"/>
</g>
<!-- Node45 -->
<g id="node46" class="node">
<title>Node45</title>
<g id="a_node46"><a xlink:href="d6/db6/class_translator_chinese.html" target="_top" xlink:title=" ">
<polygon fill="white" stroke="#666666" points="903.5,-259 799.5,-259 799.5,-240 903.5,-240 903.5,-259"/>
<text text-anchor="middle" x="851.5" y="-247" font-family="Helvetica,sans-Serif" font-size="10.00">TranslatorChinese</text>
</a>
</g>
</g>
<!-- Node4&#45;&gt;Node45 -->
<g id="edge45" class="edge">
<title>Node4&#45;&gt;Node45</title>
<path fill="none" stroke="#63b8ff" d="M757.41,-249.5C771.69,-249.5 786.26,-249.5 799.49,-249.5"/>
<polygon fill="#63b8ff" stroke="#63b8ff" points="757.08,-246 747.08,-249.5 757.08,-253 757.08,-246"/>
</g>
<!-- Node46 -->
<g id="node47" class="node">
<title>Node46</title>
<g id="a_node47"><a xlink:href="df/d75/class_translator_greek.html" target="_top" xlink:title=" ">
<polygon fill="white" stroke="#666666" points="898.5,-222 804.5,-222 804.5,-203 898.5,-203 898.5,-222"/>
<text text-anchor="middle" x="851.5" y="-210" font-family="Helvetica,sans-Serif" font-size="10.00">TranslatorGreek</text>
</a>
</g>
</g>
<!-- Node4&#45;&gt;Node46 -->
<g id="edge46" class="edge">
<title>Node4&#45;&gt;Node46</title>
<path fill="none" stroke="#63b8ff" d="M733.35,-237.85C756.84,-232.77 784.04,-226.88 806.32,-222.06"/>
<polygon fill="#63b8ff" stroke="#63b8ff" points="732.57,-234.44 723.54,-239.97 734.05,-241.28 732.57,-234.44"/>
</g>
<!-- Node47 -->
<g id="node48" class="node">
<title>Node47</title>
<g id="a_node48"><a xlink:href="d1/d8a/class_translator_hindi.html" target="_top" xlink:title=" ">
<polygon fill="white" stroke="#666666" points="896.5,-185 806.5,-185 806.5,-166 896.5,-166 896.5,-185"/>
<text text-anchor="middle" x="851.5" y="-173" font-family="Helvetica,sans-Serif" font-size="10.00">TranslatorHindi</text>
</a>
</g>
</g>
<!-- Node4&#45;&gt;Node47 -->
<g id="edge47" class="edge">
<title>Node4&#45;&gt;Node47</title>
<path fill="none" stroke="#63b8ff" d="M735.42,-236.32C739.44,-234.6 743.35,-232.67 747,-230.5 766.72,-218.77 763.2,-205.1 783,-193.5 790.12,-189.33 798.21,-186.11 806.27,-183.62"/>
<polygon fill="#63b8ff" stroke="#63b8ff" points="733.97,-233.13 725.86,-239.95 736.46,-239.67 733.97,-233.13"/>
</g>
<!-- Node6 -->
<g id="node7" class="node">
<title>Node6</title>
<g id="a_node7"><a xlink:href="de/dde/class_translator_adapter__1__8__19.html" target="_top" xlink:title=" ">
<polygon fill="white" stroke="#666666" points="1099,-333 956,-333 956,-314 1099,-314 1099,-333"/>
<text text-anchor="middle" x="1027.5" y="-321" font-family="Helvetica,sans-Serif" font-size="10.00">TranslatorAdapter_1_8_19</text>
</a>
</g>
</g>
<!-- Node5&#45;&gt;Node6 -->
<g id="edge6" class="edge">
<title>Node5&#45;&gt;Node6</title>
<path fill="none" stroke="#63b8ff" d="M930.47,-323.5C938.89,-323.5 947.42,-323.5 955.75,-323.5"/>
<polygon fill="#63b8ff" stroke="#63b8ff" points="930.27,-320 920.27,-323.5 930.27,-327 930.27,-320"/>
</g>
<!-- Node7 -->
<g id="node8" class="node">
<title>Node7</title>
<g id="a_node8"><a xlink:href="d4/d2e/class_translator_adapter__1__8__15.html" target="_top" xlink:title=" ">
<polygon fill="white" stroke="#666666" points="1278,-333 1135,-333 1135,-314 1278,-314 1278,-333"/>
<text text-anchor="middle" x="1206.5" y="-321" font-family="Helvetica,sans-Serif" font-size="10.00">TranslatorAdapter_1_8_15</text>
</a>
</g>
</g>
<!-- Node6&#45;&gt;Node7 -->
<g id="edge7" class="edge">
<title>Node6&#45;&gt;Node7</title>
<path fill="none" stroke="#63b8ff" d="M1109.49,-323.5C1117.97,-323.5 1126.54,-323.5 1134.89,-323.5"/>
<polygon fill="#63b8ff" stroke="#63b8ff" points="1109.22,-320 1099.22,-323.5 1109.22,-327 1109.22,-320"/>
</g>
<!-- Node8 -->
<g id="node9" class="node">
<title>Node8</title>
<g id="a_node9"><a xlink:href="de/d2f/class_translator_adapter__1__8__4.html" target="_top" xlink:title=" ">
<polygon fill="white" stroke="#666666" points="1459.5,-500 1322.5,-500 1322.5,-481 1459.5,-481 1459.5,-500"/>
<text text-anchor="middle" x="1391" y="-488" font-family="Helvetica,sans-Serif" font-size="10.00">TranslatorAdapter_1_8_4</text>
</a>
</g>
</g>
<!-- Node7&#45;&gt;Node8 -->
<g id="edge8" class="edge">
<title>Node7&#45;&gt;Node8</title>
<path fill="none" stroke="#63b8ff" d="M1215.89,-342.78C1230.81,-374.7 1265.04,-438.29 1314,-471.5 1319.74,-475.39 1326.21,-478.49 1332.89,-480.95"/>
<polygon fill="#63b8ff" stroke="#63b8ff" points="1218.89,-340.93 1211.58,-333.26 1212.52,-343.81 1218.89,-340.93"/>
</g>
<!-- Node35 -->
<g id="node36" class="node">
<title>Node35</title>
<g id="a_node36"><a xlink:href="dd/df6/class_translator_chinesetraditional.html" target="_top" xlink:title=" ">
<polygon fill="white" stroke="#666666" points="1468,-463 1314,-463 1314,-444 1468,-444 1468,-463"/>
<text text-anchor="middle" x="1391" y="-451" font-family="Helvetica,sans-Serif" font-size="10.00">TranslatorChinesetraditional</text>
</a>
</g>
</g>
<!-- Node7&#45;&gt;Node35 -->
<g id="edge35" class="edge">
<title>Node7&#45;&gt;Node35</title>
<path fill="none" stroke="#63b8ff" d="M1219.88,-341.77C1237.71,-366.63 1273.03,-410.74 1314,-434.5 1320.71,-438.39 1328.19,-441.49 1335.78,-443.96"/>
<polygon fill="#63b8ff" stroke="#63b8ff" points="1222.53,-339.45 1213.93,-333.26 1216.79,-343.46 1222.53,-339.45"/>
</g>
<!-- Node36 -->
<g id="node37" class="node">
<title>Node36</title>
<g id="a_node37"><a xlink:href="d6/d07/class_translator_german.html" target="_top" xlink:title=" ">
<polygon fill="white" stroke="#666666" points="1443,-426 1339,-426 1339,-407 1443,-407 1443,-426"/>
<text text-anchor="middle" x="1391" y="-414" font-family="Helvetica,sans-Serif" font-size="10.00">TranslatorGerman</text>
</a>
</g>
</g>
<!-- Node7&#45;&gt;Node36 -->
<g id="edge36" class="edge">
<title>Node7&#45;&gt;Node36</title>
<path fill="none" stroke="#63b8ff" d="M1226.32,-339.77C1246.65,-356.56 1280.63,-382.35 1314,-397.5 1322.42,-401.32 1331.73,-404.46 1340.86,-406.99"/>
<polygon fill="#63b8ff" stroke="#63b8ff" points="1228.39,-336.94 1218.48,-333.19 1223.89,-342.3 1228.39,-336.94"/>
</g>
<!-- Node37 -->
<g id="node38" class="node">
<title>Node37</title>
<g id="a_node38"><a xlink:href="db/d5f/class_translator_hungarian.html" target="_top" xlink:title=" ">
<polygon fill="white" stroke="#666666" points="1448.5,-389 1333.5,-389 1333.5,-370 1448.5,-370 1448.5,-389"/>
<text text-anchor="middle" x="1391" y="-377" font-family="Helvetica,sans-Serif" font-size="10.00">TranslatorHungarian</text>
</a>
</g>
</g>
<!-- Node7&#45;&gt;Node37 -->
<g id="edge37" class="edge">
<title>Node7&#45;&gt;Node37</title>
<path fill="none" stroke="#63b8ff" d="M1242.72,-336.62C1263.35,-344.09 1289.98,-353.34 1314,-360.5 1325.21,-363.84 1337.46,-367.08 1348.8,-369.91"/>
<polygon fill="#63b8ff" stroke="#63b8ff" points="1243.71,-333.26 1233.11,-333.12 1241.31,-339.84 1243.71,-333.26"/>
</g>
<!-- Node38 -->
<g id="node39" class="node">
<title>Node38</title>
<g id="a_node39"><a xlink:href="d2/df8/class_translator_italian.html" target="_top" xlink:title=" ">
<polygon fill="white" stroke="#666666" points="1438.5,-352 1343.5,-352 1343.5,-333 1438.5,-333 1438.5,-352"/>
<text text-anchor="middle" x="1391" y="-340" font-family="Helvetica,sans-Serif" font-size="10.00">TranslatorItalian</text>
</a>
</g>
</g>
<!-- Node7&#45;&gt;Node38 -->
<g id="edge38" class="edge">
<title>Node7&#45;&gt;Node38</title>
<path fill="none" stroke="#63b8ff" d="M1288.15,-331.9C1307.01,-333.86 1326.48,-335.89 1343.29,-337.64"/>
<polygon fill="#63b8ff" stroke="#63b8ff" points="1288.37,-328.4 1278.06,-330.85 1287.64,-335.36 1288.37,-328.4"/>
</g>
<!-- Node39 -->
<g id="node40" class="node">
<title>Node39</title>
<g id="a_node40"><a xlink:href="d1/d6a/class_translator_japanese.html" target="_top" xlink:title=" ">
<polygon fill="white" stroke="#666666" points="1445.5,-315 1336.5,-315 1336.5,-296 1445.5,-296 1445.5,-315"/>
<text text-anchor="middle" x="1391" y="-303" font-family="Helvetica,sans-Serif" font-size="10.00">TranslatorJapanese</text>
</a>
</g>
</g>
<!-- Node7&#45;&gt;Node39 -->
<g id="edge39" class="edge">
<title>Node7&#45;&gt;Node39</title>
<path fill="none" stroke="#63b8ff" d="M1288.14,-315.55C1304.45,-313.94 1321.22,-312.28 1336.33,-310.79"/>
<polygon fill="#63b8ff" stroke="#63b8ff" points="1287.67,-312.08 1278.06,-316.54 1288.35,-319.04 1287.67,-312.08"/>
</g>
<!-- Node40 -->
<g id="node41" class="node">
<title>Node40</title>
<g id="a_node41"><a xlink:href="db/dcc/class_translator_korean.html" target="_top" xlink:title=" ">
<polygon fill="white" stroke="#666666" points="1440,-278 1342,-278 1342,-259 1440,-259 1440,-278"/>
<text text-anchor="middle" x="1391" y="-266" font-family="Helvetica,sans-Serif" font-size="10.00">TranslatorKorean</text>
</a>
</g>
</g>
<!-- Node7&#45;&gt;Node40 -->
<g id="edge40" class="edge">
<title>Node7&#45;&gt;Node40</title>
<path fill="none" stroke="#63b8ff" d="M1242.27,-310.41C1262.94,-302.89 1289.78,-293.56 1314,-286.5 1324.41,-283.47 1335.74,-280.57 1346.39,-278.02"/>
<polygon fill="#63b8ff" stroke="#63b8ff" points="1240.84,-307.21 1232.66,-313.95 1243.25,-313.78 1240.84,-307.21"/>
</g>
<!-- Node41 -->
<g id="node42" class="node">
<title>Node41</title>
<g id="a_node42"><a xlink:href="da/d32/class_translator_romanian.html" target="_top" xlink:title=" ">
<polygon fill="white" stroke="#666666" points="1448,-241 1334,-241 1334,-222 1448,-222 1448,-241"/>
<text text-anchor="middle" x="1391" y="-229" font-family="Helvetica,sans-Serif" font-size="10.00">TranslatorRomanian</text>
</a>
</g>
</g>
<!-- Node7&#45;&gt;Node41 -->
<g id="edge41" class="edge">
<title>Node7&#45;&gt;Node41</title>
<path fill="none" stroke="#63b8ff" d="M1226.28,-307.14C1246.58,-290.29 1280.54,-264.44 1314,-249.5 1321.55,-246.13 1329.82,-243.34 1338.04,-241.05"/>
<polygon fill="#63b8ff" stroke="#63b8ff" points="1223.83,-304.63 1218.46,-313.76 1228.35,-309.97 1223.83,-304.63"/>
</g>
<!-- Node42 -->
<g id="node43" class="node">
<title>Node42</title>
<g id="a_node43"><a xlink:href="d0/dab/class_translator_russian.html" target="_top" xlink:title=" ">
<polygon fill="white" stroke="#666666" points="1442.5,-204 1339.5,-204 1339.5,-185 1442.5,-185 1442.5,-204"/>
<text text-anchor="middle" x="1391" y="-192" font-family="Helvetica,sans-Serif" font-size="10.00">TranslatorRussian</text>
</a>
</g>
</g>
<!-- Node7&#45;&gt;Node42 -->
<g id="edge42" class="edge">
<title>Node7&#45;&gt;Node42</title>
<path fill="none" stroke="#63b8ff" d="M1219.84,-305.16C1237.62,-280.21 1272.88,-236.01 1314,-212.5 1321.77,-208.06 1330.58,-204.71 1339.39,-202.19"/>
<polygon fill="#63b8ff" stroke="#63b8ff" points="1216.74,-303.49 1213.9,-313.69 1222.49,-307.48 1216.74,-303.49"/>
</g>
<!-- Node43 -->
<g id="node44" class="node">
<title>Node43</title>
<g id="a_node44"><a xlink:href="d2/d53/class_translator_slovak.html" target="_top" xlink:title=" ">
<polygon fill="white" stroke="#666666" points="1440,-167 1342,-167 1342,-148 1440,-148 1440,-167"/>
<text text-anchor="middle" x="1391" y="-155" font-family="Helvetica,sans-Serif" font-size="10.00">TranslatorSlovak</text>
</a>
</g>
</g>
<!-- Node7&#45;&gt;Node43 -->
<g id="edge43" class="edge">
<title>Node7&#45;&gt;Node43</title>
<path fill="none" stroke="#63b8ff" d="M1215.66,-304.57C1230.4,-272.69 1264.62,-208.55 1314,-175.5 1322.23,-169.99 1331.94,-166.17 1341.63,-163.5"/>
<polygon fill="#63b8ff" stroke="#63b8ff" points="1212.46,-303.15 1211.56,-313.7 1218.84,-306.01 1212.46,-303.15"/>
</g>
<!-- Node9 -->
<g id="node10" class="node">
<title>Node9</title>
<g id="a_node10"><a xlink:href="d2/d75/class_translator_adapter__1__8__2.html" target="_top" xlink:title=" ">
<polygon fill="white" stroke="#666666" points="1641,-555 1504,-555 1504,-536 1641,-536 1641,-555"/>
<text text-anchor="middle" x="1572.5" y="-543" font-family="Helvetica,sans-Serif" font-size="10.00">TranslatorAdapter_1_8_2</text>
</a>
</g>
</g>
<!-- Node8&#45;&gt;Node9 -->
<g id="edge9" class="edge">
<title>Node8&#45;&gt;Node9</title>
<path fill="none" stroke="#63b8ff" d="M1430.67,-503.32C1452.2,-510.35 1479.52,-519.12 1504,-526.5 1514.61,-529.7 1526.2,-533.02 1536.74,-535.98"/>
<polygon fill="#63b8ff" stroke="#63b8ff" points="1431.51,-499.91 1420.92,-500.12 1429.33,-506.56 1431.51,-499.91"/>
</g>
<!-- Node32 -->
<g id="node33" class="node">
<title>Node32</title>
<g id="a_node33"><a xlink:href="d2/d07/class_translator_esperanto.html" target="_top" xlink:title=" ">
<polygon fill="white" stroke="#666666" points="1629,-518 1516,-518 1516,-499 1629,-499 1629,-518"/>
<text text-anchor="middle" x="1572.5" y="-506" font-family="Helvetica,sans-Serif" font-size="10.00">TranslatorEsperanto</text>
</a>
</g>
</g>
<!-- Node8&#45;&gt;Node32 -->
<g id="edge32" class="edge">
<title>Node8&#45;&gt;Node32</title>
<path fill="none" stroke="#63b8ff" d="M1469.73,-498.3C1485.29,-499.85 1501.33,-501.46 1515.95,-502.93"/>
<polygon fill="#63b8ff" stroke="#63b8ff" points="1469.9,-494.79 1459.61,-497.28 1469.21,-501.76 1469.9,-494.79"/>
</g>
<!-- Node33 -->
<g id="node34" class="node">
<title>Node33</title>
<g id="a_node34"><a xlink:href="d8/d83/class_translator_latvian.html" target="_top" xlink:title=" ">
<polygon fill="white" stroke="#666666" points="1623,-481 1522,-481 1522,-462 1623,-462 1623,-481"/>
<text text-anchor="middle" x="1572.5" y="-469" font-family="Helvetica,sans-Serif" font-size="10.00">TranslatorLatvian</text>
</a>
</g>
</g>
<!-- Node8&#45;&gt;Node33 -->
<g id="edge33" class="edge">
<title>Node8&#45;&gt;Node33</title>
<path fill="none" stroke="#63b8ff" d="M1469.89,-482.26C1487.52,-480.39 1505.78,-478.46 1521.86,-476.75"/>
<polygon fill="#63b8ff" stroke="#63b8ff" points="1469.18,-478.81 1459.61,-483.34 1469.92,-485.77 1469.18,-478.81"/>
</g>
<!-- Node34 -->
<g id="node35" class="node">
<title>Node34</title>
<g id="a_node35"><a xlink:href="d1/d56/class_translator_ukrainian.html" target="_top" xlink:title=" ">
<polygon fill="white" stroke="#666666" points="1628.5,-444 1516.5,-444 1516.5,-425 1628.5,-425 1628.5,-444"/>
<text text-anchor="middle" x="1572.5" y="-432" font-family="Helvetica,sans-Serif" font-size="10.00">TranslatorUkrainian</text>
</a>
</g>
</g>
<!-- Node8&#45;&gt;Node34 -->
<g id="edge34" class="edge">
<title>Node8&#45;&gt;Node34</title>
<path fill="none" stroke="#63b8ff" d="M1447.94,-478.16C1454.77,-476.17 1461.6,-473.95 1468,-471.5 1484.9,-465.04 1487.15,-459.09 1504,-452.5 1512.13,-449.32 1521.03,-446.5 1529.62,-444.1"/>
<polygon fill="#63b8ff" stroke="#63b8ff" points="1446.68,-474.87 1437.96,-480.9 1448.54,-481.62 1446.68,-474.87"/>
</g>
<!-- Node10 -->
<g id="node11" class="node">
<title>Node10</title>
<g id="a_node11"><a xlink:href="de/d49/class_translator_adapter__1__8__0.html" target="_top" xlink:title="Adapter class for languages that only contain translations up to version 1.8.0.">
<polygon fill="white" stroke="#666666" points="1814,-592 1677,-592 1677,-573 1814,-573 1814,-592"/>
<text text-anchor="middle" x="1745.5" y="-580" font-family="Helvetica,sans-Serif" font-size="10.00">TranslatorAdapter_1_8_0</text>
</a>
</g>
</g>
<!-- Node9&#45;&gt;Node10 -->
<g id="edge10" class="edge">
<title>Node9&#45;&gt;Node10</title>
<path fill="none" stroke="#63b8ff" d="M1627.35,-557.15C1650.84,-562.23 1678.04,-568.12 1700.32,-572.94"/>
<polygon fill="#63b8ff" stroke="#63b8ff" points="1628.05,-553.72 1617.54,-555.03 1626.57,-560.56 1628.05,-553.72"/>
</g>
<!-- Node30 -->
<g id="node31" class="node">
<title>Node30</title>
<g id="a_node31"><a xlink:href="d9/d82/class_translator_croatian.html" target="_top" xlink:title=" ">
<polygon fill="white" stroke="#666666" points="1798.5,-555 1692.5,-555 1692.5,-536 1798.5,-536 1798.5,-555"/>
<text text-anchor="middle" x="1745.5" y="-543" font-family="Helvetica,sans-Serif" font-size="10.00">TranslatorCroatian</text>
</a>
</g>
</g>
<!-- Node9&#45;&gt;Node30 -->
<g id="edge30" class="edge">
<title>Node9&#45;&gt;Node30</title>
<path fill="none" stroke="#63b8ff" d="M1651.19,-545.5C1665.16,-545.5 1679.41,-545.5 1692.44,-545.5"/>
<polygon fill="#63b8ff" stroke="#63b8ff" points="1651.08,-542 1641.08,-545.5 1651.08,-549 1651.08,-542"/>
</g>
<!-- Node31 -->
<g id="node32" class="node">
<title>Node31</title>
<g id="a_node32"><a xlink:href="de/d82/class_translator_polish.html" target="_top" xlink:title=" ">
<polygon fill="white" stroke="#666666" points="1792.5,-518 1698.5,-518 1698.5,-499 1792.5,-499 1792.5,-518"/>
<text text-anchor="middle" x="1745.5" y="-506" font-family="Helvetica,sans-Serif" font-size="10.00">TranslatorPolish</text>
</a>
</g>
</g>
<!-- Node9&#45;&gt;Node31 -->
<g id="edge31" class="edge">
<title>Node9&#45;&gt;Node31</title>
<path fill="none" stroke="#63b8ff" d="M1627.35,-533.85C1650.84,-528.77 1678.04,-522.88 1700.32,-518.06"/>
<polygon fill="#63b8ff" stroke="#63b8ff" points="1626.57,-530.44 1617.54,-535.97 1628.05,-537.28 1626.57,-530.44"/>
</g>
<!-- Node11 -->
<g id="node12" class="node">
<title>Node11</title>
<g id="a_node12"><a xlink:href="da/d24/class_translator_adapter__1__7__5.html" target="_top" xlink:title="Adapter class for languages that only contain translations up to version 1.7.5.">
<polygon fill="white" stroke="#666666" points="1987,-666 1850,-666 1850,-647 1987,-647 1987,-666"/>
<text text-anchor="middle" x="1918.5" y="-654" font-family="Helvetica,sans-Serif" font-size="10.00">TranslatorAdapter_1_7_5</text>
</a>
</g>
</g>
<!-- Node10&#45;&gt;Node11 -->
<g id="edge11" class="edge">
<title>Node10&#45;&gt;Node11</title>
<path fill="none" stroke="#63b8ff" d="M1770.82,-597.34C1791.35,-609.4 1821.83,-626.2 1850,-637.5 1858.93,-641.08 1868.77,-644.26 1878.12,-646.95"/>
<polygon fill="#63b8ff" stroke="#63b8ff" points="1772.51,-594.27 1762.13,-592.17 1768.93,-600.29 1772.51,-594.27"/>
</g>
<!-- Node26 -->
<g id="node27" class="node">
<title>Node26</title>
<g id="a_node27"><a xlink:href="da/db8/class_translator_armenian.html" target="_top" xlink:title=" ">
<polygon fill="white" stroke="#666666" points="1974.5,-629 1862.5,-629 1862.5,-610 1974.5,-610 1974.5,-629"/>
<text text-anchor="middle" x="1918.5" y="-617" font-family="Helvetica,sans-Serif" font-size="10.00">TranslatorArmenian</text>
</a>
</g>
</g>
<!-- Node10&#45;&gt;Node26 -->
<g id="edge26" class="edge">
<title>Node10&#45;&gt;Node26</title>
<path fill="none" stroke="#63b8ff" d="M1800.35,-594.15C1823.84,-599.23 1851.04,-605.12 1873.32,-609.94"/>
<polygon fill="#63b8ff" stroke="#63b8ff" points="1801.05,-590.72 1790.54,-592.03 1799.57,-597.56 1801.05,-590.72"/>
</g>
<!-- Node27 -->
<g id="node28" class="node">
<title>Node27</title>
<g id="a_node28"><a xlink:href="d9/dc1/class_translator_catalan.html" target="_top" xlink:title=" ">
<polygon fill="white" stroke="#666666" points="1969.5,-592 1867.5,-592 1867.5,-573 1969.5,-573 1969.5,-592"/>
<text text-anchor="middle" x="1918.5" y="-580" font-family="Helvetica,sans-Serif" font-size="10.00">TranslatorCatalan</text>
</a>
</g>
</g>
<!-- Node10&#45;&gt;Node27 -->
<g id="edge27" class="edge">
<title>Node10&#45;&gt;Node27</title>
<path fill="none" stroke="#63b8ff" d="M1824.15,-582.5C1838.8,-582.5 1853.76,-582.5 1867.28,-582.5"/>
<polygon fill="#63b8ff" stroke="#63b8ff" points="1824.08,-579 1814.08,-582.5 1824.08,-586 1824.08,-579"/>
</g>
<!-- Node28 -->
<g id="node29" class="node">
<title>Node28</title>
<g id="a_node29"><a xlink:href="d7/d21/class_translator_danish.html" target="_top" xlink:title=" ">
<polygon fill="white" stroke="#666666" points="1967.5,-555 1869.5,-555 1869.5,-536 1967.5,-536 1967.5,-555"/>
<text text-anchor="middle" x="1918.5" y="-543" font-family="Helvetica,sans-Serif" font-size="10.00">TranslatorDanish</text>
</a>
</g>
</g>
<!-- Node10&#45;&gt;Node28 -->
<g id="edge28" class="edge">
<title>Node10&#45;&gt;Node28</title>
<path fill="none" stroke="#63b8ff" d="M1800.35,-570.85C1823.84,-565.77 1851.04,-559.88 1873.32,-555.06"/>
<polygon fill="#63b8ff" stroke="#63b8ff" points="1799.57,-567.44 1790.54,-572.97 1801.05,-574.28 1799.57,-567.44"/>
</g>
<!-- Node29 -->
<g id="node30" class="node">
<title>Node29</title>
<g id="a_node30"><a xlink:href="df/dc8/class_translator_indonesian.html" target="_top" xlink:title=" ">
<polygon fill="white" stroke="#666666" points="1977.5,-518 1859.5,-518 1859.5,-499 1977.5,-499 1977.5,-518"/>
<text text-anchor="middle" x="1918.5" y="-506" font-family="Helvetica,sans-Serif" font-size="10.00">TranslatorIndonesian</text>
</a>
</g>
</g>
<!-- Node10&#45;&gt;Node29 -->
<g id="edge29" class="edge">
<title>Node10&#45;&gt;Node29</title>
<path fill="none" stroke="#63b8ff" d="M1802.42,-569.32C1806.44,-567.6 1810.35,-565.67 1814,-563.5 1833.72,-551.77 1830.2,-538.1 1850,-526.5 1855.86,-523.07 1862.39,-520.28 1869.01,-518.01"/>
<polygon fill="#63b8ff" stroke="#63b8ff" points="1800.97,-566.13 1792.86,-572.95 1803.46,-572.67 1800.97,-566.13"/>
</g>
<!-- Node12 -->
<g id="node13" class="node">
<title>Node12</title>
<g id="a_node13"><a xlink:href="d3/da1/class_translator_adapter__1__6__0.html" target="_top" xlink:title="Adapter class for languages that only contain translations up to version 1.6.0.">
<polygon fill="white" stroke="#666666" points="2160,-703 2023,-703 2023,-684 2160,-684 2160,-703"/>
<text text-anchor="middle" x="2091.5" y="-691" font-family="Helvetica,sans-Serif" font-size="10.00">TranslatorAdapter_1_6_0</text>
</a>
</g>
</g>
<!-- Node11&#45;&gt;Node12 -->
<g id="edge12" class="edge">
<title>Node11&#45;&gt;Node12</title>
<path fill="none" stroke="#63b8ff" d="M1973.35,-668.15C1996.84,-673.23 2024.04,-679.12 2046.32,-683.94"/>
<polygon fill="#63b8ff" stroke="#63b8ff" points="1974.05,-664.72 1963.54,-666.03 1972.57,-671.56 1974.05,-664.72"/>
</g>
<!-- Node24 -->
<g id="node25" class="node">
<title>Node24</title>
<g id="a_node25"><a xlink:href="d5/d43/class_translator_persian.html" target="_top" xlink:title=" ">
<polygon fill="white" stroke="#666666" points="2142,-666 2041,-666 2041,-647 2142,-647 2142,-666"/>
<text text-anchor="middle" x="2091.5" y="-654" font-family="Helvetica,sans-Serif" font-size="10.00">TranslatorPersian</text>
</a>
</g>
</g>
<!-- Node11&#45;&gt;Node24 -->
<g id="edge24" class="edge">
<title>Node11&#45;&gt;Node24</title>
<path fill="none" stroke="#63b8ff" d="M1997.26,-656.5C2012.06,-656.5 2027.18,-656.5 2040.81,-656.5"/>
<polygon fill="#63b8ff" stroke="#63b8ff" points="1997.08,-653 1987.08,-656.5 1997.08,-660 1997.08,-653"/>
</g>
<!-- Node25 -->
<g id="node26" class="node">
<title>Node25</title>
<g id="a_node26"><a xlink:href="dd/d80/class_translator_turkish.html" target="_top" xlink:title=" ">
<polygon fill="white" stroke="#666666" points="2141,-629 2042,-629 2042,-610 2141,-610 2141,-629"/>
<text text-anchor="middle" x="2091.5" y="-617" font-family="Helvetica,sans-Serif" font-size="10.00">TranslatorTurkish</text>
</a>
</g>
</g>
<!-- Node11&#45;&gt;Node25 -->
<g id="edge25" class="edge">
<title>Node11&#45;&gt;Node25</title>
<path fill="none" stroke="#63b8ff" d="M1973.35,-644.85C1996.84,-639.77 2024.04,-633.88 2046.32,-629.06"/>
<polygon fill="#63b8ff" stroke="#63b8ff" points="1972.57,-641.44 1963.54,-646.97 1974.05,-648.28 1972.57,-641.44"/>
</g>
<!-- Node13 -->
<g id="node14" class="node">
<title>Node13</title>
<g id="a_node14"><a xlink:href="d4/d2b/class_translator_adapter__1__4__6.html" target="_top" xlink:title="Adapter class for languages that only contain translations up to version 1.4.6.">
<polygon fill="white" stroke="#666666" points="2333,-814 2196,-814 2196,-795 2333,-795 2333,-814"/>
<text text-anchor="middle" x="2264.5" y="-802" font-family="Helvetica,sans-Serif" font-size="10.00">TranslatorAdapter_1_4_6</text>
</a>
</g>
</g>
<!-- Node12&#45;&gt;Node13 -->
<g id="edge13" class="edge">
<title>Node12&#45;&gt;Node13</title>
<path fill="none" stroke="#63b8ff" d="M2107.01,-710.8C2125.54,-731.78 2159.59,-766.79 2196,-786.5 2202.29,-789.91 2209.27,-792.7 2216.28,-794.98"/>
<polygon fill="#63b8ff" stroke="#63b8ff" points="2109.46,-708.28 2100.27,-703 2104.17,-712.86 2109.46,-708.28"/>
</g>
<!-- Node18 -->
<g id="node19" class="node">
<title>Node18</title>
<g id="a_node19"><a xlink:href="d3/d65/class_translator_afrikaans.html" target="_top" xlink:title=" ">
<polygon fill="white" stroke="#666666" points="2319.5,-777 2209.5,-777 2209.5,-758 2319.5,-758 2319.5,-777"/>
<text text-anchor="middle" x="2264.5" y="-765" font-family="Helvetica,sans-Serif" font-size="10.00">TranslatorAfrikaans</text>
</a>
</g>
</g>
<!-- Node12&#45;&gt;Node18 -->
<g id="edge18" class="edge">
<title>Node12&#45;&gt;Node18</title>
<path fill="none" stroke="#63b8ff" d="M2116.03,-708.31C2136.52,-720.7 2167.35,-738.11 2196,-749.5 2204.11,-752.73 2213,-755.56 2221.59,-757.97"/>
<polygon fill="#63b8ff" stroke="#63b8ff" points="2117.74,-705.26 2107.39,-703.01 2114.08,-711.22 2117.74,-705.26"/>
</g>
<!-- Node19 -->
<g id="node20" class="node">
<title>Node19</title>
<g id="a_node20"><a xlink:href="de/df7/class_translator_finnish.html" target="_top" xlink:title=" ">
<polygon fill="white" stroke="#666666" points="2314,-740 2215,-740 2215,-721 2314,-721 2314,-740"/>
<text text-anchor="middle" x="2264.5" y="-728" font-family="Helvetica,sans-Serif" font-size="10.00">TranslatorFinnish</text>
</a>
</g>
</g>
<!-- Node12&#45;&gt;Node19 -->
<g id="edge19" class="edge">
<title>Node12&#45;&gt;Node19</title>
<path fill="none" stroke="#63b8ff" d="M2146.35,-705.15C2169.84,-710.23 2197.04,-716.12 2219.32,-720.94"/>
<polygon fill="#63b8ff" stroke="#63b8ff" points="2147.05,-701.72 2136.54,-703.03 2145.57,-708.56 2147.05,-701.72"/>
</g>
<!-- Node20 -->
<g id="node21" class="node">
<title>Node20</title>
<g id="a_node21"><a xlink:href="d9/ddf/class_translator_macedonian.html" target="_top" xlink:title=" ">
<polygon fill="white" stroke="#666666" points="2326.5,-703 2202.5,-703 2202.5,-684 2326.5,-684 2326.5,-703"/>
<text text-anchor="middle" x="2264.5" y="-691" font-family="Helvetica,sans-Serif" font-size="10.00">TranslatorMacedonian</text>
</a>
</g>
</g>
<!-- Node12&#45;&gt;Node20 -->
<g id="edge20" class="edge">
<title>Node12&#45;&gt;Node20</title>
<path fill="none" stroke="#63b8ff" d="M2170.28,-693.5C2181,-693.5 2191.88,-693.5 2202.24,-693.5"/>
<polygon fill="#63b8ff" stroke="#63b8ff" points="2170.08,-690 2160.08,-693.5 2170.08,-697 2170.08,-690"/>
</g>
<!-- Node21 -->
<g id="node22" class="node">
<title>Node21</title>
<g id="a_node22"><a xlink:href="d5/d0a/class_translator_serbian.html" target="_top" xlink:title=" ">
<polygon fill="white" stroke="#666666" points="2315,-666 2214,-666 2214,-647 2315,-647 2315,-666"/>
<text text-anchor="middle" x="2264.5" y="-654" font-family="Helvetica,sans-Serif" font-size="10.00">TranslatorSerbian</text>
</a>
</g>
</g>
<!-- Node12&#45;&gt;Node21 -->
<g id="edge21" class="edge">
<title>Node12&#45;&gt;Node21</title>
<path fill="none" stroke="#63b8ff" d="M2146.35,-681.85C2169.84,-676.77 2197.04,-670.88 2219.32,-666.06"/>
<polygon fill="#63b8ff" stroke="#63b8ff" points="2145.57,-678.44 2136.54,-683.97 2147.05,-685.28 2145.57,-678.44"/>
</g>
<!-- Node22 -->
<g id="node23" class="node">
<title>Node22</title>
<g id="a_node23"><a xlink:href="dc/d03/class_translator_serbian_cyrillic.html" target="_top" xlink:title=" ">
<polygon fill="white" stroke="#666666" points="2332,-629 2197,-629 2197,-610 2332,-610 2332,-629"/>
<text text-anchor="middle" x="2264.5" y="-617" font-family="Helvetica,sans-Serif" font-size="10.00">TranslatorSerbianCyrillic</text>
</a>
</g>
</g>
<!-- Node12&#45;&gt;Node22 -->
<g id="edge22" class="edge">
<title>Node12&#45;&gt;Node22</title>
<path fill="none" stroke="#63b8ff" d="M2148.42,-680.32C2152.44,-678.6 2156.35,-676.67 2160,-674.5 2179.72,-662.77 2176.2,-649.1 2196,-637.5 2201.86,-634.07 2208.39,-631.28 2215.01,-629.01"/>
<polygon fill="#63b8ff" stroke="#63b8ff" points="2146.97,-677.13 2138.86,-683.95 2149.46,-683.67 2146.97,-677.13"/>
</g>
<!-- Node23 -->
<g id="node24" class="node">
<title>Node23</title>
<g id="a_node24"><a xlink:href="df/d20/class_translator_vietnamese.html" target="_top" xlink:title=" ">
<polygon fill="white" stroke="#666666" points="2326,-592 2203,-592 2203,-573 2326,-573 2326,-592"/>
<text text-anchor="middle" x="2264.5" y="-580" font-family="Helvetica,sans-Serif" font-size="10.00">TranslatorVietnamese</text>
</a>
</g>
</g>
<!-- Node12&#45;&gt;Node23 -->
<g id="edge23" class="edge">
<title>Node12&#45;&gt;Node23</title>
<path fill="none" stroke="#63b8ff" d="M2153.48,-679.18C2155.77,-677.76 2157.96,-676.21 2160,-674.5 2188.06,-651.04 2167.78,-623.76 2196,-600.5 2200.12,-597.11 2204.81,-594.35 2209.77,-592.1"/>
<polygon fill="#63b8ff" stroke="#63b8ff" points="2151.48,-676.27 2144.21,-683.97 2154.7,-682.49 2151.48,-676.27"/>
</g>
<!-- Node14 -->
<g id="node15" class="node">
<title>Node14</title>
<g id="a_node15"><a xlink:href="d3/de9/class_translator_arabic.html" target="_top" xlink:title=" ">
<polygon fill="white" stroke="#666666" points="2475,-869 2380,-869 2380,-850 2475,-850 2475,-869"/>
<text text-anchor="middle" x="2427.5" y="-857" font-family="Helvetica,sans-Serif" font-size="10.00">TranslatorArabic</text>
</a>
</g>
</g>
<!-- Node13&#45;&gt;Node14 -->
<g id="edge14" class="edge">
<title>Node13&#45;&gt;Node14</title>
<path fill="none" stroke="#63b8ff" d="M2300.94,-817.57C2320.87,-824.81 2346.25,-833.88 2369,-841.5 2377.43,-844.33 2386.6,-847.26 2395.09,-849.92"/>
<polygon fill="#63b8ff" stroke="#63b8ff" points="2301.94,-814.2 2291.35,-814.06 2299.54,-820.78 2301.94,-814.2"/>
</g>
<!-- Node15 -->
<g id="node16" class="node">
<title>Node15</title>
<g id="a_node16"><a xlink:href="dc/d53/class_translator_lithuanian.html" target="_top" xlink:title=" ">
<polygon fill="white" stroke="#666666" points="2485.5,-832 2369.5,-832 2369.5,-813 2485.5,-813 2485.5,-832"/>
<text text-anchor="middle" x="2427.5" y="-820" font-family="Helvetica,sans-Serif" font-size="10.00">TranslatorLithuanian</text>
</a>
</g>
</g>
<!-- Node13&#45;&gt;Node15 -->
<g id="edge15" class="edge">
<title>Node13&#45;&gt;Node15</title>
<path fill="none" stroke="#63b8ff" d="M2343.53,-813.22C2352.27,-814.2 2361.05,-815.18 2369.46,-816.12"/>
<polygon fill="#63b8ff" stroke="#63b8ff" points="2343.64,-809.71 2333.31,-812.08 2342.86,-816.67 2343.64,-809.71"/>
</g>
<!-- Node16 -->
<g id="node17" class="node">
<title>Node16</title>
<g id="a_node17"><a xlink:href="dd/d38/class_translator_norwegian.html" target="_top" xlink:title=" ">
<polygon fill="white" stroke="#666666" points="2486,-795 2369,-795 2369,-776 2486,-776 2486,-795"/>
<text text-anchor="middle" x="2427.5" y="-783" font-family="Helvetica,sans-Serif" font-size="10.00">TranslatorNorwegian</text>
</a>
</g>
</g>
<!-- Node13&#45;&gt;Node16 -->
<g id="edge16" class="edge">
<title>Node13&#45;&gt;Node16</title>
<path fill="none" stroke="#63b8ff" d="M2343.38,-795.31C2352,-794.29 2360.66,-793.27 2368.96,-792.29"/>
<polygon fill="#63b8ff" stroke="#63b8ff" points="2342.83,-791.85 2333.31,-796.5 2343.65,-798.8 2342.83,-791.85"/>
</g>
<!-- Node17 -->
<g id="node18" class="node">
<title>Node17</title>
<g id="a_node18"><a xlink:href="dd/d0b/class_translator_slovene.html" target="_top" xlink:title=" ">
<polygon fill="white" stroke="#666666" points="2479.5,-758 2375.5,-758 2375.5,-739 2479.5,-739 2479.5,-758"/>
<text text-anchor="middle" x="2427.5" y="-746" font-family="Helvetica,sans-Serif" font-size="10.00">TranslatorSlovene</text>
</a>
</g>
</g>
<!-- Node13&#45;&gt;Node17 -->
<g id="edge17" class="edge">
<title>Node13&#45;&gt;Node17</title>
<path fill="none" stroke="#63b8ff" d="M2317.12,-792.03C2322.54,-790.34 2327.92,-788.49 2333,-786.5 2349.85,-779.91 2352.35,-774.58 2369,-767.5 2377.13,-764.04 2386.11,-760.81 2394.51,-758.02"/>
<polygon fill="#63b8ff" stroke="#63b8ff" points="2315.98,-788.71 2307.38,-794.9 2317.96,-795.43 2315.98,-788.71"/>
</g>
<!-- Node54 -->
<g id="node55" class="node">
<title>Node54</title>
<g id="a_node55"><a xlink:href="d0/d16/class_translator_japanese_en.html" target="_top" xlink:title=" ">
<polygon fill="white" stroke="#666666" points="393,-112 272,-112 272,-93 393,-93 393,-112"/>
<text text-anchor="middle" x="332.5" y="-100" font-family="Helvetica,sans-Serif" font-size="10.00">TranslatorJapaneseEn</text>
</a>
</g>
</g>
<!-- Node53&#45;&gt;Node54 -->
<g id="edge54" class="edge">
<title>Node53&#45;&gt;Node54</title>
<path fill="none" stroke="#63b8ff" d="M225.15,-90.33C240.31,-92.06 256.6,-93.93 271.77,-95.66"/>
<polygon fill="#63b8ff" stroke="#63b8ff" points="225.19,-86.81 214.86,-89.15 224.39,-93.76 225.19,-86.81"/>
</g>
<!-- Node55 -->
<g id="node56" class="node">
<title>Node55</title>
<g id="a_node56"><a xlink:href="d0/d3a/class_translator_korean_en.html" target="_top" xlink:title=" ">
<polygon fill="white" stroke="#666666" points="387.5,-75 277.5,-75 277.5,-56 387.5,-56 387.5,-75"/>
<text text-anchor="middle" x="332.5" y="-63" font-family="Helvetica,sans-Serif" font-size="10.00">TranslatorKoreanEn</text>
</a>
</g>
</g>
<!-- Node53&#45;&gt;Node55 -->
<g id="edge55" class="edge">
<title>Node53&#45;&gt;Node55</title>
<path fill="none" stroke="#63b8ff" d="M225.25,-77.02C242.28,-75.17 260.73,-73.17 277.41,-71.37"/>
<polygon fill="#63b8ff" stroke="#63b8ff" points="224.42,-73.59 214.86,-78.15 225.18,-80.55 224.42,-73.59"/>
</g>
</g>
</svg>
