<?xml version="1.0" encoding="UTF-8" standalone="no"?>
<!DOCTYPE svg PUBLIC "-//W3C//DTD SVG 1.1//EN"
 "http://www.w3.org/Graphics/SVG/1.1/DTD/svg11.dtd">
<!-- Generated by graphviz version 2.43.0 (0)
 -->
<!-- Title: /home/runner/work/doxygen/doxygen/src/scopedtypevariant.h Pages: 1 -->
<svg width="735pt" height="368pt"
 viewBox="0.00 0.00 734.50 368.00" xmlns="http://www.w3.org/2000/svg" xmlns:xlink="http://www.w3.org/1999/xlink">
<g id="graph0" class="graph" transform="scale(1 1) rotate(0) translate(4 364)">
<title>/home/runner/work/doxygen/doxygen/src/scopedtypevariant.h</title>
<!-- Node1 -->
<g id="Node000001" class="node">
<title>Node1</title>
<g id="a_Node000001"><a xlink:title=" ">
<polygon fill="#999999" stroke="#666666" points="494,-360 312,-360 312,-330 494,-330 494,-360"/>
<text text-anchor="start" x="320" y="-348" font-family="Helvetica,sans-Serif" font-size="10.00">/home/runner/work/doxygen</text>
<text text-anchor="middle" x="403" y="-337" font-family="Helvetica,sans-Serif" font-size="10.00">/doxygen/src/scopedtypevariant.h</text>
</a>
</g>
</g>
<!-- Node2 -->
<g id="Node000002" class="node">
<title>Node2</title>
<g id="a_Node000002"><a xlink:title=" ">
<polygon fill="#e0e0e0" stroke="#999999" points="293.5,-294 248.5,-294 248.5,-275 293.5,-275 293.5,-294"/>
<text text-anchor="middle" x="271" y="-282" font-family="Helvetica,sans-Serif" font-size="10.00">utility</text>
</a>
</g>
</g>
<!-- Node1&#45;&gt;Node2 -->
<g id="edge1_Node000001_Node000002" class="edge">
<title>Node1&#45;&gt;Node2</title>
<g id="a_edge1_Node000001_Node000002"><a xlink:title=" ">
<path fill="none" stroke="#63b8ff" d="M371.38,-329.99C349.65,-320.36 321.03,-307.67 299.91,-298.31"/>
<polygon fill="#63b8ff" stroke="#63b8ff" points="301.05,-294.99 290.49,-294.14 298.22,-301.39 301.05,-294.99"/>
</a>
</g>
</g>
<!-- Node3 -->
<g id="Node000003" class="node">
<title>Node3</title>
<g id="a_Node000003"><a xlink:title=" ">
<polygon fill="#e0e0e0" stroke="#999999" points="726.5,-129 679.5,-129 679.5,-110 726.5,-110 726.5,-129"/>
<text text-anchor="middle" x="703" y="-117" font-family="Helvetica,sans-Serif" font-size="10.00">vector</text>
</a>
</g>
</g>
<!-- Node1&#45;&gt;Node3 -->
<g id="edge2_Node000001_Node000003" class="edge">
<title>Node1&#45;&gt;Node3</title>
<g id="a_edge2_Node000001_Node000003"><a xlink:title=" ">
<path fill="none" stroke="#63b8ff" d="M435.58,-329.87C487.9,-305.94 591.69,-253.2 660,-184 673.7,-170.12 685.8,-151.34 693.64,-137.81"/>
<polygon fill="#63b8ff" stroke="#63b8ff" points="696.73,-139.46 698.57,-129.03 690.62,-136.04 696.73,-139.46"/>
</a>
</g>
</g>
<!-- Node4 -->
<g id="Node000004" class="node">
<title>Node4</title>
<g id="a_Node000004"><a xlink:href="../../d7/d5c/qcstring_8h.html" target="_top" xlink:title=" ">
<polygon fill="white" stroke="#666666" points="359.5,-129 294.5,-129 294.5,-110 359.5,-110 359.5,-129"/>
<text text-anchor="middle" x="327" y="-117" font-family="Helvetica,sans-Serif" font-size="10.00">qcstring.h</text>
</a>
</g>
</g>
<!-- Node1&#45;&gt;Node4 -->
<g id="edge3_Node000001_Node000004" class="edge">
<title>Node1&#45;&gt;Node4</title>
<g id="a_edge3_Node000001_Node000004"><a xlink:title=" ">
<path fill="none" stroke="#63b8ff" d="M396.6,-329.7C384.42,-302.03 357.63,-239.04 341,-184 336.51,-169.12 332.8,-151.88 330.33,-139.12"/>
<polygon fill="#63b8ff" stroke="#63b8ff" points="333.76,-138.43 328.49,-129.24 326.88,-139.71 333.76,-138.43"/>
</a>
</g>
</g>
<!-- Node14 -->
<g id="Node000014" class="node">
<title>Node14</title>
<g id="a_Node000014"><a xlink:href="../../df/da1/definition_8h.html" target="_top" xlink:title=" ">
<polygon fill="white" stroke="#666666" points="493.5,-294 422.5,-294 422.5,-275 493.5,-275 493.5,-294"/>
<text text-anchor="middle" x="458" y="-282" font-family="Helvetica,sans-Serif" font-size="10.00">definition.h</text>
</a>
</g>
</g>
<!-- Node1&#45;&gt;Node14 -->
<g id="edge15_Node000001_Node000014" class="edge">
<title>Node1&#45;&gt;Node14</title>
<g id="a_edge15_Node000001_Node000014"><a xlink:title=" ">
<path fill="none" stroke="#63b8ff" d="M416.31,-329.84C424.3,-321.35 434.48,-310.52 442.78,-301.69"/>
<polygon fill="#63b8ff" stroke="#63b8ff" points="445.46,-303.95 449.76,-294.27 440.36,-299.15 445.46,-303.95"/>
</a>
</g>
</g>
<!-- Node5 -->
<g id="Node000005" class="node">
<title>Node5</title>
<g id="a_Node000005"><a xlink:title=" ">
<polygon fill="#e0e0e0" stroke="#999999" points="344,-19 300,-19 300,0 344,0 344,-19"/>
<text text-anchor="middle" x="322" y="-7" font-family="Helvetica,sans-Serif" font-size="10.00">string</text>
</a>
</g>
</g>
<!-- Node4&#45;&gt;Node5 -->
<g id="edge4_Node000004_Node000005" class="edge">
<title>Node4&#45;&gt;Node5</title>
<g id="a_edge4_Node000004_Node000005"><a xlink:title=" ">
<path fill="none" stroke="#63b8ff" d="M320.9,-109.8C315.25,-101.17 307.25,-87.35 304,-74 300.2,-58.36 305.99,-40.77 311.99,-28.07"/>
<polygon fill="#63b8ff" stroke="#63b8ff" points="315.16,-29.56 316.66,-19.07 308.95,-26.33 315.16,-29.56"/>
</a>
</g>
</g>
<!-- Node6 -->
<g id="Node000006" class="node">
<title>Node6</title>
<g id="a_Node000006"><a xlink:title=" ">
<polygon fill="#e0e0e0" stroke="#999999" points="547,-74 483,-74 483,-55 547,-55 547,-74"/>
<text text-anchor="middle" x="515" y="-62" font-family="Helvetica,sans-Serif" font-size="10.00">algorithm</text>
</a>
</g>
</g>
<!-- Node4&#45;&gt;Node6 -->
<g id="edge5_Node000004_Node000006" class="edge">
<title>Node4&#45;&gt;Node6</title>
<g id="a_edge5_Node000004_Node000006"><a xlink:title=" ">
<path fill="none" stroke="#63b8ff" d="M357.21,-109.98C389.04,-101.01 439.36,-86.82 474.6,-76.89"/>
<polygon fill="#63b8ff" stroke="#63b8ff" points="475.88,-80.16 484.56,-74.08 473.98,-73.43 475.88,-80.16"/>
</a>
</g>
</g>
<!-- Node7 -->
<g id="Node000007" class="node">
<title>Node7</title>
<g id="a_Node000007"><a xlink:title=" ">
<polygon fill="#e0e0e0" stroke="#999999" points="464.5,-74 415.5,-74 415.5,-55 464.5,-55 464.5,-74"/>
<text text-anchor="middle" x="440" y="-62" font-family="Helvetica,sans-Serif" font-size="10.00">cctype</text>
</a>
</g>
</g>
<!-- Node4&#45;&gt;Node7 -->
<g id="edge6_Node000004_Node000007" class="edge">
<title>Node4&#45;&gt;Node7</title>
<g id="a_edge6_Node000004_Node000007"><a xlink:title=" ">
<path fill="none" stroke="#63b8ff" d="M345.16,-109.98C363.25,-101.5 391.28,-88.35 412.19,-78.54"/>
<polygon fill="#63b8ff" stroke="#63b8ff" points="413.95,-81.59 421.51,-74.17 410.97,-75.25 413.95,-81.59"/>
</a>
</g>
</g>
<!-- Node8 -->
<g id="Node000008" class="node">
<title>Node8</title>
<g id="a_Node000008"><a xlink:title=" ">
<polygon fill="#e0e0e0" stroke="#999999" points="50,-74 0,-74 0,-55 50,-55 50,-74"/>
<text text-anchor="middle" x="25" y="-62" font-family="Helvetica,sans-Serif" font-size="10.00">cstring</text>
</a>
</g>
</g>
<!-- Node4&#45;&gt;Node8 -->
<g id="edge7_Node000004_Node000008" class="edge">
<title>Node4&#45;&gt;Node8</title>
<g id="a_edge7_Node000004_Node000008"><a xlink:title=" ">
<path fill="none" stroke="#63b8ff" d="M294.25,-113.93C245.38,-106.92 150.27,-92.56 60.04,-74.08"/>
<polygon fill="#63b8ff" stroke="#63b8ff" points="60.7,-70.64 50.2,-72.04 59.28,-77.49 60.7,-70.64"/>
</a>
</g>
</g>
<!-- Node9 -->
<g id="Node000009" class="node">
<title>Node9</title>
<g id="a_Node000009"><a xlink:title=" ">
<polygon fill="#e0e0e0" stroke="#999999" points="114,-74 68,-74 68,-55 114,-55 114,-74"/>
<text text-anchor="middle" x="91" y="-62" font-family="Helvetica,sans-Serif" font-size="10.00">cstdio</text>
</a>
</g>
</g>
<!-- Node4&#45;&gt;Node9 -->
<g id="edge8_Node000004_Node000009" class="edge">
<title>Node4&#45;&gt;Node9</title>
<g id="a_edge8_Node000004_Node000009"><a xlink:title=" ">
<path fill="none" stroke="#63b8ff" d="M294.39,-111.86C255.92,-103.92 189.82,-89.95 123.78,-74.1"/>
<polygon fill="#63b8ff" stroke="#63b8ff" points="124.58,-70.7 114.04,-71.75 122.94,-77.5 124.58,-70.7"/>
</a>
</g>
</g>
<!-- Node10 -->
<g id="Node000010" class="node">
<title>Node10</title>
<g id="a_Node000010"><a xlink:title=" ">
<polygon fill="#e0e0e0" stroke="#999999" points="181.5,-74 132.5,-74 132.5,-55 181.5,-55 181.5,-74"/>
<text text-anchor="middle" x="157" y="-62" font-family="Helvetica,sans-Serif" font-size="10.00">cstdlib</text>
</a>
</g>
</g>
<!-- Node4&#45;&gt;Node10 -->
<g id="edge9_Node000004_Node000010" class="edge">
<title>Node4&#45;&gt;Node10</title>
<g id="a_edge9_Node000004_Node000010"><a xlink:title=" ">
<path fill="none" stroke="#63b8ff" d="M299.69,-109.98C270.3,-100.82 223.49,-86.23 191.56,-76.27"/>
<polygon fill="#63b8ff" stroke="#63b8ff" points="192.35,-72.85 181.76,-73.22 190.26,-79.54 192.35,-72.85"/>
</a>
</g>
</g>
<!-- Node11 -->
<g id="Node000011" class="node">
<title>Node11</title>
<g id="a_Node000011"><a xlink:title=" ">
<polygon fill="#e0e0e0" stroke="#999999" points="412,-19 362,-19 362,0 412,0 412,-19"/>
<text text-anchor="middle" x="387" y="-7" font-family="Helvetica,sans-Serif" font-size="10.00">cstdint</text>
</a>
</g>
</g>
<!-- Node4&#45;&gt;Node11 -->
<g id="edge10_Node000004_Node000011" class="edge">
<title>Node4&#45;&gt;Node11</title>
<g id="a_edge10_Node000004_Node000011"><a xlink:title=" ">
<path fill="none" stroke="#63b8ff" d="M336.86,-109.88C345.87,-101.52 358.97,-88.07 367,-74 375.06,-59.88 380.3,-42.12 383.38,-28.97"/>
<polygon fill="#63b8ff" stroke="#63b8ff" points="386.81,-29.7 385.49,-19.19 379.96,-28.23 386.81,-29.7"/>
</a>
</g>
</g>
<!-- Node12 -->
<g id="Node000012" class="node">
<title>Node12</title>
<g id="a_Node000012"><a xlink:title=" ">
<polygon fill="#e0e0e0" stroke="#999999" points="256.5,-74 199.5,-74 199.5,-55 256.5,-55 256.5,-74"/>
<text text-anchor="middle" x="228" y="-62" font-family="Helvetica,sans-Serif" font-size="10.00">ostream</text>
</a>
</g>
</g>
<!-- Node4&#45;&gt;Node12 -->
<g id="edge11_Node000004_Node000012" class="edge">
<title>Node4&#45;&gt;Node12</title>
<g id="a_edge11_Node000004_Node000012"><a xlink:title=" ">
<path fill="none" stroke="#63b8ff" d="M311.09,-109.98C295.45,-101.61 271.34,-88.7 253.12,-78.95"/>
<polygon fill="#63b8ff" stroke="#63b8ff" points="254.66,-75.8 244.2,-74.17 251.36,-81.98 254.66,-75.8"/>
</a>
</g>
</g>
<!-- Node13 -->
<g id="Node000013" class="node">
<title>Node13</title>
<g id="a_Node000013"><a xlink:href="../../db/d7c/utf8_8h.html" target="_top" xlink:title="Various UTF8 related helper functions.">
<polygon fill="white" stroke="#666666" points="358.5,-74 313.5,-74 313.5,-55 358.5,-55 358.5,-74"/>
<text text-anchor="middle" x="336" y="-62" font-family="Helvetica,sans-Serif" font-size="10.00">utf8.h</text>
</a>
</g>
</g>
<!-- Node4&#45;&gt;Node13 -->
<g id="edge12_Node000004_Node000013" class="edge">
<title>Node4&#45;&gt;Node13</title>
<g id="a_edge12_Node000004_Node000013"><a xlink:title=" ">
<path fill="none" stroke="#63b8ff" d="M328.49,-109.75C329.67,-102.8 331.36,-92.85 332.84,-84.13"/>
<polygon fill="#63b8ff" stroke="#63b8ff" points="336.32,-84.53 334.54,-74.09 329.42,-83.36 336.32,-84.53"/>
</a>
</g>
</g>
<!-- Node13&#45;&gt;Node5 -->
<g id="edge14_Node000013_Node000005" class="edge">
<title>Node13&#45;&gt;Node5</title>
<g id="a_edge14_Node000013_Node000005"><a xlink:title=" ">
<path fill="none" stroke="#63b8ff" d="M333.69,-54.75C331.83,-47.72 329.16,-37.62 326.85,-28.84"/>
<polygon fill="#63b8ff" stroke="#63b8ff" points="330.21,-27.86 324.27,-19.09 323.44,-29.65 330.21,-27.86"/>
</a>
</g>
</g>
<!-- Node13&#45;&gt;Node11 -->
<g id="edge13_Node000013_Node000011" class="edge">
<title>Node13&#45;&gt;Node11</title>
<g id="a_edge13_Node000013_Node000011"><a xlink:title=" ">
<path fill="none" stroke="#63b8ff" d="M344.42,-54.75C351.77,-47.11 362.63,-35.82 371.54,-26.56"/>
<polygon fill="#63b8ff" stroke="#63b8ff" points="374.32,-28.72 378.74,-19.09 369.28,-23.87 374.32,-28.72"/>
</a>
</g>
</g>
<!-- Node14&#45;&gt;Node3 -->
<g id="edge16_Node000014_Node000003" class="edge">
<title>Node14&#45;&gt;Node3</title>
<g id="a_edge16_Node000014_Node000003"><a xlink:title=" ">
<path fill="none" stroke="#63b8ff" d="M477.15,-274.93C510.81,-259.4 582.06,-224.45 635,-184 654.13,-169.38 674.04,-150.26 687.33,-136.83"/>
<polygon fill="#63b8ff" stroke="#63b8ff" points="690.21,-138.9 694.69,-129.3 685.2,-134.01 690.21,-138.9"/>
</a>
</g>
</g>
<!-- Node15 -->
<g id="Node000015" class="node">
<title>Node15</title>
<g id="a_Node000015"><a xlink:href="../../d9/d49/types_8h.html" target="_top" xlink:title="This file contains a number of basic enums and types.">
<polygon fill="white" stroke="#666666" points="403.5,-184 350.5,-184 350.5,-165 403.5,-165 403.5,-184"/>
<text text-anchor="middle" x="377" y="-172" font-family="Helvetica,sans-Serif" font-size="10.00">types.h</text>
</a>
</g>
</g>
<!-- Node14&#45;&gt;Node15 -->
<g id="edge17_Node000014_Node000015" class="edge">
<title>Node14&#45;&gt;Node15</title>
<g id="a_edge17_Node000014_Node000015"><a xlink:title=" ">
<path fill="none" stroke="#63b8ff" d="M451.37,-274.66C437.9,-256.69 407.11,-215.64 389.66,-192.38"/>
<polygon fill="#63b8ff" stroke="#63b8ff" points="392.29,-190.06 383.49,-184.16 386.69,-194.26 392.29,-190.06"/>
</a>
</g>
</g>
<!-- Node16 -->
<g id="Node000016" class="node">
<title>Node16</title>
<g id="a_Node000016"><a xlink:href="../../d1/d02/reflist_8h.html" target="_top" xlink:title=" ">
<polygon fill="white" stroke="#666666" points="537.5,-239 484.5,-239 484.5,-220 537.5,-220 537.5,-239"/>
<text text-anchor="middle" x="511" y="-227" font-family="Helvetica,sans-Serif" font-size="10.00">reflist.h</text>
</a>
</g>
</g>
<!-- Node14&#45;&gt;Node16 -->
<g id="edge19_Node000014_Node000016" class="edge">
<title>Node14&#45;&gt;Node16</title>
<g id="a_edge19_Node000014_Node000016"><a xlink:title=" ">
<path fill="none" stroke="#63b8ff" d="M466.75,-274.75C474.47,-267.03 485.9,-255.6 495.22,-246.28"/>
<polygon fill="#63b8ff" stroke="#63b8ff" points="497.81,-248.64 502.41,-239.09 492.86,-243.69 497.81,-248.64"/>
</a>
</g>
</g>
<!-- Node15&#45;&gt;Node4 -->
<g id="edge18_Node000015_Node000004" class="edge">
<title>Node15&#45;&gt;Node4</title>
<g id="a_edge18_Node000015_Node000004"><a xlink:title=" ">
<path fill="none" stroke="#63b8ff" d="M368.74,-164.75C361.54,-157.11 350.89,-145.82 342.15,-136.56"/>
<polygon fill="#63b8ff" stroke="#63b8ff" points="344.51,-133.96 335.1,-129.09 339.42,-138.76 344.51,-133.96"/>
</a>
</g>
</g>
<!-- Node16&#45;&gt;Node3 -->
<g id="edge20_Node000016_Node000003" class="edge">
<title>Node16&#45;&gt;Node3</title>
<g id="a_edge20_Node000016_Node000003"><a xlink:title=" ">
<path fill="none" stroke="#63b8ff" d="M531.67,-219.99C551.42,-211.61 581.82,-198.06 607,-184 634.26,-168.78 664.01,-148.48 683.05,-134.98"/>
<polygon fill="#63b8ff" stroke="#63b8ff" points="685.14,-137.78 691.24,-129.12 681.07,-132.09 685.14,-137.78"/>
</a>
</g>
</g>
<!-- Node16&#45;&gt;Node4 -->
<g id="edge23_Node000016_Node000004" class="edge">
<title>Node16&#45;&gt;Node4</title>
<g id="a_edge23_Node000016_Node000004"><a xlink:title=" ">
<path fill="none" stroke="#63b8ff" d="M498.41,-219.92C479.81,-207.36 443.78,-183.46 412,-165 392.86,-153.88 370.68,-142.31 353.78,-133.76"/>
<polygon fill="#63b8ff" stroke="#63b8ff" points="355.01,-130.46 344.5,-129.09 351.86,-136.71 355.01,-130.46"/>
</a>
</g>
</g>
<!-- Node17 -->
<g id="Node000017" class="node">
<title>Node17</title>
<g id="a_Node000017"><a xlink:title=" ">
<polygon fill="#e0e0e0" stroke="#999999" points="470.5,-129 377.5,-129 377.5,-110 470.5,-110 470.5,-129"/>
<text text-anchor="middle" x="424" y="-117" font-family="Helvetica,sans-Serif" font-size="10.00">unordered_map</text>
</a>
</g>
</g>
<!-- Node16&#45;&gt;Node17 -->
<g id="edge21_Node000016_Node000017" class="edge">
<title>Node16&#45;&gt;Node17</title>
<g id="a_edge21_Node000016_Node000017"><a xlink:title=" ">
<path fill="none" stroke="#63b8ff" d="M503.88,-219.66C489.34,-201.61 456.04,-160.28 437.35,-137.08"/>
<polygon fill="#63b8ff" stroke="#63b8ff" points="439.97,-134.75 430.97,-129.16 434.52,-139.14 439.97,-134.75"/>
</a>
</g>
</g>
<!-- Node18 -->
<g id="Node000018" class="node">
<title>Node18</title>
<g id="a_Node000018"><a xlink:title=" ">
<polygon fill="#e0e0e0" stroke="#999999" points="661,-129 603,-129 603,-110 661,-110 661,-129"/>
<text text-anchor="middle" x="632" y="-117" font-family="Helvetica,sans-Serif" font-size="10.00">memory</text>
</a>
</g>
</g>
<!-- Node16&#45;&gt;Node18 -->
<g id="edge22_Node000016_Node000018" class="edge">
<title>Node16&#45;&gt;Node18</title>
<g id="a_edge22_Node000016_Node000018"><a xlink:title=" ">
<path fill="none" stroke="#63b8ff" d="M529.07,-219.93C544.67,-211.99 567.27,-199.14 584,-184 599.01,-170.42 612.55,-151.6 621.4,-137.97"/>
<polygon fill="#63b8ff" stroke="#63b8ff" points="624.6,-139.45 626.96,-129.12 618.68,-135.72 624.6,-139.45"/>
</a>
</g>
</g>
<!-- Node19 -->
<g id="Node000019" class="node">
<title>Node19</title>
<g id="a_Node000019"><a xlink:href="../../da/de1/linkedmap_8h.html" target="_top" xlink:title=" ">
<polygon fill="white" stroke="#666666" points="575.5,-184 498.5,-184 498.5,-165 575.5,-165 575.5,-184"/>
<text text-anchor="middle" x="537" y="-172" font-family="Helvetica,sans-Serif" font-size="10.00">linkedmap.h</text>
</a>
</g>
</g>
<!-- Node16&#45;&gt;Node19 -->
<g id="edge24_Node000016_Node000019" class="edge">
<title>Node16&#45;&gt;Node19</title>
<g id="a_edge24_Node000016_Node000019"><a xlink:title=" ">
<path fill="none" stroke="#63b8ff" d="M515.29,-219.75C518.81,-212.57 523.91,-202.18 528.28,-193.27"/>
<polygon fill="#63b8ff" stroke="#63b8ff" points="531.52,-194.61 532.79,-184.09 525.24,-191.53 531.52,-194.61"/>
</a>
</g>
</g>
<!-- Node19&#45;&gt;Node3 -->
<g id="edge26_Node000019_Node000003" class="edge">
<title>Node19&#45;&gt;Node3</title>
<g id="a_edge26_Node000019_Node000003"><a xlink:title=" ">
<path fill="none" stroke="#63b8ff" d="M563.67,-164.98C592.53,-155.77 638.6,-141.06 669.79,-131.1"/>
<polygon fill="#63b8ff" stroke="#63b8ff" points="670.89,-134.43 679.35,-128.05 668.76,-127.76 670.89,-134.43"/>
</a>
</g>
</g>
<!-- Node19&#45;&gt;Node4 -->
<g id="edge31_Node000019_Node000004" class="edge">
<title>Node19&#45;&gt;Node4</title>
<g id="a_edge31_Node000019_Node000004"><a xlink:title=" ">
<path fill="none" stroke="#63b8ff" d="M503.26,-164.98C466.89,-155.81 408.92,-141.18 369.47,-131.22"/>
<polygon fill="#63b8ff" stroke="#63b8ff" points="370.17,-127.79 359.62,-128.73 368.46,-134.57 370.17,-127.79"/>
</a>
</g>
</g>
<!-- Node19&#45;&gt;Node5 -->
<g id="edge28_Node000019_Node000005" class="edge">
<title>Node19&#45;&gt;Node5</title>
<g id="a_edge28_Node000019_Node000005"><a xlink:title=" ">
<path fill="none" stroke="#63b8ff" d="M542.41,-164.85C555.03,-143.48 583.31,-87.57 556,-55 528.29,-21.95 412.46,-28.14 354.42,-18.81"/>
<polygon fill="#63b8ff" stroke="#63b8ff" points="354.77,-15.32 344.29,-16.88 353.45,-22.19 354.77,-15.32"/>
</a>
</g>
</g>
<!-- Node19&#45;&gt;Node6 -->
<g id="edge29_Node000019_Node000006" class="edge">
<title>Node19&#45;&gt;Node6</title>
<g id="a_edge29_Node000019_Node000006"><a xlink:title=" ">
<path fill="none" stroke="#63b8ff" d="M535.2,-164.66C531.64,-147.17 523.62,-107.8 518.82,-84.27"/>
<polygon fill="#63b8ff" stroke="#63b8ff" points="522.19,-83.26 516.76,-74.16 515.33,-84.66 522.19,-83.26"/>
</a>
</g>
</g>
<!-- Node19&#45;&gt;Node7 -->
<g id="edge30_Node000019_Node000007" class="edge">
<title>Node19&#45;&gt;Node7</title>
<g id="a_edge30_Node000019_Node000007"><a xlink:title=" ">
<path fill="none" stroke="#63b8ff" d="M529.06,-164.66C512.78,-146.54 475.4,-104.91 454.61,-81.77"/>
<polygon fill="#63b8ff" stroke="#63b8ff" points="457.06,-79.26 447.78,-74.16 451.85,-83.94 457.06,-79.26"/>
</a>
</g>
</g>
<!-- Node19&#45;&gt;Node17 -->
<g id="edge25_Node000019_Node000017" class="edge">
<title>Node19&#45;&gt;Node17</title>
<g id="a_edge25_Node000019_Node000017"><a xlink:title=" ">
<path fill="none" stroke="#63b8ff" d="M518.84,-164.98C500.75,-156.5 472.72,-143.35 451.81,-133.54"/>
<polygon fill="#63b8ff" stroke="#63b8ff" points="453.03,-130.25 442.49,-129.17 450.05,-136.59 453.03,-130.25"/>
</a>
</g>
</g>
<!-- Node19&#45;&gt;Node18 -->
<g id="edge27_Node000019_Node000018" class="edge">
<title>Node19&#45;&gt;Node18</title>
<g id="a_edge27_Node000019_Node000018"><a xlink:title=" ">
<path fill="none" stroke="#63b8ff" d="M552.26,-164.98C567.13,-156.69 589.98,-143.94 607.42,-134.22"/>
<polygon fill="#63b8ff" stroke="#63b8ff" points="609.43,-137.1 616.46,-129.17 606.02,-130.99 609.43,-137.1"/>
</a>
</g>
</g>
</g>
</svg>
