<?xml version="1.0" encoding="UTF-8" standalone="no"?>
<!DOCTYPE svg PUBLIC "-//W3C//DTD SVG 1.1//EN"
 "http://www.w3.org/Graphics/SVG/1.1/DTD/svg11.dtd">
<!-- Generated by graphviz version 2.43.0 (0)
 -->
<!-- Title: /home/runner/work/doxygen/doxygen/src/filename.h Pages: 1 -->
<svg width="3161pt" height="104pt"
 viewBox="0.00 0.00 3161.00 104.00" xmlns="http://www.w3.org/2000/svg" xmlns:xlink="http://www.w3.org/1999/xlink">
<g id="graph0" class="graph" transform="scale(1 1) rotate(0) translate(4 100)">
<title>/home/runner/work/doxygen/doxygen/src/filename.h</title>
<!-- Node1 -->
<g id="Node000001" class="node">
<title>Node1</title>
<g id="a_Node000001"><a xlink:title=" ">
<polygon fill="#999999" stroke="#666666" points="1643,-96 1489,-96 1489,-66 1643,-66 1643,-96"/>
<text text-anchor="start" x="1497" y="-84" font-family="Helvetica,sans-Serif" font-size="10.00">/home/runner/work/doxygen</text>
<text text-anchor="middle" x="1566" y="-73" font-family="Helvetica,sans-Serif" font-size="10.00">/doxygen/src/filename.h</text>
</a>
</g>
</g>
<!-- Node2 -->
<g id="Node000002" class="node">
<title>Node2</title>
<g id="a_Node000002"><a xlink:href="../../da/d1f/code_8l.html" target="_top" xlink:title=" ">
<polygon fill="white" stroke="#666666" points="154,-30 0,-30 0,0 154,0 154,-30"/>
<text text-anchor="start" x="8" y="-18" font-family="Helvetica,sans-Serif" font-size="10.00">/home/runner/work/doxygen</text>
<text text-anchor="middle" x="77" y="-7" font-family="Helvetica,sans-Serif" font-size="10.00">/doxygen/src/code.l</text>
</a>
</g>
</g>
<!-- Node1&#45;&gt;Node2 -->
<g id="edge1_Node000001_Node000002" class="edge">
<title>Node1&#45;&gt;Node2</title>
<g id="a_edge1_Node000001_Node000002"><a xlink:title=" ">
<path fill="none" stroke="#63b8ff" d="M1478.74,-80.69C1257.88,-81.63 659.02,-79.02 163,-30 160.14,-29.72 157.23,-29.4 154.29,-29.05"/>
<polygon fill="#63b8ff" stroke="#63b8ff" points="1478.99,-84.19 1488.97,-80.65 1478.95,-77.19 1478.99,-84.19"/>
</a>
</g>
</g>
<!-- Node3 -->
<g id="Node000003" class="node">
<title>Node3</title>
<g id="a_Node000003"><a xlink:href="../../db/d12/context_8cpp.html" target="_top" xlink:title=" ">
<polygon fill="white" stroke="#666666" points="326,-30 172,-30 172,0 326,0 326,-30"/>
<text text-anchor="start" x="180" y="-18" font-family="Helvetica,sans-Serif" font-size="10.00">/home/runner/work/doxygen</text>
<text text-anchor="middle" x="249" y="-7" font-family="Helvetica,sans-Serif" font-size="10.00">/doxygen/src/context.cpp</text>
</a>
</g>
</g>
<!-- Node1&#45;&gt;Node3 -->
<g id="edge2_Node000001_Node000003" class="edge">
<title>Node1&#45;&gt;Node3</title>
<g id="a_edge2_Node000001_Node000003"><a xlink:title=" ">
<path fill="none" stroke="#63b8ff" d="M1478.46,-80.07C1276.43,-79.43 762.22,-73.29 335,-30 332.14,-29.71 329.23,-29.39 326.3,-29.04"/>
<polygon fill="#63b8ff" stroke="#63b8ff" points="1478.7,-83.57 1488.71,-80.1 1478.72,-76.57 1478.7,-83.57"/>
</a>
</g>
</g>
<!-- Node4 -->
<g id="Node000004" class="node">
<title>Node4</title>
<g id="a_Node000004"><a xlink:href="../../d3/d17/defgen_8cpp.html" target="_top" xlink:title=" ">
<polygon fill="white" stroke="#666666" points="498,-30 344,-30 344,0 498,0 498,-30"/>
<text text-anchor="start" x="352" y="-18" font-family="Helvetica,sans-Serif" font-size="10.00">/home/runner/work/doxygen</text>
<text text-anchor="middle" x="421" y="-7" font-family="Helvetica,sans-Serif" font-size="10.00">/doxygen/src/defgen.cpp</text>
</a>
</g>
</g>
<!-- Node1&#45;&gt;Node4 -->
<g id="edge3_Node000001_Node000004" class="edge">
<title>Node1&#45;&gt;Node4</title>
<g id="a_edge3_Node000001_Node000004"><a xlink:title=" ">
<path fill="none" stroke="#63b8ff" d="M1478.68,-79.25C1297.22,-76.94 866.33,-67.61 507,-30 504.14,-29.7 501.23,-29.37 498.3,-29.01"/>
<polygon fill="#63b8ff" stroke="#63b8ff" points="1478.66,-82.75 1488.7,-79.37 1478.75,-75.75 1478.66,-82.75"/>
</a>
</g>
</g>
<!-- Node5 -->
<g id="Node000005" class="node">
<title>Node5</title>
<g id="a_Node000005"><a xlink:href="../../d8/d52/dirdef_8cpp.html" target="_top" xlink:title=" ">
<polygon fill="white" stroke="#666666" points="670,-30 516,-30 516,0 670,0 670,-30"/>
<text text-anchor="start" x="524" y="-18" font-family="Helvetica,sans-Serif" font-size="10.00">/home/runner/work/doxygen</text>
<text text-anchor="middle" x="593" y="-7" font-family="Helvetica,sans-Serif" font-size="10.00">/doxygen/src/dirdef.cpp</text>
</a>
</g>
</g>
<!-- Node1&#45;&gt;Node5 -->
<g id="edge4_Node000001_Node000005" class="edge">
<title>Node1&#45;&gt;Node5</title>
<g id="a_edge4_Node000001_Node000005"><a xlink:title=" ">
<path fill="none" stroke="#63b8ff" d="M1478.74,-78.12C1319.43,-74.01 971,-61.91 679,-30 676.14,-29.69 673.24,-29.34 670.3,-28.98"/>
<polygon fill="#63b8ff" stroke="#63b8ff" points="1478.87,-81.62 1488.95,-78.38 1479.04,-74.63 1478.87,-81.62"/>
</a>
</g>
</g>
<!-- Node6 -->
<g id="Node000006" class="node">
<title>Node6</title>
<g id="a_Node000006"><a xlink:href="../../d8/d29/docbookgen_8cpp.html" target="_top" xlink:title=" ">
<polygon fill="white" stroke="#666666" points="849.5,-30 688.5,-30 688.5,0 849.5,0 849.5,-30"/>
<text text-anchor="start" x="696.5" y="-18" font-family="Helvetica,sans-Serif" font-size="10.00">/home/runner/work/doxygen</text>
<text text-anchor="middle" x="769" y="-7" font-family="Helvetica,sans-Serif" font-size="10.00">/doxygen/src/docbookgen.cpp</text>
</a>
</g>
</g>
<!-- Node1&#45;&gt;Node6 -->
<g id="edge5_Node000001_Node000006" class="edge">
<title>Node1&#45;&gt;Node6</title>
<g id="a_edge5_Node000001_Node000006"><a xlink:title=" ">
<path fill="none" stroke="#63b8ff" d="M1478.6,-76.24C1344.69,-69.93 1080.84,-55.35 858,-30 855.36,-29.7 852.67,-29.38 849.97,-29.04"/>
<polygon fill="#63b8ff" stroke="#63b8ff" points="1478.65,-79.74 1488.8,-76.71 1478.97,-72.75 1478.65,-79.74"/>
</a>
</g>
</g>
<!-- Node7 -->
<g id="Node000007" class="node">
<title>Node7</title>
<g id="a_Node000007"><a xlink:href="../../dc/d05/docbookvisitor_8cpp.html" target="_top" xlink:title=" ">
<polygon fill="white" stroke="#666666" points="1040.5,-30 867.5,-30 867.5,0 1040.5,0 1040.5,-30"/>
<text text-anchor="start" x="875.5" y="-18" font-family="Helvetica,sans-Serif" font-size="10.00">/home/runner/work/doxygen</text>
<text text-anchor="middle" x="954" y="-7" font-family="Helvetica,sans-Serif" font-size="10.00">/doxygen/src/docbookvisitor.cpp</text>
</a>
</g>
</g>
<!-- Node1&#45;&gt;Node7 -->
<g id="edge6_Node000001_Node000007" class="edge">
<title>Node1&#45;&gt;Node7</title>
<g id="a_edge6_Node000001_Node000007"><a xlink:title=" ">
<path fill="none" stroke="#63b8ff" d="M1478.93,-72.85C1376.24,-64.12 1200.46,-48.25 1050,-30 1046.91,-29.62 1043.76,-29.23 1040.58,-28.82"/>
<polygon fill="#63b8ff" stroke="#63b8ff" points="1478.68,-76.34 1488.94,-73.7 1479.27,-69.37 1478.68,-76.34"/>
</a>
</g>
</g>
<!-- Node8 -->
<g id="Node000008" class="node">
<title>Node8</title>
<g id="a_Node000008"><a xlink:href="../../dc/d98/doxygen_8cpp.html" target="_top" xlink:title=" ">
<polygon fill="white" stroke="#666666" points="1213,-30 1059,-30 1059,0 1213,0 1213,-30"/>
<text text-anchor="start" x="1067" y="-18" font-family="Helvetica,sans-Serif" font-size="10.00">/home/runner/work/doxygen</text>
<text text-anchor="middle" x="1136" y="-7" font-family="Helvetica,sans-Serif" font-size="10.00">/doxygen/src/doxygen.cpp</text>
</a>
</g>
</g>
<!-- Node1&#45;&gt;Node8 -->
<g id="edge7_Node000001_Node000008" class="edge">
<title>Node1&#45;&gt;Node8</title>
<g id="a_edge7_Node000001_Node000008"><a xlink:title=" ">
<path fill="none" stroke="#63b8ff" d="M1478.71,-67.73C1409.14,-57.85 1309.27,-43.44 1222,-30 1219.16,-29.56 1216.27,-29.11 1213.35,-28.65"/>
<polygon fill="#63b8ff" stroke="#63b8ff" points="1478.36,-71.22 1488.75,-69.16 1479.34,-64.29 1478.36,-71.22"/>
</a>
</g>
</g>
<!-- Node9 -->
<g id="Node000009" class="node">
<title>Node9</title>
<g id="a_Node000009"><a xlink:href="../../d6/ddc/filedef_8cpp.html" target="_top" xlink:title=" ">
<polygon fill="white" stroke="#666666" points="1385,-30 1231,-30 1231,0 1385,0 1385,-30"/>
<text text-anchor="start" x="1239" y="-18" font-family="Helvetica,sans-Serif" font-size="10.00">/home/runner/work/doxygen</text>
<text text-anchor="middle" x="1308" y="-7" font-family="Helvetica,sans-Serif" font-size="10.00">/doxygen/src/filedef.cpp</text>
</a>
</g>
</g>
<!-- Node1&#45;&gt;Node9 -->
<g id="edge8_Node000001_Node000009" class="edge">
<title>Node1&#45;&gt;Node9</title>
<g id="a_edge8_Node000001_Node000009"><a xlink:title=" ">
<path fill="none" stroke="#63b8ff" d="M1499.55,-63.52C1457.71,-53.14 1404.28,-39.88 1364.49,-30.01"/>
<polygon fill="#63b8ff" stroke="#63b8ff" points="1498.83,-66.94 1509.38,-65.95 1500.52,-60.15 1498.83,-66.94"/>
</a>
</g>
</g>
<!-- Node10 -->
<g id="Node000010" class="node">
<title>Node10</title>
<g id="a_Node000010"><a xlink:href="../../db/d14/index_8cpp.html" target="_top" xlink:title="This file contains functions for the various index pages.">
<polygon fill="white" stroke="#666666" points="1557,-30 1403,-30 1403,0 1557,0 1557,-30"/>
<text text-anchor="start" x="1411" y="-18" font-family="Helvetica,sans-Serif" font-size="10.00">/home/runner/work/doxygen</text>
<text text-anchor="middle" x="1480" y="-7" font-family="Helvetica,sans-Serif" font-size="10.00">/doxygen/src/index.cpp</text>
</a>
</g>
</g>
<!-- Node1&#45;&gt;Node10 -->
<g id="edge9_Node000001_Node000010" class="edge">
<title>Node1&#45;&gt;Node10</title>
<g id="a_edge9_Node000001_Node000010"><a xlink:title=" ">
<path fill="none" stroke="#63b8ff" d="M1538.79,-59.75C1525.86,-50.13 1510.71,-38.86 1499.03,-30.16"/>
<polygon fill="#63b8ff" stroke="#63b8ff" points="1536.8,-62.63 1546.91,-65.8 1540.98,-57.02 1536.8,-62.63"/>
</a>
</g>
</g>
<!-- Node11 -->
<g id="Node000011" class="node">
<title>Node11</title>
<g id="a_Node000011"><a xlink:href="../../d4/d42/latexgen_8cpp.html" target="_top" xlink:title=" ">
<polygon fill="white" stroke="#666666" points="1729,-30 1575,-30 1575,0 1729,0 1729,-30"/>
<text text-anchor="start" x="1583" y="-18" font-family="Helvetica,sans-Serif" font-size="10.00">/home/runner/work/doxygen</text>
<text text-anchor="middle" x="1652" y="-7" font-family="Helvetica,sans-Serif" font-size="10.00">/doxygen/src/latexgen.cpp</text>
</a>
</g>
</g>
<!-- Node1&#45;&gt;Node11 -->
<g id="edge10_Node000001_Node000011" class="edge">
<title>Node1&#45;&gt;Node11</title>
<g id="a_edge10_Node000001_Node000011"><a xlink:title=" ">
<path fill="none" stroke="#63b8ff" d="M1593.21,-59.75C1606.14,-50.13 1621.29,-38.86 1632.97,-30.16"/>
<polygon fill="#63b8ff" stroke="#63b8ff" points="1591.02,-57.02 1585.09,-65.8 1595.2,-62.63 1591.02,-57.02"/>
</a>
</g>
</g>
<!-- Node12 -->
<g id="Node000012" class="node">
<title>Node12</title>
<g id="a_Node000012"><a xlink:href="../../de/dd0/perlmodgen_8cpp.html" target="_top" xlink:title=" ">
<polygon fill="white" stroke="#666666" points="1908.5,-30 1747.5,-30 1747.5,0 1908.5,0 1908.5,-30"/>
<text text-anchor="start" x="1755.5" y="-18" font-family="Helvetica,sans-Serif" font-size="10.00">/home/runner/work/doxygen</text>
<text text-anchor="middle" x="1828" y="-7" font-family="Helvetica,sans-Serif" font-size="10.00">/doxygen/src/perlmodgen.cpp</text>
</a>
</g>
</g>
<!-- Node1&#45;&gt;Node12 -->
<g id="edge11_Node000001_Node000012" class="edge">
<title>Node1&#45;&gt;Node12</title>
<g id="a_edge11_Node000001_Node000012"><a xlink:title=" ">
<path fill="none" stroke="#63b8ff" d="M1633.48,-63.52C1675.97,-53.14 1730.23,-39.88 1770.64,-30.01"/>
<polygon fill="#63b8ff" stroke="#63b8ff" points="1632.38,-60.18 1623.5,-65.95 1634.04,-66.98 1632.38,-60.18"/>
</a>
</g>
</g>
<!-- Node13 -->
<g id="Node000013" class="node">
<title>Node13</title>
<g id="a_Node000013"><a xlink:href="../../d0/d9c/rtfgen_8cpp.html" target="_top" xlink:title=" ">
<polygon fill="white" stroke="#666666" points="2081,-30 1927,-30 1927,0 2081,0 2081,-30"/>
<text text-anchor="start" x="1935" y="-18" font-family="Helvetica,sans-Serif" font-size="10.00">/home/runner/work/doxygen</text>
<text text-anchor="middle" x="2004" y="-7" font-family="Helvetica,sans-Serif" font-size="10.00">/doxygen/src/rtfgen.cpp</text>
</a>
</g>
</g>
<!-- Node1&#45;&gt;Node13 -->
<g id="edge12_Node000001_Node000013" class="edge">
<title>Node1&#45;&gt;Node13</title>
<g id="a_edge12_Node000001_Node000013"><a xlink:title=" ">
<path fill="none" stroke="#63b8ff" d="M1653.6,-68.06C1724.86,-58.23 1828,-43.72 1918,-30 1920.84,-29.57 1923.73,-29.12 1926.66,-28.67"/>
<polygon fill="#63b8ff" stroke="#63b8ff" points="1652.75,-64.64 1643.32,-69.48 1653.7,-71.58 1652.75,-64.64"/>
</a>
</g>
</g>
<!-- Node14 -->
<g id="Node000014" class="node">
<title>Node14</title>
<g id="a_Node000014"><a xlink:href="../../d9/d2f/searchindex__js_8cpp.html" target="_top" xlink:title=" ">
<polygon fill="white" stroke="#666666" points="2274.5,-30 2099.5,-30 2099.5,0 2274.5,0 2274.5,-30"/>
<text text-anchor="start" x="2107.5" y="-18" font-family="Helvetica,sans-Serif" font-size="10.00">/home/runner/work/doxygen</text>
<text text-anchor="middle" x="2187" y="-7" font-family="Helvetica,sans-Serif" font-size="10.00">/doxygen/src/searchindex_js.cpp</text>
</a>
</g>
</g>
<!-- Node1&#45;&gt;Node14 -->
<g id="edge13_Node000001_Node000014" class="edge">
<title>Node1&#45;&gt;Node14</title>
<g id="a_edge13_Node000001_Node000014"><a xlink:title=" ">
<path fill="none" stroke="#63b8ff" d="M1653.52,-72.95C1757.67,-64.25 1936.77,-48.36 2090,-30 2093.04,-29.64 2096.13,-29.25 2099.26,-28.86"/>
<polygon fill="#63b8ff" stroke="#63b8ff" points="1653.04,-69.47 1643.37,-73.79 1653.62,-76.45 1653.04,-69.47"/>
</a>
</g>
</g>
<!-- Node15 -->
<g id="Node000015" class="node">
<title>Node15</title>
<g id="a_Node000015"><a xlink:href="../../d4/d7b/tagreader_8cpp.html" target="_top" xlink:title=" ">
<polygon fill="white" stroke="#666666" points="2447,-30 2293,-30 2293,0 2447,0 2447,-30"/>
<text text-anchor="start" x="2301" y="-18" font-family="Helvetica,sans-Serif" font-size="10.00">/home/runner/work/doxygen</text>
<text text-anchor="middle" x="2370" y="-7" font-family="Helvetica,sans-Serif" font-size="10.00">/doxygen/src/tagreader.cpp</text>
</a>
</g>
</g>
<!-- Node1&#45;&gt;Node15 -->
<g id="edge14_Node000001_Node000015" class="edge">
<title>Node1&#45;&gt;Node15</title>
<g id="a_edge14_Node000001_Node000015"><a xlink:title=" ">
<path fill="none" stroke="#63b8ff" d="M1653.56,-76.5C1789.04,-70.49 2057.48,-56.27 2284,-30 2286.86,-29.67 2289.76,-29.31 2292.69,-28.93"/>
<polygon fill="#63b8ff" stroke="#63b8ff" points="1653.09,-73.02 1643.25,-76.95 1653.39,-80.01 1653.09,-73.02"/>
</a>
</g>
</g>
<!-- Node16 -->
<g id="Node000016" class="node">
<title>Node16</title>
<g id="a_Node000016"><a xlink:href="../../df/d2d/util_8cpp.html" target="_top" xlink:title=" ">
<polygon fill="white" stroke="#666666" points="2619,-30 2465,-30 2465,0 2619,0 2619,-30"/>
<text text-anchor="start" x="2473" y="-18" font-family="Helvetica,sans-Serif" font-size="10.00">/home/runner/work/doxygen</text>
<text text-anchor="middle" x="2542" y="-7" font-family="Helvetica,sans-Serif" font-size="10.00">/doxygen/src/util.cpp</text>
</a>
</g>
</g>
<!-- Node1&#45;&gt;Node16 -->
<g id="edge15_Node000001_Node000016" class="edge">
<title>Node1&#45;&gt;Node16</title>
<g id="a_edge15_Node000001_Node000016"><a xlink:title=" ">
<path fill="none" stroke="#63b8ff" d="M1653.25,-78.14C1812.95,-74.07 2162.83,-62.01 2456,-30 2458.86,-29.69 2461.76,-29.35 2464.7,-28.98"/>
<polygon fill="#63b8ff" stroke="#63b8ff" points="1652.92,-74.65 1643.01,-78.4 1653.09,-81.65 1652.92,-74.65"/>
</a>
</g>
</g>
<!-- Node17 -->
<g id="Node000017" class="node">
<title>Node17</title>
<g id="a_Node000017"><a xlink:href="../../de/dea/vhdldocgen_8cpp.html" target="_top" xlink:title=" ">
<polygon fill="white" stroke="#666666" points="2795,-30 2637,-30 2637,0 2795,0 2795,-30"/>
<text text-anchor="start" x="2645" y="-18" font-family="Helvetica,sans-Serif" font-size="10.00">/home/runner/work/doxygen</text>
<text text-anchor="middle" x="2716" y="-7" font-family="Helvetica,sans-Serif" font-size="10.00">/doxygen/src/vhdldocgen.cpp</text>
</a>
</g>
</g>
<!-- Node1&#45;&gt;Node17 -->
<g id="edge16_Node000001_Node000017" class="edge">
<title>Node1&#45;&gt;Node17</title>
<g id="a_edge16_Node000001_Node000017"><a xlink:title=" ">
<path fill="none" stroke="#63b8ff" d="M1653.21,-79.16C1834.97,-76.69 2267.36,-67.06 2628,-30 2630.92,-29.7 2633.9,-29.37 2636.9,-29.01"/>
<polygon fill="#63b8ff" stroke="#63b8ff" points="1653.13,-75.66 1643.18,-79.29 1653.22,-82.66 1653.13,-75.66"/>
</a>
</g>
</g>
<!-- Node18 -->
<g id="Node000018" class="node">
<title>Node18</title>
<g id="a_Node000018"><a xlink:href="../../dd/db6/xmldocvisitor_8cpp.html" target="_top" xlink:title=" ">
<polygon fill="white" stroke="#666666" points="2981,-30 2813,-30 2813,0 2981,0 2981,-30"/>
<text text-anchor="start" x="2821" y="-18" font-family="Helvetica,sans-Serif" font-size="10.00">/home/runner/work/doxygen</text>
<text text-anchor="middle" x="2897" y="-7" font-family="Helvetica,sans-Serif" font-size="10.00">/doxygen/src/xmldocvisitor.cpp</text>
</a>
</g>
</g>
<!-- Node1&#45;&gt;Node18 -->
<g id="edge17_Node000001_Node000018" class="edge">
<title>Node1&#45;&gt;Node18</title>
<g id="a_edge17_Node000001_Node000018"><a xlink:title=" ">
<path fill="none" stroke="#63b8ff" d="M1653.63,-79.74C1856.47,-78.42 2373.83,-70.94 2804,-30 2806.93,-29.72 2809.9,-29.41 2812.9,-29.08"/>
<polygon fill="#63b8ff" stroke="#63b8ff" points="1653.32,-76.24 1643.34,-79.8 1653.36,-83.24 1653.32,-76.24"/>
</a>
</g>
</g>
<!-- Node19 -->
<g id="Node000019" class="node">
<title>Node19</title>
<g id="a_Node000019"><a xlink:href="../../d0/dc3/xmlgen_8cpp.html" target="_top" xlink:title=" ">
<polygon fill="white" stroke="#666666" points="3153,-30 2999,-30 2999,0 3153,0 3153,-30"/>
<text text-anchor="start" x="3007" y="-18" font-family="Helvetica,sans-Serif" font-size="10.00">/home/runner/work/doxygen</text>
<text text-anchor="middle" x="3076" y="-7" font-family="Helvetica,sans-Serif" font-size="10.00">/doxygen/src/xmlgen.cpp</text>
</a>
</g>
</g>
<!-- Node1&#45;&gt;Node19 -->
<g id="edge18_Node000001_Node000019" class="edge">
<title>Node1&#45;&gt;Node19</title>
<g id="a_edge18_Node000001_Node000019"><a xlink:title=" ">
<path fill="none" stroke="#63b8ff" d="M1653.02,-80.76C1875.93,-81.88 2485.39,-79.73 2990,-30 2992.86,-29.72 2995.77,-29.4 2998.71,-29.06"/>
<polygon fill="#63b8ff" stroke="#63b8ff" points="1653.04,-77.26 1643.02,-80.71 1653,-84.26 1653.04,-77.26"/>
</a>
</g>
</g>
</g>
</svg>
