<?xml version="1.0" encoding="UTF-8" standalone="no"?>
<!DOCTYPE svg PUBLIC "-//W3C//DTD SVG 1.1//EN"
 "http://www.w3.org/Graphics/SVG/1.1/DTD/svg11.dtd">
<!-- Generated by graphviz version 2.43.0 (0)
 -->
<!-- Title: /home/runner/work/doxygen/doxygen/src/clangparser.cpp Pages: 1 -->
<!--zoomable 313 -->

<svg id="main" version="1.1" xmlns="http://www.w3.org/2000/svg" xmlns:xlink="http://www.w3.org/1999/xlink" xml:space="preserve" onload="init(evt)">
<style type="text/css"><![CDATA[
.node, .edge {opacity: 0.7;}
.node.selected, .edge.selected {opacity: 1;}
.edge:hover path { stroke: red; }
.edge:hover polygon { stroke: red; fill: red; }
]]></style>

<defs>
  <circle id="rim" cx="0" cy="0" r="7"/>
  <circle id="rim2" cx="0" cy="0" r="3.5"/>
  <g id="zoomPlus">
    <use xlink:href="#rim" fill="#404040"><set attributeName="fill" to="#808080" begin="zoomplus.mouseover" end="zoomplus.mouseout"/></use>
    <path d="M-4,0h8M0,-4v8" fill="none" stroke="white" stroke-width="1.5" pointer-events="none"/>
  </g>
  <g id="zoomMin">
    <use xlink:href="#rim" fill="#404040"><set attributeName="fill" to="#808080" begin="zoomminus.mouseover" end="zoomminus.mouseout"/></use>
    <path d="M-4,0h8" fill="none" stroke="white" stroke-width="1.5" pointer-events="none"/>
  </g>
  <g id="dirArrow">
    <path fill="none" stroke="white" stroke-width="1.5" d="M0,-3.0v7 M-2.5,-0.5L0,-3.0L2.5,-0.5"/>
  </g>
 <g id="resetDef">
    <use xlink:href="#rim2" fill="#404040"><set attributeName="fill" to="#808080" begin="reset.mouseover" end="reset.mouseout"/></use>
 </g>
</defs>
<script type="text/javascript">
var viewWidth = 1178;
var viewHeight = 313;
var sectionId = 'dynsection-0';
</script>
<script xlink:href="../../svg.min.js"/>
<svg id="graph" class="graph">
<g id="viewport">
<title>/home/runner/work/doxygen/doxygen/src/clangparser.cpp</title>
<!-- Node1 -->
<g id="Node000001" class="node">
<title>Node1</title>
<g id="a_Node000001"><a xlink:title=" ">
<polygon fill="#999999" stroke="#666666" points="1088.61,-305 930.61,-305 930.61,-275 1088.61,-275 1088.61,-305"/>
<text text-anchor="start" x="938.61" y="-293" font-family="Helvetica,sans-Serif" font-size="10.00">/home/runner/work/doxygen</text>
<text text-anchor="middle" x="1009.61" y="-282" font-family="Helvetica,sans-Serif" font-size="10.00">/doxygen/src/clangparser.cpp</text>
</a>
</g>
</g>
<!-- Node2 -->
<g id="Node000002" class="node">
<title>Node2</title>
<g id="a_Node000002"><a xlink:href="../../d5/df7/clangparser_8h.html" target="_top" xlink:title=" ">
<polygon fill="white" stroke="#666666" points="530.61,-239 448.61,-239 448.61,-220 530.61,-220 530.61,-239"/>
<text text-anchor="middle" x="489.61" y="-227" font-family="Helvetica,sans-Serif" font-size="10.00">clangparser.h</text>
</a>
</g>
</g>
<!-- Node1&#45;&gt;Node2 -->
<g id="edge1_Node000001_Node000002" class="edge">
<title>Node1&#45;&gt;Node2</title>
<g id="a_edge1_Node000001_Node000002"><a xlink:title=" ">
<path fill="none" stroke="#63b8ff" d="M930.35,-280.08C822.35,-267.93 632,-246.52 540.94,-236.28"/>
<polygon fill="#63b8ff" stroke="#63b8ff" points="541.2,-232.78 530.87,-235.14 540.41,-239.74 541.2,-232.78"/>
</a>
</g>
</g>
<!-- Node16 -->
<g id="Node000016" class="node">
<title>Node16</title>
<g id="a_Node000016"><a xlink:title=" ">
<polygon fill="#e0e0e0" stroke="#999999" points="981.61,-74 935.61,-74 935.61,-55 981.61,-55 981.61,-74"/>
<text text-anchor="middle" x="958.61" y="-62" font-family="Helvetica,sans-Serif" font-size="10.00">cstdio</text>
</a>
</g>
</g>
<!-- Node1&#45;&gt;Node16 -->
<g id="edge27_Node000001_Node000016" class="edge">
<title>Node1&#45;&gt;Node16</title>
<g id="a_edge27_Node000001_Node000016"><a xlink:title=" ">
<path fill="none" stroke="#63b8ff" d="M1005.32,-274.62C1002.42,-264.66 998.58,-251.08 995.61,-239 981.83,-183.07 968.43,-116.26 962.22,-84.31"/>
<polygon fill="#63b8ff" stroke="#63b8ff" points="965.6,-83.36 960.26,-74.21 958.72,-84.69 965.6,-83.36"/>
</a>
</g>
</g>
<!-- Node18 -->
<g id="Node000018" class="node">
<title>Node18</title>
<g id="a_Node000018"><a xlink:title=" ">
<polygon fill="#e0e0e0" stroke="#999999" points="583.61,-19 533.61,-19 533.61,0 583.61,0 583.61,-19"/>
<text text-anchor="middle" x="558.61" y="-7" font-family="Helvetica,sans-Serif" font-size="10.00">cstdint</text>
</a>
</g>
</g>
<!-- Node1&#45;&gt;Node18 -->
<g id="edge28_Node000001_Node000018" class="edge">
<title>Node1&#45;&gt;Node18</title>
<g id="a_edge28_Node000001_Node000018"><a xlink:title=" ">
<path fill="none" stroke="#63b8ff" d="M1009.61,-274.67C1009.61,-253.14 1009.61,-211.17 1009.61,-175.5 1009.61,-175.5 1009.61,-175.5 1009.61,-118.5 1009.61,-89.04 1013.3,-73.78 990.61,-55 960.27,-29.89 691.74,-16.13 593.99,-11.91"/>
<polygon fill="#63b8ff" stroke="#63b8ff" points="593.88,-8.41 583.74,-11.48 593.58,-15.4 593.88,-8.41"/>
</a>
</g>
</g>
<!-- Node22 -->
<g id="Node000022" class="node">
<title>Node22</title>
<g id="a_Node000022"><a xlink:title=" ">
<polygon fill="#e0e0e0" stroke="#999999" points="1103.11,-239 1038.11,-239 1038.11,-220 1103.11,-220 1103.11,-239"/>
<text text-anchor="middle" x="1070.61" y="-227" font-family="Helvetica,sans-Serif" font-size="10.00">settings.h</text>
</a>
</g>
</g>
<!-- Node1&#45;&gt;Node22 -->
<g id="edge26_Node000001_Node000022" class="edge">
<title>Node1&#45;&gt;Node22</title>
<g id="a_edge26_Node000001_Node000022"><a xlink:title=" ">
<path fill="none" stroke="#63b8ff" d="M1024.37,-274.84C1033.32,-266.26 1044.75,-255.3 1054.01,-246.42"/>
<polygon fill="#63b8ff" stroke="#63b8ff" points="1056.67,-248.71 1061.47,-239.27 1051.83,-243.66 1056.67,-248.71"/>
</a>
</g>
</g>
<!-- Node23 -->
<g id="Node000023" class="node">
<title>Node23</title>
<g id="a_Node000023"><a xlink:title=" ">
<polygon fill="#e0e0e0" stroke="#999999" points="1169.61,-239 1121.61,-239 1121.61,-220 1169.61,-220 1169.61,-239"/>
<text text-anchor="middle" x="1145.61" y="-227" font-family="Helvetica,sans-Serif" font-size="10.00">mutex</text>
</a>
</g>
</g>
<!-- Node1&#45;&gt;Node23 -->
<g id="edge29_Node000001_Node000023" class="edge">
<title>Node1&#45;&gt;Node23</title>
<g id="a_edge29_Node000001_Node000023"><a xlink:title=" ">
<path fill="none" stroke="#63b8ff" d="M1042.18,-274.99C1064.67,-265.31 1094.33,-252.56 1116.12,-243.18"/>
<polygon fill="#63b8ff" stroke="#63b8ff" points="1117.72,-246.31 1125.52,-239.14 1114.95,-239.88 1117.72,-246.31"/>
</a>
</g>
</g>
<!-- Node3 -->
<g id="Node000003" class="node">
<title>Node3</title>
<g id="a_Node000003"><a xlink:href="../../d5/d75/containers_8h.html" target="_top" xlink:title=" ">
<polygon fill="white" stroke="#666666" points="269.11,-184 192.11,-184 192.11,-165 269.11,-165 269.11,-184"/>
<text text-anchor="middle" x="230.61" y="-172" font-family="Helvetica,sans-Serif" font-size="10.00">containers.h</text>
</a>
</g>
</g>
<!-- Node2&#45;&gt;Node3 -->
<g id="edge2_Node000002_Node000003" class="edge">
<title>Node2&#45;&gt;Node3</title>
<g id="a_edge2_Node000002_Node000003"><a xlink:title=" ">
<path fill="none" stroke="#63b8ff" d="M448.57,-220.1C402.63,-210.7 328.23,-195.48 279.36,-185.48"/>
<polygon fill="#63b8ff" stroke="#63b8ff" points="279.84,-182 269.34,-183.43 278.43,-188.86 279.84,-182"/>
</a>
</g>
</g>
<!-- Node5 -->
<g id="Node000005" class="node">
<title>Node5</title>
<g id="a_Node000005"><a xlink:title=" ">
<polygon fill="#e0e0e0" stroke="#999999" points="314.61,-19 270.61,-19 270.61,0 314.61,0 314.61,-19"/>
<text text-anchor="middle" x="292.61" y="-7" font-family="Helvetica,sans-Serif" font-size="10.00">string</text>
</a>
</g>
</g>
<!-- Node2&#45;&gt;Node5 -->
<g id="edge24_Node000002_Node000005" class="edge">
<title>Node2&#45;&gt;Node5</title>
<g id="a_edge24_Node000002_Node000005"><a xlink:title=" ">
<path fill="none" stroke="#63b8ff" d="M448.3,-226.69C341.89,-221.04 63.09,-199.64 11.61,-129 -53.43,-39.77 173.99,-17.28 260.52,-12.01"/>
<polygon fill="#63b8ff" stroke="#63b8ff" points="260.8,-15.5 270.59,-11.43 260.4,-8.51 260.8,-15.5"/>
</a>
</g>
</g>
<!-- Node11 -->
<g id="Node000011" class="node">
<title>Node11</title>
<g id="a_Node000011"><a xlink:href="../../d9/d49/types_8h.html" target="_top" xlink:title="This file contains a number of basic enums and types.">
<polygon fill="white" stroke="#666666" points="675.11,-184 622.11,-184 622.11,-165 675.11,-165 675.11,-184"/>
<text text-anchor="middle" x="648.61" y="-172" font-family="Helvetica,sans-Serif" font-size="10.00">types.h</text>
</a>
</g>
</g>
<!-- Node2&#45;&gt;Node11 -->
<g id="edge10_Node000002_Node000011" class="edge">
<title>Node2&#45;&gt;Node11</title>
<g id="a_edge10_Node000002_Node000011"><a xlink:title=" ">
<path fill="none" stroke="#63b8ff" d="M515.15,-219.98C541.73,-211.13 583.54,-197.19 613.28,-187.28"/>
<polygon fill="#63b8ff" stroke="#63b8ff" points="614.48,-190.56 622.86,-184.08 612.27,-183.92 614.48,-190.56"/>
</a>
</g>
</g>
<!-- Node2&#45;&gt;Node18 -->
<g id="edge25_Node000002_Node000018" class="edge">
<title>Node2&#45;&gt;Node18</title>
<g id="a_edge25_Node000002_Node000018"><a xlink:title=" ">
<path fill="none" stroke="#63b8ff" d="M492.69,-219.77C499.28,-199.59 512.98,-148.49 497.61,-110 487.03,-83.53 449.36,-79.09 464.61,-55 477.47,-34.68 502.4,-23.46 523.35,-17.37"/>
<polygon fill="#63b8ff" stroke="#63b8ff" points="524.46,-20.69 533.25,-14.77 522.69,-13.92 524.46,-20.69"/>
</a>
</g>
</g>
<!-- Node21 -->
<g id="Node000021" class="node">
<title>Node21</title>
<g id="a_Node000021"><a xlink:title=" ">
<polygon fill="#e0e0e0" stroke="#999999" points="489.61,-184 431.61,-184 431.61,-165 489.61,-165 489.61,-184"/>
<text text-anchor="middle" x="460.61" y="-172" font-family="Helvetica,sans-Serif" font-size="10.00">memory</text>
</a>
</g>
</g>
<!-- Node2&#45;&gt;Node21 -->
<g id="edge23_Node000002_Node000021" class="edge">
<title>Node2&#45;&gt;Node21</title>
<g id="a_edge23_Node000002_Node000021"><a xlink:title=" ">
<path fill="none" stroke="#63b8ff" d="M484.82,-219.75C480.85,-212.49 475.08,-201.95 470.17,-192.98"/>
<polygon fill="#63b8ff" stroke="#63b8ff" points="473.18,-191.18 465.31,-184.09 467.04,-194.54 473.18,-191.18"/>
</a>
</g>
</g>
<!-- Node4 -->
<g id="Node000004" class="node">
<title>Node4</title>
<g id="a_Node000004"><a xlink:title=" ">
<polygon fill="#e0e0e0" stroke="#999999" points="129.11,-129 82.11,-129 82.11,-110 129.11,-110 129.11,-129"/>
<text text-anchor="middle" x="105.61" y="-117" font-family="Helvetica,sans-Serif" font-size="10.00">vector</text>
</a>
</g>
</g>
<!-- Node3&#45;&gt;Node4 -->
<g id="edge3_Node000003_Node000004" class="edge">
<title>Node3&#45;&gt;Node4</title>
<g id="a_edge3_Node000003_Node000004"><a xlink:title=" ">
<path fill="none" stroke="#63b8ff" d="M210.52,-164.98C190.23,-156.38 158.65,-142.99 135.44,-133.15"/>
<polygon fill="#63b8ff" stroke="#63b8ff" points="136.63,-129.85 126.06,-129.17 133.9,-136.3 136.63,-129.85"/>
</a>
</g>
</g>
<!-- Node3&#45;&gt;Node5 -->
<g id="edge4_Node000003_Node000005" class="edge">
<title>Node3&#45;&gt;Node5</title>
<g id="a_edge4_Node000003_Node000005"><a xlink:title=" ">
<path fill="none" stroke="#63b8ff" d="M228.14,-164.65C225.08,-152.17 220.93,-128.83 226.61,-110 236.52,-77.13 261.23,-45.14 277.45,-26.65"/>
<polygon fill="#63b8ff" stroke="#63b8ff" points="280.11,-28.92 284.21,-19.15 274.92,-24.23 280.11,-28.92"/>
</a>
</g>
</g>
<!-- Node6 -->
<g id="Node000006" class="node">
<title>Node6</title>
<g id="a_Node000006"><a xlink:title=" ">
<polygon fill="#e0e0e0" stroke="#999999" points="179.61,-129 147.61,-129 147.61,-110 179.61,-110 179.61,-129"/>
<text text-anchor="middle" x="163.61" y="-117" font-family="Helvetica,sans-Serif" font-size="10.00">set</text>
</a>
</g>
</g>
<!-- Node3&#45;&gt;Node6 -->
<g id="edge5_Node000003_Node000006" class="edge">
<title>Node3&#45;&gt;Node6</title>
<g id="a_edge5_Node000003_Node000006"><a xlink:title=" ">
<path fill="none" stroke="#63b8ff" d="M219.84,-164.98C209.84,-157.07 194.72,-145.11 182.68,-135.58"/>
<polygon fill="#63b8ff" stroke="#63b8ff" points="184.58,-132.63 174.57,-129.17 180.24,-138.12 184.58,-132.63"/>
</a>
</g>
</g>
<!-- Node7 -->
<g id="Node000007" class="node">
<title>Node7</title>
<g id="a_Node000007"><a xlink:title=" ">
<polygon fill="#e0e0e0" stroke="#999999" points="273.61,-129 235.61,-129 235.61,-110 273.61,-110 273.61,-129"/>
<text text-anchor="middle" x="254.61" y="-117" font-family="Helvetica,sans-Serif" font-size="10.00">map</text>
</a>
</g>
</g>
<!-- Node3&#45;&gt;Node7 -->
<g id="edge6_Node000003_Node000007" class="edge">
<title>Node3&#45;&gt;Node7</title>
<g id="a_edge6_Node000003_Node000007"><a xlink:title=" ">
<path fill="none" stroke="#63b8ff" d="M234.57,-164.75C237.82,-157.57 242.53,-147.18 246.56,-138.27"/>
<polygon fill="#63b8ff" stroke="#63b8ff" points="249.78,-139.64 250.72,-129.09 243.4,-136.75 249.78,-139.64"/>
</a>
</g>
</g>
<!-- Node8 -->
<g id="Node000008" class="node">
<title>Node8</title>
<g id="a_Node000008"><a xlink:title=" ">
<polygon fill="#e0e0e0" stroke="#999999" points="377.61,-129 291.61,-129 291.61,-110 377.61,-110 377.61,-129"/>
<text text-anchor="middle" x="334.61" y="-117" font-family="Helvetica,sans-Serif" font-size="10.00">unordered_set</text>
</a>
</g>
</g>
<!-- Node3&#45;&gt;Node8 -->
<g id="edge7_Node000003_Node000008" class="edge">
<title>Node3&#45;&gt;Node8</title>
<g id="a_edge7_Node000003_Node000008"><a xlink:title=" ">
<path fill="none" stroke="#63b8ff" d="M247.32,-164.98C263.82,-156.57 289.31,-143.59 308.49,-133.81"/>
<polygon fill="#63b8ff" stroke="#63b8ff" points="310.27,-136.83 317.59,-129.17 307.1,-130.59 310.27,-136.83"/>
</a>
</g>
</g>
<!-- Node9 -->
<g id="Node000009" class="node">
<title>Node9</title>
<g id="a_Node000009"><a xlink:title=" ">
<polygon fill="#e0e0e0" stroke="#999999" points="489.11,-129 396.11,-129 396.11,-110 489.11,-110 489.11,-129"/>
<text text-anchor="middle" x="442.61" y="-117" font-family="Helvetica,sans-Serif" font-size="10.00">unordered_map</text>
</a>
</g>
</g>
<!-- Node3&#45;&gt;Node9 -->
<g id="edge8_Node000003_Node000009" class="edge">
<title>Node3&#45;&gt;Node9</title>
<g id="a_edge8_Node000003_Node000009"><a xlink:title=" ">
<path fill="none" stroke="#63b8ff" d="M264.67,-164.98C301.03,-155.89 358.78,-141.46 398.57,-131.51"/>
<polygon fill="#63b8ff" stroke="#63b8ff" points="399.43,-134.9 408.28,-129.08 397.73,-128.11 399.43,-134.9"/>
</a>
</g>
</g>
<!-- Node10 -->
<g id="Node000010" class="node">
<title>Node10</title>
<g id="a_Node000010"><a xlink:title=" ">
<polygon fill="#e0e0e0" stroke="#999999" points="64.11,-129 21.11,-129 21.11,-110 64.11,-110 64.11,-129"/>
<text text-anchor="middle" x="42.61" y="-117" font-family="Helvetica,sans-Serif" font-size="10.00">stack</text>
</a>
</g>
</g>
<!-- Node3&#45;&gt;Node10 -->
<g id="edge9_Node000003_Node000010" class="edge">
<title>Node3&#45;&gt;Node10</title>
<g id="a_edge9_Node000003_Node000010"><a xlink:title=" ">
<path fill="none" stroke="#63b8ff" d="M200.31,-164.98C170.49,-156.6 123.39,-143.34 74.12,-129.42"/>
<polygon fill="#63b8ff" stroke="#63b8ff" points="74.81,-125.98 64.24,-126.63 72.91,-132.72 74.81,-125.98"/>
</a>
</g>
</g>
<!-- Node12 -->
<g id="Node000012" class="node">
<title>Node12</title>
<g id="a_Node000012"><a xlink:href="../../d7/d5c/qcstring_8h.html" target="_top" xlink:title=" ">
<polygon fill="white" stroke="#666666" points="684.11,-129 619.11,-129 619.11,-110 684.11,-110 684.11,-129"/>
<text text-anchor="middle" x="651.61" y="-117" font-family="Helvetica,sans-Serif" font-size="10.00">qcstring.h</text>
</a>
</g>
</g>
<!-- Node11&#45;&gt;Node12 -->
<g id="edge11_Node000011_Node000012" class="edge">
<title>Node11&#45;&gt;Node12</title>
<g id="a_edge11_Node000011_Node000012"><a xlink:title=" ">
<path fill="none" stroke="#63b8ff" d="M649.1,-164.75C649.5,-157.8 650.06,-147.85 650.55,-139.13"/>
<polygon fill="#63b8ff" stroke="#63b8ff" points="654.05,-139.27 651.12,-129.09 647.06,-138.88 654.05,-139.27"/>
</a>
</g>
</g>
<!-- Node12&#45;&gt;Node5 -->
<g id="edge12_Node000012_Node000005" class="edge">
<title>Node12&#45;&gt;Node5</title>
<g id="a_edge12_Node000012_Node000005"><a xlink:title=" ">
<path fill="none" stroke="#63b8ff" d="M618.86,-111.95C581.28,-104.15 517.95,-90.13 464.61,-74 414,-58.7 356.65,-36.52 322.62,-22.83"/>
<polygon fill="#63b8ff" stroke="#63b8ff" points="323.83,-19.55 313.25,-19.04 321.21,-26.03 323.83,-19.55"/>
</a>
</g>
</g>
<!-- Node13 -->
<g id="Node000013" class="node">
<title>Node13</title>
<g id="a_Node000013"><a xlink:title=" ">
<polygon fill="#e0e0e0" stroke="#999999" points="713.61,-74 649.61,-74 649.61,-55 713.61,-55 713.61,-74"/>
<text text-anchor="middle" x="681.61" y="-62" font-family="Helvetica,sans-Serif" font-size="10.00">algorithm</text>
</a>
</g>
</g>
<!-- Node12&#45;&gt;Node13 -->
<g id="edge13_Node000012_Node000013" class="edge">
<title>Node12&#45;&gt;Node13</title>
<g id="a_edge13_Node000012_Node000013"><a xlink:title=" ">
<path fill="none" stroke="#63b8ff" d="M656.56,-109.75C660.67,-102.49 666.63,-91.95 671.71,-82.98"/>
<polygon fill="#63b8ff" stroke="#63b8ff" points="674.87,-84.52 676.75,-74.09 668.77,-81.07 674.87,-84.52"/>
</a>
</g>
</g>
<!-- Node14 -->
<g id="Node000014" class="node">
<title>Node14</title>
<g id="a_Node000014"><a xlink:title=" ">
<polygon fill="#e0e0e0" stroke="#999999" points="781.11,-74 732.11,-74 732.11,-55 781.11,-55 781.11,-74"/>
<text text-anchor="middle" x="756.61" y="-62" font-family="Helvetica,sans-Serif" font-size="10.00">cctype</text>
</a>
</g>
</g>
<!-- Node12&#45;&gt;Node14 -->
<g id="edge14_Node000012_Node000014" class="edge">
<title>Node12&#45;&gt;Node14</title>
<g id="a_edge14_Node000012_Node000014"><a xlink:title=" ">
<path fill="none" stroke="#63b8ff" d="M668.48,-109.98C685.22,-101.54 711.11,-88.47 730.5,-78.68"/>
<polygon fill="#63b8ff" stroke="#63b8ff" points="732.08,-81.8 739.43,-74.17 728.93,-75.55 732.08,-81.8"/>
</a>
</g>
</g>
<!-- Node15 -->
<g id="Node000015" class="node">
<title>Node15</title>
<g id="a_Node000015"><a xlink:title=" ">
<polygon fill="#e0e0e0" stroke="#999999" points="849.61,-74 799.61,-74 799.61,-55 849.61,-55 849.61,-74"/>
<text text-anchor="middle" x="824.61" y="-62" font-family="Helvetica,sans-Serif" font-size="10.00">cstring</text>
</a>
</g>
</g>
<!-- Node12&#45;&gt;Node15 -->
<g id="edge15_Node000012_Node000015" class="edge">
<title>Node12&#45;&gt;Node15</title>
<g id="a_edge15_Node000012_Node000015"><a xlink:title=" ">
<path fill="none" stroke="#63b8ff" d="M679.4,-109.98C709.31,-100.82 756.94,-86.23 789.44,-76.27"/>
<polygon fill="#63b8ff" stroke="#63b8ff" points="790.88,-79.49 799.41,-73.22 788.83,-72.8 790.88,-79.49"/>
</a>
</g>
</g>
<!-- Node12&#45;&gt;Node16 -->
<g id="edge16_Node000012_Node000016" class="edge">
<title>Node12&#45;&gt;Node16</title>
<g id="a_edge16_Node000012_Node000016"><a xlink:title=" ">
<path fill="none" stroke="#63b8ff" d="M684.4,-114.27C734.38,-107.58 832.78,-93.51 925.75,-74"/>
<polygon fill="#63b8ff" stroke="#63b8ff" points="926.55,-77.4 935.6,-71.9 925.09,-70.56 926.55,-77.4"/>
</a>
</g>
</g>
<!-- Node17 -->
<g id="Node000017" class="node">
<title>Node17</title>
<g id="a_Node000017"><a xlink:title=" ">
<polygon fill="#e0e0e0" stroke="#999999" points="917.11,-74 868.11,-74 868.11,-55 917.11,-55 917.11,-74"/>
<text text-anchor="middle" x="892.61" y="-62" font-family="Helvetica,sans-Serif" font-size="10.00">cstdlib</text>
</a>
</g>
</g>
<!-- Node12&#45;&gt;Node17 -->
<g id="edge17_Node000012_Node000017" class="edge">
<title>Node12&#45;&gt;Node17</title>
<g id="a_edge17_Node000012_Node000017"><a xlink:title=" ">
<path fill="none" stroke="#63b8ff" d="M684.31,-111.82C723.26,-103.79 790.52,-89.67 857.82,-74.12"/>
<polygon fill="#63b8ff" stroke="#63b8ff" points="858.8,-77.49 867.75,-71.82 857.22,-70.67 858.8,-77.49"/>
</a>
</g>
</g>
<!-- Node12&#45;&gt;Node18 -->
<g id="edge18_Node000012_Node000018" class="edge">
<title>Node12&#45;&gt;Node18</title>
<g id="a_edge18_Node000012_Node000018"><a xlink:title=" ">
<path fill="none" stroke="#63b8ff" d="M645.28,-109.6C636.24,-97.07 618.92,-73.66 602.61,-55 593.94,-45.08 583.61,-34.58 575.14,-26.27"/>
<polygon fill="#63b8ff" stroke="#63b8ff" points="577.32,-23.5 567.7,-19.06 572.45,-28.53 577.32,-23.5"/>
</a>
</g>
</g>
<!-- Node19 -->
<g id="Node000019" class="node">
<title>Node19</title>
<g id="a_Node000019"><a xlink:title=" ">
<polygon fill="#e0e0e0" stroke="#999999" points="593.11,-74 536.11,-74 536.11,-55 593.11,-55 593.11,-74"/>
<text text-anchor="middle" x="564.61" y="-62" font-family="Helvetica,sans-Serif" font-size="10.00">ostream</text>
</a>
</g>
</g>
<!-- Node12&#45;&gt;Node19 -->
<g id="edge19_Node000012_Node000019" class="edge">
<title>Node12&#45;&gt;Node19</title>
<g id="a_edge19_Node000012_Node000019"><a xlink:title=" ">
<path fill="none" stroke="#63b8ff" d="M637.63,-109.98C624.14,-101.77 603.47,-89.18 587.57,-79.49"/>
<polygon fill="#63b8ff" stroke="#63b8ff" points="589.2,-76.38 578.84,-74.17 585.56,-82.36 589.2,-76.38"/>
</a>
</g>
</g>
<!-- Node20 -->
<g id="Node000020" class="node">
<title>Node20</title>
<g id="a_Node000020"><a xlink:href="../../db/d7c/utf8_8h.html" target="_top" xlink:title="Various UTF8 related helper functions.">
<polygon fill="white" stroke="#666666" points="518.11,-74 473.11,-74 473.11,-55 518.11,-55 518.11,-74"/>
<text text-anchor="middle" x="495.61" y="-62" font-family="Helvetica,sans-Serif" font-size="10.00">utf8.h</text>
</a>
</g>
</g>
<!-- Node12&#45;&gt;Node20 -->
<g id="edge20_Node000012_Node000020" class="edge">
<title>Node12&#45;&gt;Node20</title>
<g id="a_edge20_Node000012_Node000020"><a xlink:title=" ">
<path fill="none" stroke="#63b8ff" d="M626.54,-109.98C599.89,-100.93 557.61,-86.56 528.34,-76.62"/>
<polygon fill="#63b8ff" stroke="#63b8ff" points="529.17,-73.21 518.58,-73.3 526.92,-79.83 529.17,-73.21"/>
</a>
</g>
</g>
<!-- Node20&#45;&gt;Node5 -->
<g id="edge22_Node000020_Node000005" class="edge">
<title>Node20&#45;&gt;Node5</title>
<g id="a_edge22_Node000020_Node000005"><a xlink:title=" ">
<path fill="none" stroke="#63b8ff" d="M473.11,-57.63C437.04,-48.21 366.14,-29.7 324.75,-18.89"/>
<polygon fill="#63b8ff" stroke="#63b8ff" points="325.46,-15.46 314.9,-16.32 323.69,-22.23 325.46,-15.46"/>
</a>
</g>
</g>
<!-- Node20&#45;&gt;Node18 -->
<g id="edge21_Node000020_Node000018" class="edge">
<title>Node20&#45;&gt;Node18</title>
<g id="a_edge21_Node000020_Node000018"><a xlink:title=" ">
<path fill="none" stroke="#63b8ff" d="M505.73,-54.98C515.04,-47.15 529.08,-35.34 540.35,-25.86"/>
<polygon fill="#63b8ff" stroke="#63b8ff" points="542.9,-28.29 548.3,-19.17 538.4,-22.93 542.9,-28.29"/>
</a>
</g>
</g>
</g>
</svg>

<g id="navigator" transform="translate(0 0)" fill="#404254">
  <rect fill="#f2f5e9" fill-opacity="0.5" stroke="#606060" stroke-width=".5" x="0" y="0" width="60" height="60"/>
  <use id="zoomplus" xlink:href="#zoomPlus" x="17" y="9" onmousedown="handleZoom(evt,'in')"/>
  <use id="zoomminus" xlink:href="#zoomMin" x="42" y="9" onmousedown="handleZoom(evt,'out')"/>
  <use id="reset" xlink:href="#resetDef" x="30" y="36" onmousedown="handleReset()"/>
  <g id="arrowUp" xlink:href="#dirArrow" transform="translate(30 24)" onmousedown="handlePan(0,-1)">
    <use xlink:href="#rim" fill="#404040">
          <set attributeName="fill" to="#808080" begin="arrowUp.mouseover" end="arrowUp.mouseout"/>
    </use>
    <path fill="none" stroke="white" stroke-width="1.5" d="M0,-3.0v7 M-2.5,-0.5L0,-3.0L2.5,-0.5"/>
  </g>
  <g id="arrowRight" xlink:href="#dirArrow" transform="rotate(90) translate(36 -43)" onmousedown="handlePan(1,0)">
    <use xlink:href="#rim" fill="#404040">
          <set attributeName="fill" to="#808080" begin="arrowRight.mouseover" end="arrowRight.mouseout"/>
    </use>
    <path fill="none" stroke="white" stroke-width="1.5" d="M0,-3.0v7 M-2.5,-0.5L0,-3.0L2.5,-0.5"/>
  </g>
  <g id="arrowDown" xlink:href="#dirArrow" transform="rotate(180) translate(-30 -48)" onmousedown="handlePan(0,1)">
    <use xlink:href="#rim" fill="#404040">
          <set attributeName="fill" to="#808080" begin="arrowDown.mouseover" end="arrowDown.mouseout"/>
    </use>
    <path fill="none" stroke="white" stroke-width="1.5" d="M0,-3.0v7 M-2.5,-0.5L0,-3.0L2.5,-0.5"/>
  </g>
  <g id="arrowLeft" xlink:href="#dirArrow" transform="rotate(270) translate(-36 17)" onmousedown="handlePan(-1,0)">
    <use xlink:href="#rim" fill="#404040">
          <set attributeName="fill" to="#808080" begin="arrowLeft.mouseover" end="arrowLeft.mouseout"/>
    </use>
    <path fill="none" stroke="white" stroke-width="1.5" d="M0,-3.0v7 M-2.5,-0.5L0,-3.0L2.5,-0.5"/>
  </g>
</g>
<svg viewBox="0 0 15 15" width="100%" height="30px" preserveAspectRatio="xMaxYMin meet">
 <g id="arrow_out" transform="scale(0.3 0.3)">
  <a xlink:href="clangparser_8cpp__incl_org.svg" target="_base">
   <rect id="button" ry="5" rx="5" y="6" x="6" height="38" width="38"
        fill="#f2f5e9" fill-opacity="0.5" stroke="#606060" stroke-width="1.0"/>
   <path id="arrow"
     d="M 11.500037,31.436501 C 11.940474,20.09759 22.043105,11.32322 32.158766,21.979434 L 37.068811,17.246167 C 37.068811,17.246167 37.088388,32 37.088388,32 L 22.160133,31.978069 C 22.160133,31.978069 26.997745,27.140456 26.997745,27.140456 C 18.528582,18.264221 13.291696,25.230495 11.500037,31.436501 z"
     style="fill:#404040;"/>
  </a>
 </g>
</svg>

<style type='text/css'>
<![CDATA[
[data-mouse-over-selected='false'] { opacity: 0.7; }
[data-mouse-over-selected='true']  { opacity: 1.0; }
]]>
</style>
<script><![CDATA[
document.addEventListener('DOMContentLoaded', (event) => {
  highlightEdges();
  highlightAdjacentNodes();
});
]]></script>
</svg>
