<?xml version="1.0" encoding="UTF-8" standalone="no"?>
<!DOCTYPE svg PUBLIC "-//W3C//DTD SVG 1.1//EN"
 "http://www.w3.org/Graphics/SVG/1.1/DTD/svg11.dtd">
<!-- Generated by graphviz version 2.43.0 (0)
 -->
<!-- Title: MemberDefImpl Pages: 1 -->
<!--zoomable 783 -->

<svg id="main" version="1.1" xmlns="http://www.w3.org/2000/svg" xmlns:xlink="http://www.w3.org/1999/xlink" xml:space="preserve" onload="init(evt)">
<style type="text/css"><![CDATA[
.node, .edge {opacity: 0.7;}
.node.selected, .edge.selected {opacity: 1;}
.edge:hover path { stroke: red; }
.edge:hover polygon { stroke: red; fill: red; }
]]></style>

<defs>
  <circle id="rim" cx="0" cy="0" r="7"/>
  <circle id="rim2" cx="0" cy="0" r="3.5"/>
  <g id="zoomPlus">
    <use xlink:href="#rim" fill="#404040"><set attributeName="fill" to="#808080" begin="zoomplus.mouseover" end="zoomplus.mouseout"/></use>
    <path d="M-4,0h8M0,-4v8" fill="none" stroke="white" stroke-width="1.5" pointer-events="none"/>
  </g>
  <g id="zoomMin">
    <use xlink:href="#rim" fill="#404040"><set attributeName="fill" to="#808080" begin="zoomminus.mouseover" end="zoomminus.mouseout"/></use>
    <path d="M-4,0h8" fill="none" stroke="white" stroke-width="1.5" pointer-events="none"/>
  </g>
  <g id="dirArrow">
    <path fill="none" stroke="white" stroke-width="1.5" d="M0,-3.0v7 M-2.5,-0.5L0,-3.0L2.5,-0.5"/>
  </g>
 <g id="resetDef">
    <use xlink:href="#rim2" fill="#404040"><set attributeName="fill" to="#808080" begin="reset.mouseover" end="reset.mouseout"/></use>
 </g>
</defs>
<script type="text/javascript">
var viewWidth = 1615;
var viewHeight = 783;
var sectionId = 'dynsection-1';
</script>
<script xlink:href="../../svg.min.js"/>
<svg id="graph" class="graph">
<g id="viewport">
<title>MemberDefImpl</title>
<!-- Node1 -->
<g id="Node000001" class="node">
<title>Node1</title>
<g id="a_Node000001"><a xlink:title=" ">
<polygon fill="#999999" stroke="#666666" points="1607,-103 1511,-103 1511,-84 1607,-84 1607,-103"/>
<text text-anchor="middle" x="1559" y="-91" font-family="Helvetica,sans-Serif" font-size="10.00">MemberDefImpl</text>
</a>
</g>
</g>
<!-- Node2 -->
<g id="Node000002" class="node">
<title>Node2</title>
<g id="a_Node000002"><a xlink:href="../../dd/d10/class_definition_mixin.html" target="_top" xlink:title=" ">
<polygon fill="white" stroke="#666666" points="1474,-79.5 1314,-79.5 1314,-49.5 1474,-49.5 1474,-79.5"/>
<text text-anchor="start" x="1322" y="-67.5" font-family="Helvetica,sans-Serif" font-size="10.00">DefinitionMixin&lt; MemberDef</text>
<text text-anchor="middle" x="1394" y="-56.5" font-family="Helvetica,sans-Serif" font-size="10.00">Mutable &gt;</text>
</a>
</g>
</g>
<!-- Node2&#45;&gt;Node1 -->
<g id="edge1_Node000001_Node000002" class="edge">
<title>Node2&#45;&gt;Node1</title>
<g id="a_edge1_Node000001_Node000002"><a xlink:title=" ">
<path fill="none" stroke="#63b8ff" d="M1484.06,-80.35C1493.2,-81.97 1502.22,-83.58 1510.64,-85.07"/>
<polygon fill="#63b8ff" stroke="#63b8ff" points="1484.57,-76.88 1474.11,-78.58 1483.34,-83.77 1484.57,-76.88"/>
</a>
</g>
</g>
<!-- Node3 -->
<g id="Node000003" class="node">
<title>Node3</title>
<g id="a_Node000003"><a xlink:href="../../dd/d4b/class_member_def_mutable.html" target="_top" xlink:title=" ">
<polygon fill="white" stroke="#666666" points="1142.5,-104 1028.5,-104 1028.5,-85 1142.5,-85 1142.5,-104"/>
<text text-anchor="middle" x="1085.5" y="-92" font-family="Helvetica,sans-Serif" font-size="10.00">MemberDefMutable</text>
</a>
</g>
</g>
<!-- Node3&#45;&gt;Node2 -->
<g id="edge2_Node000002_Node000003" class="edge">
<title>Node3&#45;&gt;Node2</title>
<g id="a_edge2_Node000002_Node000003"><a xlink:title=" ">
<path fill="none" stroke="#63b8ff" d="M1152.77,-89.44C1194.01,-86.14 1248.14,-81.51 1296,-76.5 1301.82,-75.89 1307.84,-75.23 1313.89,-74.53"/>
<polygon fill="#63b8ff" stroke="#63b8ff" points="1152.26,-85.97 1142.57,-90.25 1152.82,-92.95 1152.26,-85.97"/>
</a>
</g>
</g>
<!-- Node4 -->
<g id="Node000004" class="node">
<title>Node4</title>
<g id="a_Node000004"><a xlink:href="../../d0/d46/class_definition_mutable.html" target="_top" xlink:title=" ">
<polygon fill="white" stroke="#666666" points="604,-151 500,-151 500,-132 604,-132 604,-151"/>
<text text-anchor="middle" x="552" y="-139" font-family="Helvetica,sans-Serif" font-size="10.00">DefinitionMutable</text>
</a>
</g>
</g>
<!-- Node4&#45;&gt;Node3 -->
<g id="edge3_Node000003_Node000004" class="edge">
<title>Node4&#45;&gt;Node3</title>
<g id="a_edge3_Node000003_Node000004"><a xlink:title=" ">
<path fill="none" stroke="#63b8ff" d="M614.48,-136.06C718.54,-126.86 927.84,-108.35 1028.25,-99.47"/>
<polygon fill="#63b8ff" stroke="#63b8ff" points="614.1,-132.58 604.45,-136.95 614.71,-139.56 614.1,-132.58"/>
</a>
</g>
</g>
<!-- Node12 -->
<g id="Node000012" class="node">
<title>Node12</title>
<g id="a_Node000012"><a xlink:href="../../de/db0/class_file_def.html" target="_top" xlink:title="A model of a file symbol.">
<polygon fill="white" stroke="#666666" points="840,-334 789,-334 789,-315 840,-315 840,-334"/>
<text text-anchor="middle" x="814.5" y="-322" font-family="Helvetica,sans-Serif" font-size="10.00">FileDef</text>
</a>
</g>
</g>
<!-- Node4&#45;&gt;Node12 -->
<g id="edge14_Node000012_Node000004" class="edge">
<title>Node4&#45;&gt;Node12</title>
<g id="a_edge14_Node000012_Node000004"><a xlink:title=" ">
<path fill="none" stroke="#63b8ff" d="M574.85,-156.85C626.89,-193.41 756.98,-284.8 799.68,-314.79"/>
<polygon fill="#63b8ff" stroke="#63b8ff" points="576.83,-153.97 566.64,-151.08 572.81,-159.69 576.83,-153.97"/>
</a>
</g>
</g>
<!-- Node23 -->
<g id="Node000023" class="node">
<title>Node23</title>
<g id="a_Node000023"><a xlink:href="../../d8/d09/class_group_def.html" target="_top" xlink:title="A model of a group of symbols.">
<polygon fill="white" stroke="#666666" points="846,-151 783,-151 783,-132 846,-132 846,-151"/>
<text text-anchor="middle" x="814.5" y="-139" font-family="Helvetica,sans-Serif" font-size="10.00">GroupDef</text>
</a>
</g>
</g>
<!-- Node4&#45;&gt;Node23 -->
<g id="edge33_Node000023_Node000004" class="edge">
<title>Node4&#45;&gt;Node23</title>
<g id="a_edge33_Node000023_Node000004"><a xlink:title=" ">
<path fill="none" stroke="#63b8ff" d="M614.45,-141.5C667.39,-141.5 741.62,-141.5 782.84,-141.5"/>
<polygon fill="#63b8ff" stroke="#63b8ff" points="614.16,-138 604.16,-141.5 614.16,-145 614.16,-138"/>
</a>
</g>
</g>
<!-- Node5 -->
<g id="Node000005" class="node">
<title>Node5</title>
<g id="a_Node000005"><a xlink:href="../../da/d09/class_member_def.html" target="_top" xlink:title="A model of a class/file/namespace member symbol.">
<polygon fill="white" stroke="#666666" points="851.5,-196 777.5,-196 777.5,-177 851.5,-177 851.5,-196"/>
<text text-anchor="middle" x="814.5" y="-184" font-family="Helvetica,sans-Serif" font-size="10.00">MemberDef</text>
</a>
</g>
</g>
<!-- Node5&#45;&gt;Node3 -->
<g id="edge4_Node000003_Node000005" class="edge">
<title>Node5&#45;&gt;Node3</title>
<g id="a_edge4_Node000003_Node000005"><a xlink:title=" ">
<path fill="none" stroke="#63b8ff" d="M859.1,-174.18C867.36,-171.91 875.93,-169.6 884,-167.5 934.91,-154.25 949.8,-158.11 999,-139.5 1024.57,-129.83 1052.24,-114.23 1068.97,-104.17"/>
<polygon fill="#63b8ff" stroke="#63b8ff" points="857.94,-170.87 849.24,-176.91 859.81,-177.62 857.94,-170.87"/>
</a>
</g>
</g>
<!-- Node10 -->
<g id="Node000010" class="node">
<title>Node10</title>
<g id="a_Node000010"><a xlink:href="../../d0/da8/class_member_def_impl_1_1_i_m_p_l.html" target="_top" xlink:title=" ">
<polygon fill="white" stroke="#666666" points="1148,-408 1023,-408 1023,-389 1148,-389 1148,-408"/>
<text text-anchor="middle" x="1085.5" y="-396" font-family="Helvetica,sans-Serif" font-size="10.00">MemberDefImpl::IMPL</text>
</a>
</g>
</g>
<!-- Node5&#45;&gt;Node10 -->
<g id="edge18_Node000010_Node000005" class="edge">
<title>Node5&#45;&gt;Node10</title>
<g id="a_edge18_Node000010_Node000005"><a xlink:title=" ">
<path fill="none" stroke="#9a32cd" stroke-dasharray="5,2" d="M861.68,-178.92C901.76,-174.96 959.41,-175.83 999,-204.5 1063.09,-250.91 1079.84,-356.2 1083.56,-388.74"/>
<polygon fill="#9a32cd" stroke="#9a32cd" points="861.18,-175.46 851.63,-180.05 861.96,-182.41 861.18,-175.46"/>
</a>
</g>
<text text-anchor="middle" x="941.5" y="-317.5" font-family="Helvetica,sans-Serif" font-size="10.00" fill="grey"> annEnumType</text>
<text text-anchor="middle" x="941.5" y="-306.5" font-family="Helvetica,sans-Serif" font-size="10.00" fill="grey">annMemb</text>
<text text-anchor="middle" x="941.5" y="-295.5" font-family="Helvetica,sans-Serif" font-size="10.00" fill="grey">categoryRelation</text>
<text text-anchor="middle" x="941.5" y="-284.5" font-family="Helvetica,sans-Serif" font-size="10.00" fill="grey">docProvider</text>
<text text-anchor="middle" x="941.5" y="-273.5" font-family="Helvetica,sans-Serif" font-size="10.00" fill="grey">enumScope</text>
<text text-anchor="middle" x="941.5" y="-262.5" font-family="Helvetica,sans-Serif" font-size="10.00" fill="grey">groupAlias</text>
<text text-anchor="middle" x="941.5" y="-251.5" font-family="Helvetica,sans-Serif" font-size="10.00" fill="grey">groupMember</text>
<text text-anchor="middle" x="941.5" y="-240.5" font-family="Helvetica,sans-Serif" font-size="10.00" fill="grey">memDec</text>
<text text-anchor="middle" x="941.5" y="-229.5" font-family="Helvetica,sans-Serif" font-size="10.00" fill="grey">memDef</text>
<text text-anchor="middle" x="941.5" y="-218.5" font-family="Helvetica,sans-Serif" font-size="10.00" fill="grey">redefines</text>
<text text-anchor="middle" x="941.5" y="-207.5" font-family="Helvetica,sans-Serif" font-size="10.00" fill="grey">...</text>
</g>
<!-- Node6 -->
<g id="Node000006" class="node">
<title>Node6</title>
<g id="a_Node000006"><a xlink:href="../../d5/dcc/class_definition.html" target="_top" xlink:title="The common base class of all entity definitions found in the sources.">
<polygon fill="white" stroke="#666666" points="584,-351 520,-351 520,-332 584,-332 584,-351"/>
<text text-anchor="middle" x="552" y="-339" font-family="Helvetica,sans-Serif" font-size="10.00">Definition</text>
</a>
</g>
</g>
<!-- Node6&#45;&gt;Node5 -->
<g id="edge5_Node000005_Node000006" class="edge">
<title>Node6&#45;&gt;Node5</title>
<g id="a_edge5_Node000005_Node000006"><a xlink:title=" ">
<path fill="none" stroke="#63b8ff" d="M578.06,-326.59C631.02,-295.08 753.09,-222.45 797.21,-196.19"/>
<polygon fill="#63b8ff" stroke="#63b8ff" points="576.1,-323.68 569.3,-331.8 579.68,-329.7 576.1,-323.68"/>
</a>
</g>
</g>
<!-- Node11 -->
<g id="Node000011" class="node">
<title>Node11</title>
<g id="a_Node000011"><a xlink:href="../../d1/dcf/class_class_def.html" target="_top" xlink:title="A abstract class representing of a compound symbol.">
<polygon fill="white" stroke="#666666" points="844.5,-408 784.5,-408 784.5,-389 844.5,-389 844.5,-408"/>
<text text-anchor="middle" x="814.5" y="-396" font-family="Helvetica,sans-Serif" font-size="10.00">ClassDef</text>
</a>
</g>
</g>
<!-- Node6&#45;&gt;Node11 -->
<g id="edge12_Node000011_Node000006" class="edge">
<title>Node6&#45;&gt;Node11</title>
<g id="a_edge12_Node000011_Node000006"><a xlink:title=" ">
<path fill="none" stroke="#63b8ff" d="M593.57,-353.92C607.29,-357.9 622.75,-362.14 637,-365.5 688.43,-377.63 749.13,-388.16 784.28,-393.9"/>
<polygon fill="#63b8ff" stroke="#63b8ff" points="594.52,-350.55 583.93,-351.09 592.54,-357.27 594.52,-350.55"/>
</a>
</g>
</g>
<!-- Node6&#45;&gt;Node12 -->
<g id="edge15_Node000012_Node000006" class="edge">
<title>Node6&#45;&gt;Node12</title>
<g id="a_edge15_Node000012_Node000006"><a xlink:title=" ">
<path fill="none" stroke="#63b8ff" d="M594.23,-338.81C649.03,-335.23 744.13,-329.03 788.88,-326.11"/>
<polygon fill="#63b8ff" stroke="#63b8ff" points="593.91,-335.32 584.16,-339.47 594.37,-342.31 593.91,-335.32"/>
</a>
</g>
</g>
<!-- Node13 -->
<g id="Node000013" class="node">
<title>Node13</title>
<g id="a_Node000013"><a xlink:href="../../d0/d07/class_namespace_def.html" target="_top" xlink:title="An abstract interface of a namespace symbol.">
<polygon fill="white" stroke="#666666" points="860.5,-371 768.5,-371 768.5,-352 860.5,-352 860.5,-371"/>
<text text-anchor="middle" x="814.5" y="-359" font-family="Helvetica,sans-Serif" font-size="10.00">NamespaceDef</text>
</a>
</g>
</g>
<!-- Node6&#45;&gt;Node13 -->
<g id="edge17_Node000013_Node000006" class="edge">
<title>Node6&#45;&gt;Node13</title>
<g id="a_edge17_Node000013_Node000006"><a xlink:title=" ">
<path fill="none" stroke="#63b8ff" d="M594.39,-344.68C641.83,-348.32 719.34,-354.27 768.32,-358.03"/>
<polygon fill="#63b8ff" stroke="#63b8ff" points="594.4,-341.17 584.16,-343.89 593.87,-348.15 594.4,-341.17"/>
</a>
</g>
</g>
<!-- Node19 -->
<g id="Node000019" class="node">
<title>Node19</title>
<g id="a_Node000019"><a xlink:href="../../da/d32/class_member_group.html" target="_top" xlink:title="A class representing a group of members.">
<polygon fill="white" stroke="#666666" points="857.5,-775 771.5,-775 771.5,-756 857.5,-756 857.5,-775"/>
<text text-anchor="middle" x="814.5" y="-763" font-family="Helvetica,sans-Serif" font-size="10.00">MemberGroup</text>
</a>
</g>
</g>
<!-- Node6&#45;&gt;Node19 -->
<g id="edge26_Node000019_Node000006" class="edge">
<title>Node6&#45;&gt;Node19</title>
<g id="a_edge26_Node000019_Node000006"><a xlink:title=" ">
<path fill="none" stroke="#9a32cd" stroke-dasharray="5,2" d="M565.99,-359.49C581.2,-381.49 605.97,-420.39 619,-457.5 635.85,-505.48 606.17,-530.06 637,-570.5 668.96,-612.42 713.28,-577.4 745,-619.5 777.98,-663.28 730.41,-697.43 763,-741.5 767.62,-747.74 774.28,-752.43 781.26,-755.92"/>
<polygon fill="#9a32cd" stroke="#9a32cd" points="568.74,-357.31 560.12,-351.15 563.01,-361.34 568.74,-357.31"/>
</a>
</g>
<text text-anchor="middle" x="691" y="-622.5" font-family="Helvetica,sans-Serif" font-size="10.00" fill="grey"> m_container</text>
</g>
<!-- Node6&#45;&gt;Node23 -->
<g id="edge34_Node000023_Node000006" class="edge">
<title>Node6&#45;&gt;Node23</title>
<g id="a_edge34_Node000023_Node000006"><a xlink:title=" ">
<path fill="none" stroke="#63b8ff" d="M562.18,-323.04C575.58,-297.7 602.69,-252.02 637,-223.5 681.43,-186.57 745.26,-162.39 782.74,-150.4"/>
<polygon fill="#63b8ff" stroke="#63b8ff" points="559.05,-321.48 557.58,-331.97 565.27,-324.69 559.05,-321.48"/>
</a>
</g>
</g>
<!-- Node7 -->
<g id="Node000007" class="node">
<title>Node7</title>
<g id="a_Node000007"><a xlink:href="../../d3/ddf/class_definition_impl.html" target="_top" xlink:title=" ">
<polygon fill="white" stroke="#666666" points="857.5,-19 771.5,-19 771.5,0 857.5,0 857.5,-19"/>
<text text-anchor="middle" x="814.5" y="-7" font-family="Helvetica,sans-Serif" font-size="10.00">DefinitionImpl</text>
</a>
</g>
</g>
<!-- Node7&#45;&gt;Node2 -->
<g id="edge6_Node000002_Node000007" class="edge">
<title>Node7&#45;&gt;Node2</title>
<g id="a_edge6_Node000002_Node000007"><a xlink:title=" ">
<path fill="none" stroke="#9a32cd" stroke-dasharray="5,2" d="M868.23,-11.96C904.91,-13.7 954.94,-16.14 999,-18.5 1067.91,-22.19 1085.38,-20.21 1154,-27.5 1207.55,-33.19 1267.43,-42.46 1313.85,-50.3"/>
<polygon fill="#9a32cd" stroke="#9a32cd" points="867.93,-8.44 857.78,-11.47 867.6,-15.43 867.93,-8.44"/>
</a>
</g>
<text text-anchor="middle" x="1085.5" y="-30.5" font-family="Helvetica,sans-Serif" font-size="10.00" fill="grey"> m_impl</text>
</g>
<!-- Node8 -->
<g id="Node000008" class="node">
<title>Node8</title>
<g id="a_Node000008"><a xlink:href="../../dd/d10/class_definition_mixin.html" target="_top" xlink:title=" ">
<polygon fill="white" stroke="#666666" points="1154,-67 1017,-67 1017,-48 1154,-48 1154,-67"/>
<text text-anchor="middle" x="1085.5" y="-55" font-family="Helvetica,sans-Serif" font-size="10.00">DefinitionMixin&lt; Base &gt;</text>
</a>
</g>
</g>
<!-- Node7&#45;&gt;Node8 -->
<g id="edge9_Node000008_Node000007" class="edge">
<title>Node7&#45;&gt;Node8</title>
<g id="a_edge9_Node000008_Node000007"><a xlink:title=" ">
<path fill="none" stroke="#9a32cd" stroke-dasharray="5,2" d="M867.53,-18.78C914.63,-27.19 983.7,-39.51 1031.19,-47.99"/>
<polygon fill="#9a32cd" stroke="#9a32cd" points="867.99,-15.31 857.53,-17 866.76,-22.2 867.99,-15.31"/>
</a>
</g>
<text text-anchor="middle" x="941.5" y="-45.5" font-family="Helvetica,sans-Serif" font-size="10.00" fill="grey"> m_impl</text>
</g>
<!-- Node8&#45;&gt;Node2 -->
<g id="edge7_Node000002_Node000008" class="edge">
<title>Node8&#45;&gt;Node2</title>
<g id="a_edge7_Node000002_Node000008"><a xlink:title=" ">
<path fill="none" stroke="orange" stroke-dasharray="5,2" d="M1164.32,-59.28C1210.1,-60.32 1267.86,-61.64 1313.88,-62.69"/>
<polygon fill="orange" stroke="orange" points="1164.22,-55.77 1154.14,-59.04 1164.06,-62.77 1164.22,-55.77"/>
</a>
</g>
<text text-anchor="middle" x="1234" y="-64.5" font-family="Helvetica,sans-Serif" font-size="10.00" fill="grey"> &lt; MemberDefMutable &gt;</text>
</g>
<!-- Node9 -->
<g id="Node000009" class="node">
<title>Node9</title>
<g id="a_Node000009"><a xlink:title=" ">
<polygon fill="white" stroke="#666666" points="835,-66 794,-66 794,-47 835,-47 835,-66"/>
<text text-anchor="middle" x="814.5" y="-54" font-family="Helvetica,sans-Serif" font-size="10.00">Base</text>
</a>
</g>
</g>
<!-- Node9&#45;&gt;Node8 -->
<g id="edge8_Node000008_Node000009" class="edge">
<title>Node9&#45;&gt;Node8</title>
<g id="a_edge8_Node000008_Node000009"><a xlink:title=" ">
<path fill="none" stroke="#63b8ff" d="M845.46,-56.61C886.61,-56.76 961.78,-57.04 1016.88,-57.25"/>
<polygon fill="#63b8ff" stroke="#63b8ff" points="845.29,-53.11 835.28,-56.57 845.27,-60.11 845.29,-53.11"/>
</a>
</g>
</g>
<!-- Node10&#45;&gt;Node1 -->
<g id="edge10_Node000001_Node000010" class="edge">
<title>Node10&#45;&gt;Node1</title>
<g id="a_edge10_Node000001_Node000010"><a xlink:title=" ">
<path fill="none" stroke="#9a32cd" stroke-dasharray="5,2" d="M1109.92,-383.35C1193.4,-329.35 1475.05,-147.16 1543.11,-103.13"/>
<polygon fill="#9a32cd" stroke="#9a32cd" points="1107.89,-380.5 1101.39,-388.87 1111.69,-386.38 1107.89,-380.5"/>
</a>
</g>
<text text-anchor="middle" x="1394" y="-253.5" font-family="Helvetica,sans-Serif" font-size="10.00" fill="grey"> m_impl</text>
</g>
<!-- Node11&#45;&gt;Node10 -->
<g id="edge11_Node000010_Node000011" class="edge">
<title>Node11&#45;&gt;Node10</title>
<g id="a_edge11_Node000010_Node000011"><a xlink:title=" ">
<path fill="none" stroke="#9a32cd" stroke-dasharray="5,2" d="M854.59,-398.5C898.74,-398.5 971.17,-398.5 1022.93,-398.5"/>
<polygon fill="#9a32cd" stroke="#9a32cd" points="854.54,-395 844.54,-398.5 854.54,-402 854.54,-395"/>
</a>
</g>
<text text-anchor="middle" x="941.5" y="-456.5" font-family="Helvetica,sans-Serif" font-size="10.00" fill="grey"> accessorClass</text>
<text text-anchor="middle" x="941.5" y="-445.5" font-family="Helvetica,sans-Serif" font-size="10.00" fill="grey">cachedAnonymousType</text>
<text text-anchor="middle" x="941.5" y="-434.5" font-family="Helvetica,sans-Serif" font-size="10.00" fill="grey">cachedTypedefValue</text>
<text text-anchor="middle" x="941.5" y="-423.5" font-family="Helvetica,sans-Serif" font-size="10.00" fill="grey">category</text>
<text text-anchor="middle" x="941.5" y="-412.5" font-family="Helvetica,sans-Serif" font-size="10.00" fill="grey">classDef</text>
<text text-anchor="middle" x="941.5" y="-401.5" font-family="Helvetica,sans-Serif" font-size="10.00" fill="grey">relatedAlso</text>
</g>
<!-- Node12&#45;&gt;Node10 -->
<g id="edge13_Node000010_Node000012" class="edge">
<title>Node12&#45;&gt;Node10</title>
<g id="a_edge13_Node000010_Node000012"><a xlink:title=" ">
<path fill="none" stroke="#9a32cd" stroke-dasharray="5,2" d="M850.54,-326.62C888.08,-329.67 948.99,-336.89 999,-353.5 1025.43,-362.28 1053.53,-378.59 1070.03,-388.98"/>
<polygon fill="#9a32cd" stroke="#9a32cd" points="850.38,-323.1 840.15,-325.83 849.85,-330.08 850.38,-323.1"/>
</a>
</g>
<text text-anchor="middle" x="941.5" y="-356.5" font-family="Helvetica,sans-Serif" font-size="10.00" fill="grey"> fileDef</text>
</g>
<!-- Node13&#45;&gt;Node10 -->
<g id="edge16_Node000010_Node000013" class="edge">
<title>Node13&#45;&gt;Node10</title>
<g id="a_edge16_Node000010_Node000013"><a xlink:title=" ">
<path fill="none" stroke="#9a32cd" stroke-dasharray="5,2" d="M870.78,-367.34C907.26,-371.38 956.06,-377.16 999,-383.5 1009.88,-385.11 1021.51,-387.02 1032.58,-388.93"/>
<polygon fill="#9a32cd" stroke="#9a32cd" points="871.16,-363.86 860.84,-366.24 870.4,-370.81 871.16,-363.86"/>
</a>
</g>
<text text-anchor="middle" x="941.5" y="-386.5" font-family="Helvetica,sans-Serif" font-size="10.00" fill="grey"> nspace</text>
</g>
<!-- Node14 -->
<g id="Node000014" class="node">
<title>Node14</title>
<g id="a_Node000014"><a xlink:href="../../d1/d7d/class_member_vector.html" target="_top" xlink:title="A vector of MemberDef object.">
<polygon fill="white" stroke="#666666" points="310,-625 222,-625 222,-606 310,-606 310,-625"/>
<text text-anchor="middle" x="266" y="-613" font-family="Helvetica,sans-Serif" font-size="10.00">MemberVector</text>
</a>
</g>
</g>
<!-- Node14&#45;&gt;Node10 -->
<g id="edge19_Node000010_Node000014" class="edge">
<title>Node14&#45;&gt;Node10</title>
<g id="a_edge19_Node000010_Node000014"><a xlink:title=" ">
<path fill="none" stroke="#9a32cd" stroke-dasharray="5,2" d="M306.05,-602.92C372.99,-581.93 514.29,-540.15 637,-520.5 716.61,-507.75 926.75,-532.28 999,-496.5 1039.06,-476.66 1068.3,-428.89 1079.49,-408.26"/>
<polygon fill="#9a32cd" stroke="#9a32cd" points="304.83,-599.63 296.34,-605.98 306.93,-606.31 304.83,-599.63"/>
</a>
</g>
<text text-anchor="middle" x="691" y="-534.5" font-family="Helvetica,sans-Serif" font-size="10.00" fill="grey"> enumFields</text>
<text text-anchor="middle" x="691" y="-523.5" font-family="Helvetica,sans-Serif" font-size="10.00" fill="grey">redefinedBy</text>
</g>
<!-- Node20 -->
<g id="Node000020" class="node">
<title>Node20</title>
<g id="a_Node000020"><a xlink:href="../../dd/d13/class_member_list.html" target="_top" xlink:title="A list of MemberDef objects as shown in documentation sections.">
<polygon fill="white" stroke="#666666" points="589,-714 515,-714 515,-695 589,-695 589,-714"/>
<text text-anchor="middle" x="552" y="-702" font-family="Helvetica,sans-Serif" font-size="10.00">MemberList</text>
</a>
</g>
</g>
<!-- Node14&#45;&gt;Node20 -->
<g id="edge28_Node000020_Node000014" class="edge">
<title>Node14&#45;&gt;Node20</title>
<g id="a_edge28_Node000020_Node000014"><a xlink:title=" ">
<path fill="none" stroke="#63b8ff" d="M307.21,-628.1C364.62,-646.09 468.82,-678.75 520.4,-694.91"/>
<polygon fill="#63b8ff" stroke="#63b8ff" points="307.98,-624.68 297.39,-625.02 305.89,-631.35 307.98,-624.68"/>
</a>
</g>
</g>
<!-- Node15 -->
<g id="Node000015" class="node">
<title>Node15</title>
<g id="a_Node000015"><a xlink:href="../../d1/d48/class_example_list.html" target="_top" xlink:title=" ">
<polygon fill="white" stroke="#666666" points="853,-485 776,-485 776,-466 853,-466 853,-485"/>
<text text-anchor="middle" x="814.5" y="-473" font-family="Helvetica,sans-Serif" font-size="10.00">ExampleList</text>
</a>
</g>
</g>
<!-- Node15&#45;&gt;Node10 -->
<g id="edge20_Node000010_Node000015" class="edge">
<title>Node15&#45;&gt;Node10</title>
<g id="a_edge20_Node000010_Node000015"><a xlink:title=" ">
<path fill="none" stroke="#9a32cd" stroke-dasharray="5,2" d="M863.32,-480.59C901.33,-482.85 955.19,-481.97 999,-465.5 1031.83,-453.16 1062.09,-423.38 1076.18,-408.02"/>
<polygon fill="#9a32cd" stroke="#9a32cd" points="863.26,-477.08 853.05,-479.89 862.78,-484.06 863.26,-477.08"/>
</a>
</g>
<text text-anchor="middle" x="941.5" y="-484.5" font-family="Helvetica,sans-Serif" font-size="10.00" fill="grey"> examples</text>
</g>
<!-- Node16 -->
<g id="Node000016" class="node">
<title>Node16</title>
<g id="a_Node000016"><a xlink:title=" ">
<polygon fill="white" stroke="#666666" points="619,-485 485,-485 485,-466 619,-466 619,-485"/>
<text text-anchor="middle" x="552" y="-473" font-family="Helvetica,sans-Serif" font-size="10.00">std::vector&lt; Example &gt;</text>
</a>
</g>
</g>
<!-- Node16&#45;&gt;Node15 -->
<g id="edge21_Node000015_Node000016" class="edge">
<title>Node16&#45;&gt;Node15</title>
<g id="a_edge21_Node000015_Node000016"><a xlink:title=" ">
<path fill="none" stroke="#63b8ff" d="M629.16,-475.5C677.34,-475.5 737.52,-475.5 775.75,-475.5"/>
<polygon fill="#63b8ff" stroke="#63b8ff" points="629.07,-472 619.07,-475.5 629.07,-479 629.07,-472"/>
</a>
</g>
</g>
<!-- Node17 -->
<g id="Node000017" class="node">
<title>Node17</title>
<g id="a_Node000017"><a xlink:href="../../d9/d45/class_q_c_string.html" target="_top" xlink:title="This is an alternative implementation of QCString.">
<polygon fill="white" stroke="#666666" points="581.5,-628 522.5,-628 522.5,-609 581.5,-609 581.5,-628"/>
<text text-anchor="middle" x="552" y="-616" font-family="Helvetica,sans-Serif" font-size="10.00">QCString</text>
</a>
</g>
</g>
<!-- Node17&#45;&gt;Node10 -->
<g id="edge22_Node000010_Node000017" class="edge">
<title>Node17&#45;&gt;Node10</title>
<g id="a_edge22_Node000010_Node000017"><a xlink:title=" ">
<path fill="none" stroke="#9a32cd" stroke-dasharray="5,2" d="M591.89,-617.24C697.42,-613.67 982.41,-603.03 999,-591.5 1063.71,-546.55 1080.03,-440.97 1083.6,-408.31"/>
<polygon fill="#9a32cd" stroke="#9a32cd" points="591.54,-613.75 581.67,-617.58 591.78,-620.75 591.54,-613.75"/>
</a>
</g>
<text text-anchor="middle" x="814.5" y="-733.5" font-family="Helvetica,sans-Serif" font-size="10.00" fill="grey"> accessorType</text>
<text text-anchor="middle" x="814.5" y="-722.5" font-family="Helvetica,sans-Serif" font-size="10.00" fill="grey">anc</text>
<text text-anchor="middle" x="814.5" y="-711.5" font-family="Helvetica,sans-Serif" font-size="10.00" fill="grey">args</text>
<text text-anchor="middle" x="814.5" y="-700.5" font-family="Helvetica,sans-Serif" font-size="10.00" fill="grey">bitfields</text>
<text text-anchor="middle" x="814.5" y="-689.5" font-family="Helvetica,sans-Serif" font-size="10.00" fill="grey">cachedResolvedType</text>
<text text-anchor="start" x="763" y="-678.5" font-family="Helvetica,sans-Serif" font-size="10.00" fill="grey">cachedTypedefTempl</text>
<text text-anchor="middle" x="814.5" y="-667.5" font-family="Helvetica,sans-Serif" font-size="10.00" fill="grey">Spec</text>
<text text-anchor="middle" x="814.5" y="-656.5" font-family="Helvetica,sans-Serif" font-size="10.00" fill="grey">decl</text>
<text text-anchor="middle" x="814.5" y="-645.5" font-family="Helvetica,sans-Serif" font-size="10.00" fill="grey">declFileName</text>
<text text-anchor="middle" x="814.5" y="-634.5" font-family="Helvetica,sans-Serif" font-size="10.00" fill="grey">def</text>
<text text-anchor="middle" x="814.5" y="-623.5" font-family="Helvetica,sans-Serif" font-size="10.00" fill="grey">enumBaseType</text>
<text text-anchor="middle" x="814.5" y="-612.5" font-family="Helvetica,sans-Serif" font-size="10.00" fill="grey">...</text>
</g>
<!-- Node18 -->
<g id="Node000018" class="node">
<title>Node18</title>
<g id="a_Node000018"><a xlink:href="../../d7/df8/class_argument_list.html" target="_top" xlink:title="This class represents an function or template argument list.">
<polygon fill="white" stroke="#666666" points="855.5,-564 773.5,-564 773.5,-545 855.5,-545 855.5,-564"/>
<text text-anchor="middle" x="814.5" y="-552" font-family="Helvetica,sans-Serif" font-size="10.00">ArgumentList</text>
</a>
</g>
</g>
<!-- Node17&#45;&gt;Node18 -->
<g id="edge24_Node000018_Node000017" class="edge">
<title>Node17&#45;&gt;Node18</title>
<g id="a_edge24_Node000018_Node000017"><a xlink:title=" ">
<path fill="none" stroke="#9a32cd" stroke-dasharray="5,2" d="M570.2,-601.78C586.08,-587.55 611.07,-568.1 637,-559.5 681.95,-544.59 736.93,-545.85 773.46,-549.2"/>
<polygon fill="#9a32cd" stroke="#9a32cd" points="567.73,-599.3 562.76,-608.66 572.48,-604.43 567.73,-599.3"/>
</a>
</g>
<text text-anchor="middle" x="691" y="-562.5" font-family="Helvetica,sans-Serif" font-size="10.00" fill="grey"> m_trailingReturnType</text>
</g>
<!-- Node17&#45;&gt;Node19 -->
<g id="edge31_Node000019_Node000017" class="edge">
<title>Node17&#45;&gt;Node19</title>
<g id="a_edge31_Node000019_Node000017"><a xlink:title=" ">
<path fill="none" stroke="#9a32cd" stroke-dasharray="5,2" d="M591.67,-625.39C641.33,-634.99 723.67,-653.68 745,-675.5 766.26,-697.24 743.49,-718.18 763,-741.5 768.17,-747.68 775.3,-752.37 782.57,-755.9"/>
<polygon fill="#9a32cd" stroke="#9a32cd" points="592.08,-621.91 581.61,-623.48 590.78,-628.78 592.08,-621.91"/>
</a>
</g>
<text text-anchor="middle" x="691" y="-711.5" font-family="Helvetica,sans-Serif" font-size="10.00" fill="grey"> doc</text>
<text text-anchor="middle" x="691" y="-700.5" font-family="Helvetica,sans-Serif" font-size="10.00" fill="grey">fileName</text>
<text text-anchor="middle" x="691" y="-689.5" font-family="Helvetica,sans-Serif" font-size="10.00" fill="grey">grpHeader</text>
<text text-anchor="middle" x="691" y="-678.5" font-family="Helvetica,sans-Serif" font-size="10.00" fill="grey">m_docFile</text>
</g>
<!-- Node18&#45;&gt;Node10 -->
<g id="edge23_Node000010_Node000018" class="edge">
<title>Node18&#45;&gt;Node10</title>
<g id="a_edge23_Node000010_Node000018"><a xlink:title=" ">
<path fill="none" stroke="#9a32cd" stroke-dasharray="5,2" d="M865.93,-548.33C916.33,-541.84 987.9,-531.59 999,-524.5 1044.67,-495.33 1072.03,-432.08 1081.11,-408.04"/>
<polygon fill="#9a32cd" stroke="#9a32cd" points="865.32,-544.88 855.84,-549.62 866.21,-551.83 865.32,-544.88"/>
</a>
</g>
<text text-anchor="middle" x="941.5" y="-581.5" font-family="Helvetica,sans-Serif" font-size="10.00" fill="grey"> declArgList</text>
<text text-anchor="middle" x="941.5" y="-570.5" font-family="Helvetica,sans-Serif" font-size="10.00" fill="grey">defArgList</text>
<text text-anchor="middle" x="941.5" y="-559.5" font-family="Helvetica,sans-Serif" font-size="10.00" fill="grey">tArgList</text>
<text text-anchor="middle" x="941.5" y="-548.5" font-family="Helvetica,sans-Serif" font-size="10.00" fill="grey">typeConstraints</text>
</g>
<!-- Node19&#45;&gt;Node10 -->
<g id="edge25_Node000010_Node000019" class="edge">
<title>Node19&#45;&gt;Node10</title>
<g id="a_edge25_Node000010_Node000019"><a xlink:title=" ">
<path fill="none" stroke="#9a32cd" stroke-dasharray="5,2" d="M848.63,-751.51C854.59,-748.5 860.61,-745.13 866,-741.5 932.52,-696.67 953.79,-685.76 999,-619.5 1048.86,-546.44 1075.28,-440.22 1082.46,-408.07"/>
<polygon fill="#9a32cd" stroke="#9a32cd" points="846.94,-748.43 839.42,-755.9 849.96,-754.75 846.94,-748.43"/>
</a>
</g>
<text text-anchor="middle" x="941.5" y="-731.5" font-family="Helvetica,sans-Serif" font-size="10.00" fill="grey"> memberGroup</text>
</g>
<!-- Node20&#45;&gt;Node19 -->
<g id="edge27_Node000019_Node000020" class="edge">
<title>Node20&#45;&gt;Node19</title>
<g id="a_edge27_Node000019_Node000020"><a xlink:title=" ">
<path fill="none" stroke="#9a32cd" stroke-dasharray="5,2" d="M598.99,-715.27C648.27,-726.81 725.76,-744.96 772.88,-755.99"/>
<polygon fill="#9a32cd" stroke="#9a32cd" points="599.76,-711.85 589.22,-712.98 598.16,-718.67 599.76,-711.85"/>
</a>
</g>
<text text-anchor="middle" x="691" y="-751.5" font-family="Helvetica,sans-Serif" font-size="10.00" fill="grey"> inDeclSection</text>
</g>
<!-- Node21 -->
<g id="Node000021" class="node">
<title>Node21</title>
<g id="a_Node000021"><a xlink:href="../../d4/d15/class_member_group_ref_list.html" target="_top" xlink:title=" ">
<polygon fill="white" stroke="#666666" points="326,-714 206,-714 206,-695 326,-695 326,-714"/>
<text text-anchor="middle" x="266" y="-702" font-family="Helvetica,sans-Serif" font-size="10.00">MemberGroupRefList</text>
</a>
</g>
</g>
<!-- Node21&#45;&gt;Node20 -->
<g id="edge29_Node000020_Node000021" class="edge">
<title>Node21&#45;&gt;Node20</title>
<g id="a_edge29_Node000020_Node000021"><a xlink:title=" ">
<path fill="none" stroke="#9a32cd" stroke-dasharray="5,2" d="M336.46,-704.5C392.82,-704.5 470.04,-704.5 514.81,-704.5"/>
<polygon fill="#9a32cd" stroke="#9a32cd" points="336.19,-701 326.19,-704.5 336.19,-708 336.19,-701"/>
</a>
</g>
<text text-anchor="middle" x="405.5" y="-707.5" font-family="Helvetica,sans-Serif" font-size="10.00" fill="grey"> m_memberGroupRefList</text>
</g>
<!-- Node22 -->
<g id="Node000022" class="node">
<title>Node22</title>
<g id="a_Node000022"><a xlink:title=" ">
<polygon fill="white" stroke="#666666" points="169,-714 0,-714 0,-695 169,-695 169,-714"/>
<text text-anchor="middle" x="84.5" y="-702" font-family="Helvetica,sans-Serif" font-size="10.00">std::vector&lt; MemberGroup * &gt;</text>
</a>
</g>
</g>
<!-- Node22&#45;&gt;Node21 -->
<g id="edge30_Node000021_Node000022" class="edge">
<title>Node22&#45;&gt;Node21</title>
<g id="a_edge30_Node000021_Node000022"><a xlink:title=" ">
<path fill="none" stroke="#63b8ff" d="M179.34,-704.5C188.32,-704.5 197.24,-704.5 205.74,-704.5"/>
<polygon fill="#63b8ff" stroke="#63b8ff" points="179.21,-701 169.21,-704.5 179.21,-708 179.21,-701"/>
</a>
</g>
</g>
<!-- Node23&#45;&gt;Node10 -->
<g id="edge32_Node000010_Node000023" class="edge">
<title>Node23&#45;&gt;Node10</title>
<g id="a_edge32_Node000010_Node000023"><a xlink:title=" ">
<path fill="none" stroke="#9a32cd" stroke-dasharray="5,2" d="M856.16,-134.5C896.69,-129.91 958.57,-129.69 999,-161.5 1074.29,-220.73 1083.33,-352.06 1084.38,-388.79"/>
<polygon fill="#9a32cd" stroke="#9a32cd" points="855.57,-131.05 846.09,-135.78 856.45,-137.99 855.57,-131.05"/>
</a>
</g>
<text text-anchor="middle" x="941.5" y="-164.5" font-family="Helvetica,sans-Serif" font-size="10.00" fill="grey"> group</text>
</g>
</g>
</svg>

<g id="navigator" transform="translate(0 0)" fill="#404254">
  <rect fill="#f2f5e9" fill-opacity="0.5" stroke="#606060" stroke-width=".5" x="0" y="0" width="60" height="60"/>
  <use id="zoomplus" xlink:href="#zoomPlus" x="17" y="9" onmousedown="handleZoom(evt,'in')"/>
  <use id="zoomminus" xlink:href="#zoomMin" x="42" y="9" onmousedown="handleZoom(evt,'out')"/>
  <use id="reset" xlink:href="#resetDef" x="30" y="36" onmousedown="handleReset()"/>
  <g id="arrowUp" xlink:href="#dirArrow" transform="translate(30 24)" onmousedown="handlePan(0,-1)">
    <use xlink:href="#rim" fill="#404040">
          <set attributeName="fill" to="#808080" begin="arrowUp.mouseover" end="arrowUp.mouseout"/>
    </use>
    <path fill="none" stroke="white" stroke-width="1.5" d="M0,-3.0v7 M-2.5,-0.5L0,-3.0L2.5,-0.5"/>
  </g>
  <g id="arrowRight" xlink:href="#dirArrow" transform="rotate(90) translate(36 -43)" onmousedown="handlePan(1,0)">
    <use xlink:href="#rim" fill="#404040">
          <set attributeName="fill" to="#808080" begin="arrowRight.mouseover" end="arrowRight.mouseout"/>
    </use>
    <path fill="none" stroke="white" stroke-width="1.5" d="M0,-3.0v7 M-2.5,-0.5L0,-3.0L2.5,-0.5"/>
  </g>
  <g id="arrowDown" xlink:href="#dirArrow" transform="rotate(180) translate(-30 -48)" onmousedown="handlePan(0,1)">
    <use xlink:href="#rim" fill="#404040">
          <set attributeName="fill" to="#808080" begin="arrowDown.mouseover" end="arrowDown.mouseout"/>
    </use>
    <path fill="none" stroke="white" stroke-width="1.5" d="M0,-3.0v7 M-2.5,-0.5L0,-3.0L2.5,-0.5"/>
  </g>
  <g id="arrowLeft" xlink:href="#dirArrow" transform="rotate(270) translate(-36 17)" onmousedown="handlePan(-1,0)">
    <use xlink:href="#rim" fill="#404040">
          <set attributeName="fill" to="#808080" begin="arrowLeft.mouseover" end="arrowLeft.mouseout"/>
    </use>
    <path fill="none" stroke="white" stroke-width="1.5" d="M0,-3.0v7 M-2.5,-0.5L0,-3.0L2.5,-0.5"/>
  </g>
</g>
<svg viewBox="0 0 15 15" width="100%" height="30px" preserveAspectRatio="xMaxYMin meet">
 <g id="arrow_out" transform="scale(0.3 0.3)">
  <a xlink:href="class_member_def_impl__coll__graph_org.svg" target="_base">
   <rect id="button" ry="5" rx="5" y="6" x="6" height="38" width="38"
        fill="#f2f5e9" fill-opacity="0.5" stroke="#606060" stroke-width="1.0"/>
   <path id="arrow"
     d="M 11.500037,31.436501 C 11.940474,20.09759 22.043105,11.32322 32.158766,21.979434 L 37.068811,17.246167 C 37.068811,17.246167 37.088388,32 37.088388,32 L 22.160133,31.978069 C 22.160133,31.978069 26.997745,27.140456 26.997745,27.140456 C 18.528582,18.264221 13.291696,25.230495 11.500037,31.436501 z"
     style="fill:#404040;"/>
  </a>
 </g>
</svg>

<style type='text/css'>
<![CDATA[
[data-mouse-over-selected='false'] { opacity: 0.7; }
[data-mouse-over-selected='true']  { opacity: 1.0; }
]]>
</style>
<script><![CDATA[
document.addEventListener('DOMContentLoaded', (event) => {
  highlightEdges();
  highlightAdjacentNodes();
});
]]></script>
</svg>
