<?xml version="1.0" encoding="UTF-8" standalone="no"?>
<!DOCTYPE svg PUBLIC "-//W3C//DTD SVG 1.1//EN"
 "http://www.w3.org/Graphics/SVG/1.1/DTD/svg11.dtd">
<!-- Generated by graphviz version 2.43.0 (0)
 -->
<!-- Title: /home/runner/work/doxygen/doxygen/src/mangen.h Pages: 1 -->
<svg width="6457pt" height="170pt"
 viewBox="0.00 0.00 6457.00 170.00" xmlns="http://www.w3.org/2000/svg" xmlns:xlink="http://www.w3.org/1999/xlink">
<g id="graph0" class="graph" transform="scale(1 1) rotate(0) translate(4 166)">
<title>/home/runner/work/doxygen/doxygen/src/mangen.h</title>
<!-- Node1 -->
<g id="Node000001" class="node">
<title>Node1</title>
<g id="a_Node000001"><a xlink:title=" ">
<polygon fill="#999999" stroke="#666666" points="326,-162 172,-162 172,-132 326,-132 326,-162"/>
<text text-anchor="start" x="180" y="-150" font-family="Helvetica,sans-Serif" font-size="10.00">/home/runner/work/doxygen</text>
<text text-anchor="middle" x="249" y="-139" font-family="Helvetica,sans-Serif" font-size="10.00">/doxygen/src/mangen.h</text>
</a>
</g>
</g>
<!-- Node2 -->
<g id="Node000002" class="node">
<title>Node2</title>
<g id="a_Node000002"><a xlink:href="../../dc/d98/doxygen_8cpp.html" target="_top" xlink:title=" ">
<polygon fill="white" stroke="#666666" points="154,-30 0,-30 0,0 154,0 154,-30"/>
<text text-anchor="start" x="8" y="-18" font-family="Helvetica,sans-Serif" font-size="10.00">/home/runner/work/doxygen</text>
<text text-anchor="middle" x="77" y="-7" font-family="Helvetica,sans-Serif" font-size="10.00">/doxygen/src/doxygen.cpp</text>
</a>
</g>
</g>
<!-- Node1&#45;&gt;Node2 -->
<g id="edge1_Node000001_Node000002" class="edge">
<title>Node1&#45;&gt;Node2</title>
<g id="a_edge1_Node000001_Node000002"><a xlink:title=" ">
<path fill="none" stroke="#63b8ff" d="M221.9,-125.52C186.71,-98.92 126.2,-53.18 95.71,-30.14"/>
<polygon fill="#63b8ff" stroke="#63b8ff" points="220.18,-128.6 230.27,-131.84 224.4,-123.02 220.18,-128.6"/>
</a>
</g>
</g>
<!-- Node3 -->
<g id="Node000003" class="node">
<title>Node3</title>
<g id="a_Node000003"><a xlink:href="../../d7/de7/mangen_8cpp.html" target="_top" xlink:title=" ">
<polygon fill="white" stroke="#666666" points="326,-30 172,-30 172,0 326,0 326,-30"/>
<text text-anchor="start" x="180" y="-18" font-family="Helvetica,sans-Serif" font-size="10.00">/home/runner/work/doxygen</text>
<text text-anchor="middle" x="249" y="-7" font-family="Helvetica,sans-Serif" font-size="10.00">/doxygen/src/mangen.cpp</text>
</a>
</g>
</g>
<!-- Node1&#45;&gt;Node3 -->
<g id="edge2_Node000001_Node000003" class="edge">
<title>Node1&#45;&gt;Node3</title>
<g id="a_edge2_Node000001_Node000003"><a xlink:title=" ">
<path fill="none" stroke="#63b8ff" d="M249,-121.68C249,-94.7 249,-52.11 249,-30.14"/>
<polygon fill="#63b8ff" stroke="#63b8ff" points="245.5,-121.84 249,-131.84 252.5,-121.84 245.5,-121.84"/>
</a>
</g>
</g>
<!-- Node4 -->
<g id="Node000004" class="node">
<title>Node4</title>
<g id="a_Node000004"><a xlink:href="../../d2/db9/outputlist_8h.html" target="_top" xlink:title=" ">
<polygon fill="white" stroke="#666666" points="3240,-96 3086,-96 3086,-66 3240,-66 3240,-96"/>
<text text-anchor="start" x="3094" y="-84" font-family="Helvetica,sans-Serif" font-size="10.00">/home/runner/work/doxygen</text>
<text text-anchor="middle" x="3163" y="-73" font-family="Helvetica,sans-Serif" font-size="10.00">/doxygen/src/outputlist.h</text>
</a>
</g>
</g>
<!-- Node1&#45;&gt;Node4 -->
<g id="edge3_Node000001_Node000004" class="edge">
<title>Node1&#45;&gt;Node4</title>
<g id="a_edge3_Node000001_Node000004"><a xlink:title=" ">
<path fill="none" stroke="#63b8ff" d="M336.44,-144.08C769.18,-134.58 2677.04,-92.67 3085.75,-83.7"/>
<polygon fill="#63b8ff" stroke="#63b8ff" points="336.11,-140.59 326.19,-144.3 336.27,-147.58 336.11,-140.59"/>
</a>
</g>
</g>
<!-- Node4&#45;&gt;Node2 -->
<g id="edge12_Node000004_Node000002" class="edge">
<title>Node4&#45;&gt;Node2</title>
<g id="a_edge12_Node000004_Node000002"><a xlink:title=" ">
<path fill="none" stroke="#63b8ff" d="M3075.57,-80.25C2645.36,-81.23 750.36,-82.43 163,-30 160.14,-29.74 157.23,-29.45 154.29,-29.12"/>
<polygon fill="#63b8ff" stroke="#63b8ff" points="3075.77,-83.75 3085.76,-80.23 3075.76,-76.75 3075.77,-83.75"/>
</a>
</g>
</g>
<!-- Node4&#45;&gt;Node3 -->
<g id="edge24_Node000004_Node000003" class="edge">
<title>Node4&#45;&gt;Node3</title>
<g id="a_edge24_Node000004_Node000003"><a xlink:title=" ">
<path fill="none" stroke="#63b8ff" d="M3075.55,-80.15C2660.49,-80.59 886.41,-79.5 335,-30 332.14,-29.74 329.23,-29.45 326.29,-29.12"/>
<polygon fill="#63b8ff" stroke="#63b8ff" points="3075.69,-83.65 3085.69,-80.14 3075.68,-76.65 3075.69,-83.65"/>
</a>
</g>
</g>
<!-- Node5 -->
<g id="Node000005" class="node">
<title>Node5</title>
<g id="a_Node000005"><a xlink:href="../../de/d89/classdef_8cpp.html" target="_top" xlink:title=" ">
<polygon fill="white" stroke="#666666" points="5587,-30 5433,-30 5433,0 5587,0 5587,-30"/>
<text text-anchor="start" x="5441" y="-18" font-family="Helvetica,sans-Serif" font-size="10.00">/home/runner/work/doxygen</text>
<text text-anchor="middle" x="5510" y="-7" font-family="Helvetica,sans-Serif" font-size="10.00">/doxygen/src/classdef.cpp</text>
</a>
</g>
</g>
<!-- Node4&#45;&gt;Node5 -->
<g id="edge4_Node000004_Node000005" class="edge">
<title>Node4&#45;&gt;Node5</title>
<g id="a_edge4_Node000004_Node000005"><a xlink:title=" ">
<path fill="none" stroke="#63b8ff" d="M3250.34,-79.7C3611.61,-78.19 4990.51,-69.88 5424,-30 5426.86,-29.74 5429.77,-29.44 5432.71,-29.1"/>
<polygon fill="#63b8ff" stroke="#63b8ff" points="3250.19,-76.2 3240.2,-79.74 3250.22,-83.2 3250.19,-76.2"/>
</a>
</g>
</g>
<!-- Node6 -->
<g id="Node000006" class="node">
<title>Node6</title>
<g id="a_Node000006"><a xlink:href="../../d6/d10/classlist_8cpp.html" target="_top" xlink:title=" ">
<polygon fill="white" stroke="#666666" points="5759,-30 5605,-30 5605,0 5759,0 5759,-30"/>
<text text-anchor="start" x="5613" y="-18" font-family="Helvetica,sans-Serif" font-size="10.00">/home/runner/work/doxygen</text>
<text text-anchor="middle" x="5682" y="-7" font-family="Helvetica,sans-Serif" font-size="10.00">/doxygen/src/classlist.cpp</text>
</a>
</g>
</g>
<!-- Node4&#45;&gt;Node6 -->
<g id="edge5_Node000004_Node000006" class="edge">
<title>Node4&#45;&gt;Node6</title>
<g id="a_edge5_Node000004_Node000006"><a xlink:title=" ">
<path fill="none" stroke="#63b8ff" d="M3250.33,-79.86C3628.49,-78.97 5126.81,-72.8 5596,-30 5598.86,-29.74 5601.77,-29.44 5604.71,-29.11"/>
<polygon fill="#63b8ff" stroke="#63b8ff" points="3250.26,-76.36 3240.27,-79.88 3250.27,-83.36 3250.26,-76.36"/>
</a>
</g>
</g>
<!-- Node7 -->
<g id="Node000007" class="node">
<title>Node7</title>
<g id="a_Node000007"><a xlink:href="../../da/d1f/code_8l.html" target="_top" xlink:title=" ">
<polygon fill="white" stroke="#666666" points="5931,-30 5777,-30 5777,0 5931,0 5931,-30"/>
<text text-anchor="start" x="5785" y="-18" font-family="Helvetica,sans-Serif" font-size="10.00">/home/runner/work/doxygen</text>
<text text-anchor="middle" x="5854" y="-7" font-family="Helvetica,sans-Serif" font-size="10.00">/doxygen/src/code.l</text>
</a>
</g>
</g>
<!-- Node4&#45;&gt;Node7 -->
<g id="edge6_Node000004_Node000007" class="edge">
<title>Node4&#45;&gt;Node7</title>
<g id="a_edge6_Node000004_Node000007"><a xlink:title=" ">
<path fill="none" stroke="#63b8ff" d="M3250.23,-79.99C3644.53,-79.71 5262.99,-75.72 5768,-30 5770.86,-29.74 5773.77,-29.44 5776.71,-29.11"/>
<polygon fill="#63b8ff" stroke="#63b8ff" points="3250.03,-76.49 3240.03,-80 3250.03,-83.49 3250.03,-76.49"/>
</a>
</g>
</g>
<!-- Node8 -->
<g id="Node000008" class="node">
<title>Node8</title>
<g id="a_Node000008"><a xlink:href="../../d8/d0a/conceptdef_8cpp.html" target="_top" xlink:title=" ">
<polygon fill="white" stroke="#666666" points="6104.5,-30 5949.5,-30 5949.5,0 6104.5,0 6104.5,-30"/>
<text text-anchor="start" x="5957.5" y="-18" font-family="Helvetica,sans-Serif" font-size="10.00">/home/runner/work/doxygen</text>
<text text-anchor="middle" x="6027" y="-7" font-family="Helvetica,sans-Serif" font-size="10.00">/doxygen/src/conceptdef.cpp</text>
</a>
</g>
</g>
<!-- Node4&#45;&gt;Node8 -->
<g id="edge7_Node000004_Node000008" class="edge">
<title>Node4&#45;&gt;Node8</title>
<g id="a_edge7_Node000004_Node000008"><a xlink:title=" ">
<path fill="none" stroke="#63b8ff" d="M3250.22,-80.09C3660.27,-80.28 5399.09,-78.15 5940,-30 5943.05,-29.73 5946.15,-29.41 5949.28,-29.07"/>
<polygon fill="#63b8ff" stroke="#63b8ff" points="3250.2,-76.59 3240.2,-80.09 3250.2,-83.59 3250.2,-76.59"/>
</a>
</g>
</g>
<!-- Node9 -->
<g id="Node000009" class="node">
<title>Node9</title>
<g id="a_Node000009"><a xlink:href="../../db/d12/context_8cpp.html" target="_top" xlink:title=" ">
<polygon fill="white" stroke="#666666" points="6277,-30 6123,-30 6123,0 6277,0 6277,-30"/>
<text text-anchor="start" x="6131" y="-18" font-family="Helvetica,sans-Serif" font-size="10.00">/home/runner/work/doxygen</text>
<text text-anchor="middle" x="6200" y="-7" font-family="Helvetica,sans-Serif" font-size="10.00">/doxygen/src/context.cpp</text>
</a>
</g>
</g>
<!-- Node4&#45;&gt;Node9 -->
<g id="edge8_Node000004_Node000009" class="edge">
<title>Node4&#45;&gt;Node9</title>
<g id="a_edge8_Node000004_Node000009"><a xlink:title=" ">
<path fill="none" stroke="#63b8ff" d="M3250.4,-80.22C3676.27,-81.05 5536.87,-81.59 6114,-30 6116.86,-29.74 6119.77,-29.45 6122.71,-29.12"/>
<polygon fill="#63b8ff" stroke="#63b8ff" points="3250.31,-76.72 3240.3,-80.2 3250.3,-83.72 3250.31,-76.72"/>
</a>
</g>
</g>
<!-- Node10 -->
<g id="Node000010" class="node">
<title>Node10</title>
<g id="a_Node000010"><a xlink:href="../../d3/dea/definition_8cpp.html" target="_top" xlink:title=" ">
<polygon fill="white" stroke="#666666" points="6449,-30 6295,-30 6295,0 6449,0 6449,-30"/>
<text text-anchor="start" x="6303" y="-18" font-family="Helvetica,sans-Serif" font-size="10.00">/home/runner/work/doxygen</text>
<text text-anchor="middle" x="6372" y="-7" font-family="Helvetica,sans-Serif" font-size="10.00">/doxygen/src/definition.cpp</text>
</a>
</g>
</g>
<!-- Node4&#45;&gt;Node10 -->
<g id="edge9_Node000004_Node000010" class="edge">
<title>Node4&#45;&gt;Node10</title>
<g id="a_edge9_Node000004_Node000010"><a xlink:title=" ">
<path fill="none" stroke="#63b8ff" d="M3250.4,-80.32C3691.15,-81.66 5672.89,-84.52 6286,-30 6288.86,-29.75 6291.77,-29.45 6294.71,-29.13"/>
<polygon fill="#63b8ff" stroke="#63b8ff" points="3250.29,-76.82 3240.28,-80.29 3250.27,-83.82 3250.29,-76.82"/>
</a>
</g>
</g>
<!-- Node11 -->
<g id="Node000011" class="node">
<title>Node11</title>
<g id="a_Node000011"><a xlink:href="../../d8/d52/dirdef_8cpp.html" target="_top" xlink:title=" ">
<polygon fill="white" stroke="#666666" points="498,-30 344,-30 344,0 498,0 498,-30"/>
<text text-anchor="start" x="352" y="-18" font-family="Helvetica,sans-Serif" font-size="10.00">/home/runner/work/doxygen</text>
<text text-anchor="middle" x="421" y="-7" font-family="Helvetica,sans-Serif" font-size="10.00">/doxygen/src/dirdef.cpp</text>
</a>
</g>
</g>
<!-- Node4&#45;&gt;Node11 -->
<g id="edge10_Node000004_Node000011" class="edge">
<title>Node4&#45;&gt;Node11</title>
<g id="a_edge10_Node000004_Node000011"><a xlink:title=" ">
<path fill="none" stroke="#63b8ff" d="M3075.72,-80.01C2676.7,-79.8 1023.44,-76.1 508,-30 504.8,-29.71 501.54,-29.38 498.25,-29.01"/>
<polygon fill="#63b8ff" stroke="#63b8ff" points="3075.76,-83.51 3085.76,-80.01 3075.76,-76.51 3075.76,-83.51"/>
</a>
</g>
</g>
<!-- Node12 -->
<g id="Node000012" class="node">
<title>Node12</title>
<g id="a_Node000012"><a xlink:href="../../d8/d29/docbookgen_8cpp.html" target="_top" xlink:title=" ">
<polygon fill="white" stroke="#666666" points="677.5,-30 516.5,-30 516.5,0 677.5,0 677.5,-30"/>
<text text-anchor="start" x="524.5" y="-18" font-family="Helvetica,sans-Serif" font-size="10.00">/home/runner/work/doxygen</text>
<text text-anchor="middle" x="597" y="-7" font-family="Helvetica,sans-Serif" font-size="10.00">/doxygen/src/docbookgen.cpp</text>
</a>
</g>
</g>
<!-- Node4&#45;&gt;Node12 -->
<g id="edge11_Node000004_Node000012" class="edge">
<title>Node4&#45;&gt;Node12</title>
<g id="a_edge11_Node000004_Node000012"><a xlink:title=" ">
<path fill="none" stroke="#63b8ff" d="M3075.73,-79.81C2693.56,-78.73 1165.3,-71.84 687,-30 684.01,-29.74 680.96,-29.44 677.89,-29.11"/>
<polygon fill="#63b8ff" stroke="#63b8ff" points="3075.89,-83.31 3085.9,-79.84 3075.91,-76.31 3075.89,-83.31"/>
</a>
</g>
</g>
<!-- Node13 -->
<g id="Node000013" class="node">
<title>Node13</title>
<g id="a_Node000013"><a xlink:href="../../d6/ddc/filedef_8cpp.html" target="_top" xlink:title=" ">
<polygon fill="white" stroke="#666666" points="850,-30 696,-30 696,0 850,0 850,-30"/>
<text text-anchor="start" x="704" y="-18" font-family="Helvetica,sans-Serif" font-size="10.00">/home/runner/work/doxygen</text>
<text text-anchor="middle" x="773" y="-7" font-family="Helvetica,sans-Serif" font-size="10.00">/doxygen/src/filedef.cpp</text>
</a>
</g>
</g>
<!-- Node4&#45;&gt;Node13 -->
<g id="edge13_Node000004_Node000013" class="edge">
<title>Node4&#45;&gt;Node13</title>
<g id="a_edge13_Node000004_Node000013"><a xlink:title=" ">
<path fill="none" stroke="#63b8ff" d="M3075.54,-79.74C2709.78,-78.39 1301.35,-70.6 859,-30 856.14,-29.74 853.23,-29.44 850.29,-29.1"/>
<polygon fill="#63b8ff" stroke="#63b8ff" points="3075.78,-83.24 3085.79,-79.77 3075.81,-76.24 3075.78,-83.24"/>
</a>
</g>
</g>
<!-- Node14 -->
<g id="Node000014" class="node">
<title>Node14</title>
<g id="a_Node000014"><a xlink:href="../../d9/d74/fileparser_8cpp.html" target="_top" xlink:title=" ">
<polygon fill="white" stroke="#666666" points="1022,-30 868,-30 868,0 1022,0 1022,-30"/>
<text text-anchor="start" x="876" y="-18" font-family="Helvetica,sans-Serif" font-size="10.00">/home/runner/work/doxygen</text>
<text text-anchor="middle" x="945" y="-7" font-family="Helvetica,sans-Serif" font-size="10.00">/doxygen/src/fileparser.cpp</text>
</a>
</g>
</g>
<!-- Node4&#45;&gt;Node14 -->
<g id="edge14_Node000004_Node000014" class="edge">
<title>Node4&#45;&gt;Node14</title>
<g id="a_edge14_Node000004_Node000014"><a xlink:title=" ">
<path fill="none" stroke="#63b8ff" d="M3075.77,-79.56C2727.75,-77.56 1437.81,-67.7 1031,-30 1028.14,-29.73 1025.23,-29.43 1022.29,-29.1"/>
<polygon fill="#63b8ff" stroke="#63b8ff" points="3075.77,-83.06 3085.79,-79.62 3075.81,-76.06 3075.77,-83.06"/>
</a>
</g>
</g>
<!-- Node15 -->
<g id="Node000015" class="node">
<title>Node15</title>
<g id="a_Node000015"><a xlink:href="../../d9/d5b/fortrancode_8l.html" target="_top" xlink:title=" ">
<polygon fill="white" stroke="#666666" points="1194,-30 1040,-30 1040,0 1194,0 1194,-30"/>
<text text-anchor="start" x="1048" y="-18" font-family="Helvetica,sans-Serif" font-size="10.00">/home/runner/work/doxygen</text>
<text text-anchor="middle" x="1117" y="-7" font-family="Helvetica,sans-Serif" font-size="10.00">/doxygen/src/fortrancode.l</text>
</a>
</g>
</g>
<!-- Node4&#45;&gt;Node15 -->
<g id="edge15_Node000004_Node000015" class="edge">
<title>Node4&#45;&gt;Node15</title>
<g id="a_edge15_Node000004_Node000015"><a xlink:title=" ">
<path fill="none" stroke="#63b8ff" d="M3075.53,-79.35C2745.28,-76.65 1574.2,-64.79 1203,-30 1200.14,-29.73 1197.23,-29.43 1194.29,-29.09"/>
<polygon fill="#63b8ff" stroke="#63b8ff" points="3075.96,-82.85 3085.99,-79.43 3076.02,-75.85 3075.96,-82.85"/>
</a>
</g>
</g>
<!-- Node16 -->
<g id="Node000016" class="node">
<title>Node16</title>
<g id="a_Node000016"><a xlink:href="../../db/d41/ftvhelp_8cpp.html" target="_top" xlink:title=" ">
<polygon fill="white" stroke="#666666" points="1366,-30 1212,-30 1212,0 1366,0 1366,-30"/>
<text text-anchor="start" x="1220" y="-18" font-family="Helvetica,sans-Serif" font-size="10.00">/home/runner/work/doxygen</text>
<text text-anchor="middle" x="1289" y="-7" font-family="Helvetica,sans-Serif" font-size="10.00">/doxygen/src/ftvhelp.cpp</text>
</a>
</g>
</g>
<!-- Node4&#45;&gt;Node16 -->
<g id="edge16_Node000004_Node000016" class="edge">
<title>Node4&#45;&gt;Node16</title>
<g id="a_edge16_Node000004_Node000016"><a xlink:title=" ">
<path fill="none" stroke="#63b8ff" d="M3075.46,-79.1C2764.05,-75.66 1710.77,-61.88 1375,-30 1372.14,-29.73 1369.23,-29.42 1366.29,-29.08"/>
<polygon fill="#63b8ff" stroke="#63b8ff" points="3075.74,-82.6 3085.78,-79.21 3075.82,-75.6 3075.74,-82.6"/>
</a>
</g>
</g>
<!-- Node17 -->
<g id="Node000017" class="node">
<title>Node17</title>
<g id="a_Node000017"><a xlink:href="../../d6/d42/groupdef_8cpp.html" target="_top" xlink:title=" ">
<polygon fill="white" stroke="#666666" points="1538,-30 1384,-30 1384,0 1538,0 1538,-30"/>
<text text-anchor="start" x="1392" y="-18" font-family="Helvetica,sans-Serif" font-size="10.00">/home/runner/work/doxygen</text>
<text text-anchor="middle" x="1461" y="-7" font-family="Helvetica,sans-Serif" font-size="10.00">/doxygen/src/groupdef.cpp</text>
</a>
</g>
</g>
<!-- Node4&#45;&gt;Node17 -->
<g id="edge17_Node000004_Node000017" class="edge">
<title>Node4&#45;&gt;Node17</title>
<g id="a_edge17_Node000004_Node000017"><a xlink:title=" ">
<path fill="none" stroke="#63b8ff" d="M3075.84,-78.8C2784.76,-74.57 1847.62,-59 1547,-30 1544.14,-29.72 1541.23,-29.41 1538.29,-29.07"/>
<polygon fill="#63b8ff" stroke="#63b8ff" points="3075.87,-82.3 3085.92,-78.95 3075.98,-75.31 3075.87,-82.3"/>
</a>
</g>
</g>
<!-- Node18 -->
<g id="Node000018" class="node">
<title>Node18</title>
<g id="a_Node000018"><a xlink:href="../../da/db0/htmldocvisitor_8cpp.html" target="_top" xlink:title=" ">
<polygon fill="white" stroke="#666666" points="1728,-30 1556,-30 1556,0 1728,0 1728,-30"/>
<text text-anchor="start" x="1564" y="-18" font-family="Helvetica,sans-Serif" font-size="10.00">/home/runner/work/doxygen</text>
<text text-anchor="middle" x="1642" y="-7" font-family="Helvetica,sans-Serif" font-size="10.00">/doxygen/src/htmldocvisitor.cpp</text>
</a>
</g>
</g>
<!-- Node4&#45;&gt;Node18 -->
<g id="edge18_Node000004_Node000018" class="edge">
<title>Node4&#45;&gt;Node18</title>
<g id="a_edge18_Node000004_Node000018"><a xlink:title=" ">
<path fill="none" stroke="#63b8ff" d="M3075.9,-80.31C2852.78,-80.38 2242.68,-75.98 1737,-30 1734.09,-29.74 1731.14,-29.44 1728.16,-29.12"/>
<polygon fill="#63b8ff" stroke="#63b8ff" points="3075.91,-83.81 3085.91,-80.31 3075.91,-76.81 3075.91,-83.81"/>
</a>
</g>
</g>
<!-- Node19 -->
<g id="Node000019" class="node">
<title>Node19</title>
<g id="a_Node000019"><a xlink:href="../../d8/d6e/htmlgen_8cpp.html" target="_top" xlink:title=" ">
<polygon fill="white" stroke="#666666" points="1900,-30 1746,-30 1746,0 1900,0 1900,-30"/>
<text text-anchor="start" x="1754" y="-18" font-family="Helvetica,sans-Serif" font-size="10.00">/home/runner/work/doxygen</text>
<text text-anchor="middle" x="1823" y="-7" font-family="Helvetica,sans-Serif" font-size="10.00">/doxygen/src/htmlgen.cpp</text>
</a>
</g>
</g>
<!-- Node4&#45;&gt;Node19 -->
<g id="edge19_Node000004_Node000019" class="edge">
<title>Node4&#45;&gt;Node19</title>
<g id="a_edge19_Node000004_Node000019"><a xlink:title=" ">
<path fill="none" stroke="#63b8ff" d="M3075.63,-80.16C2871.11,-79.74 2345.49,-74.07 1909,-30 1906.14,-29.71 1903.23,-29.39 1900.3,-29.04"/>
<polygon fill="#63b8ff" stroke="#63b8ff" points="3075.71,-83.66 3085.72,-80.18 3075.72,-76.66 3075.71,-83.66"/>
</a>
</g>
</g>
<!-- Node20 -->
<g id="Node000020" class="node">
<title>Node20</title>
<g id="a_Node000020"><a xlink:href="../../db/d14/index_8cpp.html" target="_top" xlink:title="This file contains functions for the various index pages.">
<polygon fill="white" stroke="#666666" points="2072,-30 1918,-30 1918,0 2072,0 2072,-30"/>
<text text-anchor="start" x="1926" y="-18" font-family="Helvetica,sans-Serif" font-size="10.00">/home/runner/work/doxygen</text>
<text text-anchor="middle" x="1995" y="-7" font-family="Helvetica,sans-Serif" font-size="10.00">/doxygen/src/index.cpp</text>
</a>
</g>
</g>
<!-- Node4&#45;&gt;Node20 -->
<g id="edge20_Node000004_Node000020" class="edge">
<title>Node4&#45;&gt;Node20</title>
<g id="a_edge20_Node000004_Node000020"><a xlink:title=" ">
<path fill="none" stroke="#63b8ff" d="M3075.52,-79.37C2891.14,-77.29 2449.28,-68.36 2081,-30 2078.14,-29.7 2075.23,-29.37 2072.3,-29.01"/>
<polygon fill="#63b8ff" stroke="#63b8ff" points="3075.66,-82.87 3085.7,-79.48 3075.73,-75.87 3075.66,-82.87"/>
</a>
</g>
</g>
<!-- Node21 -->
<g id="Node000021" class="node">
<title>Node21</title>
<g id="a_Node000021"><a xlink:href="../../d1/d4e/latexdocvisitor_8cpp.html" target="_top" xlink:title=" ">
<polygon fill="white" stroke="#666666" points="2264,-30 2090,-30 2090,0 2264,0 2264,-30"/>
<text text-anchor="start" x="2098" y="-18" font-family="Helvetica,sans-Serif" font-size="10.00">/home/runner/work/doxygen</text>
<text text-anchor="middle" x="2177" y="-7" font-family="Helvetica,sans-Serif" font-size="10.00">/doxygen/src/latexdocvisitor.cpp</text>
</a>
</g>
</g>
<!-- Node4&#45;&gt;Node21 -->
<g id="edge21_Node000004_Node000021" class="edge">
<title>Node4&#45;&gt;Node21</title>
<g id="a_edge21_Node000004_Node000021"><a xlink:title=" ">
<path fill="none" stroke="#63b8ff" d="M3075.49,-77.66C2915.73,-72.81 2566.24,-59.56 2273,-30 2270.07,-29.7 2267.09,-29.38 2264.08,-29.04"/>
<polygon fill="#63b8ff" stroke="#63b8ff" points="3075.64,-81.16 3085.74,-77.97 3075.85,-74.17 3075.64,-81.16"/>
</a>
</g>
</g>
<!-- Node22 -->
<g id="Node000022" class="node">
<title>Node22</title>
<g id="a_Node000022"><a xlink:href="../../d4/d42/latexgen_8cpp.html" target="_top" xlink:title=" ">
<polygon fill="white" stroke="#666666" points="2436,-30 2282,-30 2282,0 2436,0 2436,-30"/>
<text text-anchor="start" x="2290" y="-18" font-family="Helvetica,sans-Serif" font-size="10.00">/home/runner/work/doxygen</text>
<text text-anchor="middle" x="2359" y="-7" font-family="Helvetica,sans-Serif" font-size="10.00">/doxygen/src/latexgen.cpp</text>
</a>
</g>
</g>
<!-- Node4&#45;&gt;Node22 -->
<g id="edge22_Node000004_Node000022" class="edge">
<title>Node4&#45;&gt;Node22</title>
<g id="a_edge22_Node000004_Node000022"><a xlink:title=" ">
<path fill="none" stroke="#63b8ff" d="M3075.44,-76.5C2939.96,-70.49 2671.52,-56.27 2445,-30 2442.14,-29.67 2439.24,-29.31 2436.31,-28.93"/>
<polygon fill="#63b8ff" stroke="#63b8ff" points="3075.61,-80.01 3085.75,-76.95 3075.91,-73.02 3075.61,-80.01"/>
</a>
</g>
</g>
<!-- Node23 -->
<g id="Node000023" class="node">
<title>Node23</title>
<g id="a_Node000023"><a xlink:href="../../d0/d7e/lexcode_8l.html" target="_top" xlink:title=" ">
<polygon fill="white" stroke="#666666" points="2608,-30 2454,-30 2454,0 2608,0 2608,-30"/>
<text text-anchor="start" x="2462" y="-18" font-family="Helvetica,sans-Serif" font-size="10.00">/home/runner/work/doxygen</text>
<text text-anchor="middle" x="2531" y="-7" font-family="Helvetica,sans-Serif" font-size="10.00">/doxygen/src/lexcode.l</text>
</a>
</g>
</g>
<!-- Node4&#45;&gt;Node23 -->
<g id="edge23_Node000004_Node000023" class="edge">
<title>Node4&#45;&gt;Node23</title>
<g id="a_edge23_Node000004_Node000023"><a xlink:title=" ">
<path fill="none" stroke="#63b8ff" d="M3075.77,-73.91C2967.81,-65.93 2778.46,-50.51 2617,-30 2614.15,-29.64 2611.25,-29.25 2608.32,-28.85"/>
<polygon fill="#63b8ff" stroke="#63b8ff" points="3075.73,-77.41 3085.96,-74.65 3076.24,-70.43 3075.73,-77.41"/>
</a>
</g>
</g>
<!-- Node24 -->
<g id="Node000024" class="node">
<title>Node24</title>
<g id="a_Node000024"><a xlink:href="../../d0/d72/memberdef_8cpp.html" target="_top" xlink:title=" ">
<polygon fill="white" stroke="#666666" points="2784,-30 2626,-30 2626,0 2784,0 2784,-30"/>
<text text-anchor="start" x="2634" y="-18" font-family="Helvetica,sans-Serif" font-size="10.00">/home/runner/work/doxygen</text>
<text text-anchor="middle" x="2705" y="-7" font-family="Helvetica,sans-Serif" font-size="10.00">/doxygen/src/memberdef.cpp</text>
</a>
</g>
</g>
<!-- Node4&#45;&gt;Node24 -->
<g id="edge25_Node000004_Node000024" class="edge">
<title>Node4&#45;&gt;Node24</title>
<g id="a_edge25_Node000004_Node000024"><a xlink:title=" ">
<path fill="none" stroke="#63b8ff" d="M3075.58,-68.69C3000.77,-58.88 2890.22,-44.09 2794,-30 2790.75,-29.52 2787.43,-29.03 2784.09,-28.53"/>
<polygon fill="#63b8ff" stroke="#63b8ff" points="3075.53,-72.21 3085.9,-70.04 3076.44,-65.27 3075.53,-72.21"/>
</a>
</g>
</g>
<!-- Node25 -->
<g id="Node000025" class="node">
<title>Node25</title>
<g id="a_Node000025"><a xlink:href="../../d6/d18/membergroup_8cpp.html" target="_top" xlink:title=" ">
<polygon fill="white" stroke="#666666" points="2973.5,-30 2802.5,-30 2802.5,0 2973.5,0 2973.5,-30"/>
<text text-anchor="start" x="2810.5" y="-18" font-family="Helvetica,sans-Serif" font-size="10.00">/home/runner/work/doxygen</text>
<text text-anchor="middle" x="2888" y="-7" font-family="Helvetica,sans-Serif" font-size="10.00">/doxygen/src/membergroup.cpp</text>
</a>
</g>
</g>
<!-- Node4&#45;&gt;Node25 -->
<g id="edge26_Node000004_Node000025" class="edge">
<title>Node4&#45;&gt;Node25</title>
<g id="a_edge26_Node000004_Node000025"><a xlink:title=" ">
<path fill="none" stroke="#63b8ff" d="M3092.74,-63.65C3048.06,-53.25 2990.8,-39.93 2948.21,-30.01"/>
<polygon fill="#63b8ff" stroke="#63b8ff" points="3092.12,-67.1 3102.65,-65.95 3093.7,-60.28 3092.12,-67.1"/>
</a>
</g>
</g>
<!-- Node26 -->
<g id="Node000026" class="node">
<title>Node26</title>
<g id="a_Node000026"><a xlink:href="../../d0/d14/memberlist_8cpp.html" target="_top" xlink:title=" ">
<polygon fill="white" stroke="#666666" points="3150,-30 2992,-30 2992,0 3150,0 3150,-30"/>
<text text-anchor="start" x="3000" y="-18" font-family="Helvetica,sans-Serif" font-size="10.00">/home/runner/work/doxygen</text>
<text text-anchor="middle" x="3071" y="-7" font-family="Helvetica,sans-Serif" font-size="10.00">/doxygen/src/memberlist.cpp</text>
</a>
</g>
</g>
<!-- Node4&#45;&gt;Node26 -->
<g id="edge27_Node000004_Node000026" class="edge">
<title>Node4&#45;&gt;Node26</title>
<g id="a_edge27_Node000004_Node000026"><a xlink:title=" ">
<path fill="none" stroke="#63b8ff" d="M3134.29,-60.03C3120.37,-50.34 3103.97,-38.94 3091.36,-30.16"/>
<polygon fill="#63b8ff" stroke="#63b8ff" points="3132.37,-62.96 3142.58,-65.8 3136.37,-57.21 3132.37,-62.96"/>
</a>
</g>
</g>
<!-- Node27 -->
<g id="Node000027" class="node">
<title>Node27</title>
<g id="a_Node000027"><a xlink:href="../../d7/d1c/namespacedef_8cpp.html" target="_top" xlink:title=" ">
<polygon fill="white" stroke="#666666" points="3341.5,-30 3168.5,-30 3168.5,0 3341.5,0 3341.5,-30"/>
<text text-anchor="start" x="3176.5" y="-18" font-family="Helvetica,sans-Serif" font-size="10.00">/home/runner/work/doxygen</text>
<text text-anchor="middle" x="3255" y="-7" font-family="Helvetica,sans-Serif" font-size="10.00">/doxygen/src/namespacedef.cpp</text>
</a>
</g>
</g>
<!-- Node4&#45;&gt;Node27 -->
<g id="edge28_Node000004_Node000027" class="edge">
<title>Node4&#45;&gt;Node27</title>
<g id="a_edge28_Node000004_Node000027"><a xlink:title=" ">
<path fill="none" stroke="#63b8ff" d="M3191.71,-60.03C3205.63,-50.34 3222.03,-38.94 3234.64,-30.16"/>
<polygon fill="#63b8ff" stroke="#63b8ff" points="3189.63,-57.21 3183.42,-65.8 3193.63,-62.96 3189.63,-57.21"/>
</a>
</g>
</g>
<!-- Node28 -->
<g id="Node000028" class="node">
<title>Node28</title>
<g id="a_Node000028"><a xlink:href="../../db/dd8/outputlist_8cpp.html" target="_top" xlink:title=" ">
<polygon fill="white" stroke="#666666" points="3514,-30 3360,-30 3360,0 3514,0 3514,-30"/>
<text text-anchor="start" x="3368" y="-18" font-family="Helvetica,sans-Serif" font-size="10.00">/home/runner/work/doxygen</text>
<text text-anchor="middle" x="3437" y="-7" font-family="Helvetica,sans-Serif" font-size="10.00">/doxygen/src/outputlist.cpp</text>
</a>
</g>
</g>
<!-- Node4&#45;&gt;Node28 -->
<g id="edge29_Node000004_Node000028" class="edge">
<title>Node4&#45;&gt;Node28</title>
<g id="a_edge29_Node000004_Node000028"><a xlink:title=" ">
<path fill="none" stroke="#63b8ff" d="M3233.01,-63.65C3277.53,-53.25 3334.57,-39.93 3377.01,-30.01"/>
<polygon fill="#63b8ff" stroke="#63b8ff" points="3232.07,-60.27 3223.13,-65.95 3233.66,-67.09 3232.07,-60.27"/>
</a>
</g>
</g>
<!-- Node29 -->
<g id="Node000029" class="node">
<title>Node29</title>
<g id="a_Node000029"><a xlink:href="../../d9/db4/pagedef_8cpp.html" target="_top" xlink:title=" ">
<polygon fill="white" stroke="#666666" points="3686,-30 3532,-30 3532,0 3686,0 3686,-30"/>
<text text-anchor="start" x="3540" y="-18" font-family="Helvetica,sans-Serif" font-size="10.00">/home/runner/work/doxygen</text>
<text text-anchor="middle" x="3609" y="-7" font-family="Helvetica,sans-Serif" font-size="10.00">/doxygen/src/pagedef.cpp</text>
</a>
</g>
</g>
<!-- Node4&#45;&gt;Node29 -->
<g id="edge30_Node000004_Node000029" class="edge">
<title>Node4&#45;&gt;Node29</title>
<g id="a_edge30_Node000004_Node000029"><a xlink:title=" ">
<path fill="none" stroke="#63b8ff" d="M3250.39,-68.44C3323.34,-58.66 3430.04,-44.02 3523,-30 3525.84,-29.57 3528.74,-29.13 3531.66,-28.68"/>
<polygon fill="#63b8ff" stroke="#63b8ff" points="3249.77,-65 3240.32,-69.79 3250.7,-71.93 3249.77,-65"/>
</a>
</g>
</g>
<!-- Node30 -->
<g id="Node000030" class="node">
<title>Node30</title>
<g id="a_Node000030"><a xlink:href="../../d3/ded/pycode_8l.html" target="_top" xlink:title=" ">
<polygon fill="white" stroke="#666666" points="3858,-30 3704,-30 3704,0 3858,0 3858,-30"/>
<text text-anchor="start" x="3712" y="-18" font-family="Helvetica,sans-Serif" font-size="10.00">/home/runner/work/doxygen</text>
<text text-anchor="middle" x="3781" y="-7" font-family="Helvetica,sans-Serif" font-size="10.00">/doxygen/src/pycode.l</text>
</a>
</g>
</g>
<!-- Node4&#45;&gt;Node30 -->
<g id="edge31_Node000004_Node000030" class="edge">
<title>Node4&#45;&gt;Node30</title>
<g id="a_edge31_Node000004_Node000030"><a xlink:title=" ">
<path fill="none" stroke="#63b8ff" d="M3250.56,-73.6C3356.16,-65.45 3538.94,-50.01 3695,-30 3697.85,-29.63 3700.75,-29.25 3703.68,-28.84"/>
<polygon fill="#63b8ff" stroke="#63b8ff" points="3249.97,-70.13 3240.27,-74.39 3250.51,-77.11 3249.97,-70.13"/>
</a>
</g>
</g>
<!-- Node31 -->
<g id="Node000031" class="node">
<title>Node31</title>
<g id="a_Node000031"><a xlink:href="../../d0/d9c/rtfgen_8cpp.html" target="_top" xlink:title=" ">
<polygon fill="white" stroke="#666666" points="4030,-30 3876,-30 3876,0 4030,0 4030,-30"/>
<text text-anchor="start" x="3884" y="-18" font-family="Helvetica,sans-Serif" font-size="10.00">/home/runner/work/doxygen</text>
<text text-anchor="middle" x="3953" y="-7" font-family="Helvetica,sans-Serif" font-size="10.00">/doxygen/src/rtfgen.cpp</text>
</a>
</g>
</g>
<!-- Node4&#45;&gt;Node31 -->
<g id="edge32_Node000004_Node000031" class="edge">
<title>Node4&#45;&gt;Node31</title>
<g id="a_edge32_Node000004_Node000031"><a xlink:title=" ">
<path fill="none" stroke="#63b8ff" d="M3250.19,-76.35C3383.45,-70.19 3645.64,-55.83 3867,-30 3869.85,-29.67 3872.76,-29.31 3875.69,-28.92"/>
<polygon fill="#63b8ff" stroke="#63b8ff" points="3249.87,-72.86 3240.04,-76.81 3250.19,-79.85 3249.87,-72.86"/>
</a>
</g>
</g>
<!-- Node32 -->
<g id="Node000032" class="node">
<title>Node32</title>
<g id="a_Node000032"><a xlink:href="../../d2/dda/sqlcode_8l.html" target="_top" xlink:title=" ">
<polygon fill="white" stroke="#666666" points="4202,-30 4048,-30 4048,0 4202,0 4202,-30"/>
<text text-anchor="start" x="4056" y="-18" font-family="Helvetica,sans-Serif" font-size="10.00">/home/runner/work/doxygen</text>
<text text-anchor="middle" x="4125" y="-7" font-family="Helvetica,sans-Serif" font-size="10.00">/doxygen/src/sqlcode.l</text>
</a>
</g>
</g>
<!-- Node4&#45;&gt;Node32 -->
<g id="edge33_Node000004_Node000032" class="edge">
<title>Node4&#45;&gt;Node32</title>
<g id="a_edge33_Node000004_Node000032"><a xlink:title=" ">
<path fill="none" stroke="#63b8ff" d="M3250.4,-78.03C3408.28,-73.8 3751.36,-61.53 4039,-30 4041.86,-29.69 4044.76,-29.34 4047.7,-28.97"/>
<polygon fill="#63b8ff" stroke="#63b8ff" points="3250.17,-74.53 3240.27,-78.3 3250.36,-81.53 3250.17,-74.53"/>
</a>
</g>
</g>
<!-- Node33 -->
<g id="Node000033" class="node">
<title>Node33</title>
<g id="a_Node000033"><a xlink:href="../../d7/d56/tooltip_8cpp.html" target="_top" xlink:title=" ">
<polygon fill="white" stroke="#666666" points="4374,-30 4220,-30 4220,0 4374,0 4374,-30"/>
<text text-anchor="start" x="4228" y="-18" font-family="Helvetica,sans-Serif" font-size="10.00">/home/runner/work/doxygen</text>
<text text-anchor="middle" x="4297" y="-7" font-family="Helvetica,sans-Serif" font-size="10.00">/doxygen/src/tooltip.cpp</text>
</a>
</g>
</g>
<!-- Node4&#45;&gt;Node33 -->
<g id="edge34_Node000004_Node000033" class="edge">
<title>Node4&#45;&gt;Node33</title>
<g id="a_edge34_Node000004_Node000033"><a xlink:title=" ">
<path fill="none" stroke="#63b8ff" d="M3250.35,-79.18C3430.48,-76.76 3856.03,-67.24 4211,-30 4213.86,-29.7 4216.77,-29.37 4219.7,-29.01"/>
<polygon fill="#63b8ff" stroke="#63b8ff" points="3250.1,-75.69 3240.14,-79.32 3250.19,-82.69 3250.1,-75.69"/>
</a>
</g>
</g>
<!-- Node34 -->
<g id="Node000034" class="node">
<title>Node34</title>
<g id="a_Node000034"><a xlink:href="../../df/d2d/util_8cpp.html" target="_top" xlink:title=" ">
<polygon fill="white" stroke="#666666" points="4546,-30 4392,-30 4392,0 4546,0 4546,-30"/>
<text text-anchor="start" x="4400" y="-18" font-family="Helvetica,sans-Serif" font-size="10.00">/home/runner/work/doxygen</text>
<text text-anchor="middle" x="4469" y="-7" font-family="Helvetica,sans-Serif" font-size="10.00">/doxygen/src/util.cpp</text>
</a>
</g>
</g>
<!-- Node4&#45;&gt;Node34 -->
<g id="edge35_Node000004_Node000034" class="edge">
<title>Node4&#45;&gt;Node34</title>
<g id="a_edge35_Node000004_Node000034"><a xlink:title=" ">
<path fill="none" stroke="#63b8ff" d="M3250.5,-80.02C3451.23,-79.28 3960.12,-72.93 4383,-30 4385.86,-29.71 4388.77,-29.39 4391.7,-29.03"/>
<polygon fill="#63b8ff" stroke="#63b8ff" points="3250.3,-76.52 3240.31,-80.06 3250.32,-83.52 3250.3,-76.52"/>
</a>
</g>
</g>
<!-- Node35 -->
<g id="Node000035" class="node">
<title>Node35</title>
<g id="a_Node000035"><a xlink:href="../../d5/d6a/vhdlcode_8l.html" target="_top" xlink:title=" ">
<polygon fill="white" stroke="#666666" points="4718,-30 4564,-30 4564,0 4718,0 4718,-30"/>
<text text-anchor="start" x="4572" y="-18" font-family="Helvetica,sans-Serif" font-size="10.00">/home/runner/work/doxygen</text>
<text text-anchor="middle" x="4641" y="-7" font-family="Helvetica,sans-Serif" font-size="10.00">/doxygen/src/vhdlcode.l</text>
</a>
</g>
</g>
<!-- Node4&#45;&gt;Node35 -->
<g id="edge36_Node000004_Node000035" class="edge">
<title>Node4&#45;&gt;Node35</title>
<g id="a_edge36_Node000004_Node000035"><a xlink:title=" ">
<path fill="none" stroke="#63b8ff" d="M3250.37,-80.66C3470.13,-81.49 4063.46,-78.64 4555,-30 4557.86,-29.72 4560.77,-29.4 4563.7,-29.05"/>
<polygon fill="#63b8ff" stroke="#63b8ff" points="3250.2,-77.16 3240.19,-80.62 3250.17,-84.16 3250.2,-77.16"/>
</a>
</g>
</g>
<!-- Node36 -->
<g id="Node000036" class="node">
<title>Node36</title>
<g id="a_Node000036"><a xlink:href="../../de/dea/vhdldocgen_8cpp.html" target="_top" xlink:title=" ">
<polygon fill="white" stroke="#666666" points="4894,-30 4736,-30 4736,0 4894,0 4894,-30"/>
<text text-anchor="start" x="4744" y="-18" font-family="Helvetica,sans-Serif" font-size="10.00">/home/runner/work/doxygen</text>
<text text-anchor="middle" x="4815" y="-7" font-family="Helvetica,sans-Serif" font-size="10.00">/doxygen/src/vhdldocgen.cpp</text>
</a>
</g>
</g>
<!-- Node4&#45;&gt;Node36 -->
<g id="edge37_Node000004_Node000036" class="edge">
<title>Node4&#45;&gt;Node36</title>
<g id="a_edge37_Node000004_Node000036"><a xlink:title=" ">
<path fill="none" stroke="#63b8ff" d="M3250.7,-78.65C3536.19,-74.03 4437.15,-57.58 4727,-30 4729.93,-29.72 4732.9,-29.41 4735.91,-29.06"/>
<polygon fill="#63b8ff" stroke="#63b8ff" points="3250.35,-75.16 3240.4,-78.82 3250.46,-82.15 3250.35,-75.16"/>
</a>
</g>
</g>
<!-- Node37 -->
<g id="Node000037" class="node">
<title>Node37</title>
<g id="a_Node000037"><a xlink:href="../../d1/d86/vhdljjparser_8cpp.html" target="_top" xlink:title=" ">
<polygon fill="white" stroke="#666666" points="5070.5,-30 4911.5,-30 4911.5,0 5070.5,0 5070.5,-30"/>
<text text-anchor="start" x="4919.5" y="-18" font-family="Helvetica,sans-Serif" font-size="10.00">/home/runner/work/doxygen</text>
<text text-anchor="middle" x="4991" y="-7" font-family="Helvetica,sans-Serif" font-size="10.00">/doxygen/src/vhdljjparser.cpp</text>
</a>
</g>
</g>
<!-- Node4&#45;&gt;Node37 -->
<g id="edge38_Node000004_Node000037" class="edge">
<title>Node4&#45;&gt;Node37</title>
<g id="a_edge38_Node000004_Node000037"><a xlink:title=" ">
<path fill="none" stroke="#63b8ff" d="M3250.27,-78.98C3555.89,-75.19 4576.94,-60.49 4903,-30 4905.77,-29.74 4908.59,-29.45 4911.43,-29.13"/>
<polygon fill="#63b8ff" stroke="#63b8ff" points="3250.09,-75.49 3240.14,-79.11 3250.18,-82.49 3250.09,-75.49"/>
</a>
</g>
</g>
<!-- Node38 -->
<g id="Node000038" class="node">
<title>Node38</title>
<g id="a_Node000038"><a xlink:href="../../dc/dc1/xmlcode_8l.html" target="_top" xlink:title=" ">
<polygon fill="white" stroke="#666666" points="5243,-30 5089,-30 5089,0 5243,0 5243,-30"/>
<text text-anchor="start" x="5097" y="-18" font-family="Helvetica,sans-Serif" font-size="10.00">/home/runner/work/doxygen</text>
<text text-anchor="middle" x="5166" y="-7" font-family="Helvetica,sans-Serif" font-size="10.00">/doxygen/src/xmlcode.l</text>
</a>
</g>
</g>
<!-- Node4&#45;&gt;Node38 -->
<g id="edge39_Node000004_Node000038" class="edge">
<title>Node4&#45;&gt;Node38</title>
<g id="a_edge39_Node000004_Node000038"><a xlink:title=" ">
<path fill="none" stroke="#63b8ff" d="M3250.48,-79.29C3576.08,-76.41 4717.67,-64.06 5080,-30 5082.86,-29.73 5085.77,-29.42 5088.71,-29.09"/>
<polygon fill="#63b8ff" stroke="#63b8ff" points="3250.13,-75.79 3240.16,-79.38 3250.19,-82.79 3250.13,-75.79"/>
</a>
</g>
</g>
<!-- Node39 -->
<g id="Node000039" class="node">
<title>Node39</title>
<g id="a_Node000039"><a xlink:href="../../d0/dc3/xmlgen_8cpp.html" target="_top" xlink:title=" ">
<polygon fill="white" stroke="#666666" points="5415,-30 5261,-30 5261,0 5415,0 5415,-30"/>
<text text-anchor="start" x="5269" y="-18" font-family="Helvetica,sans-Serif" font-size="10.00">/home/runner/work/doxygen</text>
<text text-anchor="middle" x="5338" y="-7" font-family="Helvetica,sans-Serif" font-size="10.00">/doxygen/src/xmlgen.cpp</text>
</a>
</g>
</g>
<!-- Node4&#45;&gt;Node39 -->
<g id="edge40_Node000004_Node000039" class="edge">
<title>Node4&#45;&gt;Node39</title>
<g id="a_edge40_Node000004_Node000039"><a xlink:title=" ">
<path fill="none" stroke="#63b8ff" d="M3250.17,-79.51C3593.64,-77.34 4854.05,-66.98 5252,-30 5254.86,-29.73 5257.77,-29.43 5260.71,-29.1"/>
<polygon fill="#63b8ff" stroke="#63b8ff" points="3250.01,-76.01 3240.03,-79.58 3250.06,-83.01 3250.01,-76.01"/>
</a>
</g>
</g>
</g>
</svg>
