<?xml version="1.0" encoding="UTF-8" standalone="no"?>
<!DOCTYPE svg PUBLIC "-//W3C//DTD SVG 1.1//EN"
 "http://www.w3.org/Graphics/SVG/1.1/DTD/svg11.dtd">
<!-- Generated by graphviz version 2.43.0 (0)
 -->
<!-- Title: /home/runner/work/doxygen/doxygen/src/indexlist.h Pages: 1 -->
<!--zoomable 258 -->

<svg id="main" version="1.1" xmlns="http://www.w3.org/2000/svg" xmlns:xlink="http://www.w3.org/1999/xlink" xml:space="preserve" onload="init(evt)">
<style type="text/css"><![CDATA[
.node, .edge {opacity: 0.7;}
.node.selected, .edge.selected {opacity: 1;}
.edge:hover path { stroke: red; }
.edge:hover polygon { stroke: red; fill: red; }
]]></style>

<defs>
  <circle id="rim" cx="0" cy="0" r="7"/>
  <circle id="rim2" cx="0" cy="0" r="3.5"/>
  <g id="zoomPlus">
    <use xlink:href="#rim" fill="#404040"><set attributeName="fill" to="#808080" begin="zoomplus.mouseover" end="zoomplus.mouseout"/></use>
    <path d="M-4,0h8M0,-4v8" fill="none" stroke="white" stroke-width="1.5" pointer-events="none"/>
  </g>
  <g id="zoomMin">
    <use xlink:href="#rim" fill="#404040"><set attributeName="fill" to="#808080" begin="zoomminus.mouseover" end="zoomminus.mouseout"/></use>
    <path d="M-4,0h8" fill="none" stroke="white" stroke-width="1.5" pointer-events="none"/>
  </g>
  <g id="dirArrow">
    <path fill="none" stroke="white" stroke-width="1.5" d="M0,-3.0v7 M-2.5,-0.5L0,-3.0L2.5,-0.5"/>
  </g>
 <g id="resetDef">
    <use xlink:href="#rim2" fill="#404040"><set attributeName="fill" to="#808080" begin="reset.mouseover" end="reset.mouseout"/></use>
 </g>
</defs>
<script type="text/javascript">
var viewWidth = 857;
var viewHeight = 258;
var sectionId = 'dynsection-0';
</script>
<script xlink:href="../../svg.min.js"/>
<svg id="graph" class="graph">
<g id="viewport">
<title>/home/runner/work/doxygen/doxygen/src/indexlist.h</title>
<!-- Node1 -->
<g id="Node000001" class="node">
<title>Node1</title>
<g id="a_Node000001"><a xlink:title=" ">
<polygon fill="#999999" stroke="#666666" points="448.5,-250 294.5,-250 294.5,-220 448.5,-220 448.5,-250"/>
<text text-anchor="start" x="302.5" y="-238" font-family="Helvetica,sans-Serif" font-size="10.00">/home/runner/work/doxygen</text>
<text text-anchor="middle" x="371.5" y="-227" font-family="Helvetica,sans-Serif" font-size="10.00">/doxygen/src/indexlist.h</text>
</a>
</g>
</g>
<!-- Node2 -->
<g id="Node000002" class="node">
<title>Node2</title>
<g id="a_Node000002"><a xlink:title=" ">
<polygon fill="#e0e0e0" stroke="#999999" points="45,-129 0,-129 0,-110 45,-110 45,-129"/>
<text text-anchor="middle" x="22.5" y="-117" font-family="Helvetica,sans-Serif" font-size="10.00">utility</text>
</a>
</g>
</g>
<!-- Node1&#45;&gt;Node2 -->
<g id="edge1_Node000001_Node000002" class="edge">
<title>Node1&#45;&gt;Node2</title>
<g id="a_edge1_Node000001_Node000002"><a xlink:title=" ">
<path fill="none" stroke="#63b8ff" d="M294.3,-231.19C236.74,-226.51 157.51,-214.49 94.5,-184 71.17,-172.71 49.62,-151.71 36.29,-136.96"/>
<polygon fill="#63b8ff" stroke="#63b8ff" points="38.66,-134.35 29.45,-129.12 33.39,-138.95 38.66,-134.35"/>
</a>
</g>
</g>
<!-- Node3 -->
<g id="Node000003" class="node">
<title>Node3</title>
<g id="a_Node000003"><a xlink:title=" ">
<polygon fill="#e0e0e0" stroke="#999999" points="420,-129 373,-129 373,-110 420,-110 420,-129"/>
<text text-anchor="middle" x="396.5" y="-117" font-family="Helvetica,sans-Serif" font-size="10.00">vector</text>
</a>
</g>
</g>
<!-- Node1&#45;&gt;Node3 -->
<g id="edge2_Node000001_Node000003" class="edge">
<title>Node1&#45;&gt;Node3</title>
<g id="a_edge2_Node000001_Node000003"><a xlink:title=" ">
<path fill="none" stroke="#63b8ff" d="M296.85,-220C258.42,-209.3 223.42,-191.75 243.5,-165 247.18,-160.1 319.07,-140.66 362.98,-129.16"/>
<polygon fill="#63b8ff" stroke="#63b8ff" points="363.89,-132.54 372.68,-126.63 362.12,-125.77 363.89,-132.54"/>
</a>
</g>
</g>
<!-- Node4 -->
<g id="Node000004" class="node">
<title>Node4</title>
<g id="a_Node000004"><a xlink:title=" ">
<polygon fill="#e0e0e0" stroke="#999999" points="497.5,-129 439.5,-129 439.5,-110 497.5,-110 497.5,-129"/>
<text text-anchor="middle" x="468.5" y="-117" font-family="Helvetica,sans-Serif" font-size="10.00">memory</text>
</a>
</g>
</g>
<!-- Node1&#45;&gt;Node4 -->
<g id="edge3_Node000001_Node000004" class="edge">
<title>Node1&#45;&gt;Node4</title>
<g id="a_edge3_Node000001_Node000004"><a xlink:title=" ">
<path fill="none" stroke="#63b8ff" d="M363.52,-219.81C356.33,-204.93 348.45,-181.45 359.5,-165 367.77,-152.68 401.72,-140.03 429.55,-131.38"/>
<polygon fill="#63b8ff" stroke="#63b8ff" points="430.91,-134.62 439.47,-128.38 428.89,-127.92 430.91,-134.62"/>
</a>
</g>
</g>
<!-- Node5 -->
<g id="Node000005" class="node">
<title>Node5</title>
<g id="a_Node000005"><a xlink:title=" ">
<polygon fill="#e0e0e0" stroke="#999999" points="785.5,-184 737.5,-184 737.5,-165 785.5,-165 785.5,-184"/>
<text text-anchor="middle" x="761.5" y="-172" font-family="Helvetica,sans-Serif" font-size="10.00">mutex</text>
</a>
</g>
</g>
<!-- Node1&#45;&gt;Node5 -->
<g id="edge4_Node000001_Node000005" class="edge">
<title>Node1&#45;&gt;Node5</title>
<g id="a_edge4_Node000001_Node000005"><a xlink:title=" ">
<path fill="none" stroke="#63b8ff" d="M448.69,-224.82C520.2,-215.89 629.38,-201.18 723.5,-184 724.77,-183.77 726.07,-183.52 727.37,-183.27"/>
<polygon fill="#63b8ff" stroke="#63b8ff" points="728.35,-186.64 737.44,-181.18 726.93,-179.78 728.35,-186.64"/>
</a>
</g>
</g>
<!-- Node6 -->
<g id="Node000006" class="node">
<title>Node6</title>
<g id="a_Node000006"><a xlink:title=" ">
<polygon fill="#e0e0e0" stroke="#999999" points="114,-129 63,-129 63,-110 114,-110 114,-129"/>
<text text-anchor="middle" x="88.5" y="-117" font-family="Helvetica,sans-Serif" font-size="10.00">variant</text>
</a>
</g>
</g>
<!-- Node1&#45;&gt;Node6 -->
<g id="edge5_Node000001_Node000006" class="edge">
<title>Node1&#45;&gt;Node6</title>
<g id="a_edge5_Node000001_Node000006"><a xlink:title=" ">
<path fill="none" stroke="#63b8ff" d="M294.35,-227.56C227.9,-220.54 138.55,-207.09 111.5,-184 98.55,-172.95 92.89,-154.01 90.42,-139.68"/>
<polygon fill="#63b8ff" stroke="#63b8ff" points="93.84,-138.86 89.04,-129.42 86.9,-139.8 93.84,-138.86"/>
</a>
</g>
</g>
<!-- Node7 -->
<g id="Node000007" class="node">
<title>Node7</title>
<g id="a_Node000007"><a xlink:href="../../d7/d5c/qcstring_8h.html" target="_top" xlink:title=" ">
<polygon fill="white" stroke="#666666" points="582,-129 517,-129 517,-110 582,-110 582,-129"/>
<text text-anchor="middle" x="549.5" y="-117" font-family="Helvetica,sans-Serif" font-size="10.00">qcstring.h</text>
</a>
</g>
</g>
<!-- Node1&#45;&gt;Node7 -->
<g id="edge6_Node000001_Node000007" class="edge">
<title>Node1&#45;&gt;Node7</title>
<g id="a_edge6_Node000001_Node000007"><a xlink:title=" ">
<path fill="none" stroke="#63b8ff" d="M448.57,-233C532.83,-230.07 659.98,-219.68 690.5,-184 721.01,-148.33 644.08,-131.76 592.23,-124.84"/>
<polygon fill="#63b8ff" stroke="#63b8ff" points="592.59,-121.36 582.23,-123.59 591.72,-128.31 592.59,-121.36"/>
</a>
</g>
</g>
<!-- Node17 -->
<g id="Node000017" class="node">
<title>Node17</title>
<g id="a_Node000017"><a xlink:href="../../da/d73/dispatcher_8h.html" target="_top" xlink:title=" ">
<polygon fill="white" stroke="#666666" points="196.5,-184 120.5,-184 120.5,-165 196.5,-165 196.5,-184"/>
<text text-anchor="middle" x="158.5" y="-172" font-family="Helvetica,sans-Serif" font-size="10.00">dispatcher.h</text>
</a>
</g>
</g>
<!-- Node1&#45;&gt;Node17 -->
<g id="edge18_Node000001_Node000017" class="edge">
<title>Node1&#45;&gt;Node17</title>
<g id="a_edge18_Node000001_Node000017"><a xlink:title=" ">
<path fill="none" stroke="#63b8ff" d="M320.48,-219.99C283.4,-209.8 233.88,-196.2 199.39,-186.73"/>
<polygon fill="#63b8ff" stroke="#63b8ff" points="200.21,-183.33 189.64,-184.05 198.36,-190.08 200.21,-183.33"/>
</a>
</g>
</g>
<!-- Node21 -->
<g id="Node000021" class="node">
<title>Node21</title>
<g id="a_Node000021"><a xlink:href="../../d1/db2/docsets_8h.html" target="_top" xlink:title=" ">
<polygon fill="white" stroke="#666666" points="582,-184 519,-184 519,-165 582,-165 582,-184"/>
<text text-anchor="middle" x="550.5" y="-172" font-family="Helvetica,sans-Serif" font-size="10.00">docsets.h</text>
</a>
</g>
</g>
<!-- Node1&#45;&gt;Node21 -->
<g id="edge24_Node000001_Node000021" class="edge">
<title>Node1&#45;&gt;Node21</title>
<g id="a_edge24_Node000001_Node000021"><a xlink:title=" ">
<path fill="none" stroke="#63b8ff" d="M414.37,-219.99C445,-209.98 485.73,-196.67 514.63,-187.22"/>
<polygon fill="#63b8ff" stroke="#63b8ff" points="515.91,-190.49 524.33,-184.05 513.73,-183.83 515.91,-190.49"/>
</a>
</g>
</g>
<!-- Node22 -->
<g id="Node000022" class="node">
<title>Node22</title>
<g id="a_Node000022"><a xlink:href="../../db/d9e/eclipsehelp_8h.html" target="_top" xlink:title=" ">
<polygon fill="white" stroke="#666666" points="681,-184 600,-184 600,-165 681,-165 681,-184"/>
<text text-anchor="middle" x="640.5" y="-172" font-family="Helvetica,sans-Serif" font-size="10.00">eclipsehelp.h</text>
</a>
</g>
</g>
<!-- Node1&#45;&gt;Node22 -->
<g id="edge27_Node000001_Node000022" class="edge">
<title>Node1&#45;&gt;Node22</title>
<g id="a_edge27_Node000001_Node000022"><a xlink:title=" ">
<path fill="none" stroke="#63b8ff" d="M435.93,-219.99C483.66,-209.61 547.73,-195.68 591.36,-186.19"/>
<polygon fill="#63b8ff" stroke="#63b8ff" points="592.14,-189.6 601.17,-184.05 590.65,-182.76 592.14,-189.6"/>
</a>
</g>
</g>
<!-- Node23 -->
<g id="Node000023" class="node">
<title>Node23</title>
<g id="a_Node000023"><a xlink:href="../../d2/d4a/ftvhelp_8h.html" target="_top" xlink:title=" ">
<polygon fill="white" stroke="#666666" points="312,-184 253,-184 253,-165 312,-165 312,-184"/>
<text text-anchor="middle" x="282.5" y="-172" font-family="Helvetica,sans-Serif" font-size="10.00">ftvhelp.h</text>
</a>
</g>
</g>
<!-- Node1&#45;&gt;Node23 -->
<g id="edge30_Node000001_Node000023" class="edge">
<title>Node1&#45;&gt;Node23</title>
<g id="a_edge30_Node000001_Node000023"><a xlink:title=" ">
<path fill="none" stroke="#63b8ff" d="M349.96,-219.84C336.03,-210.68 317.97,-198.82 304.05,-189.66"/>
<polygon fill="#63b8ff" stroke="#63b8ff" points="305.85,-186.66 295.58,-184.09 302.01,-192.51 305.85,-186.66"/>
</a>
</g>
</g>
<!-- Node24 -->
<g id="Node000024" class="node">
<title>Node24</title>
<g id="a_Node000024"><a xlink:href="../../d8/dc3/htmlhelp_8h.html" target="_top" xlink:title=" ">
<polygon fill="white" stroke="#666666" points="438,-184 369,-184 369,-165 438,-165 438,-184"/>
<text text-anchor="middle" x="403.5" y="-172" font-family="Helvetica,sans-Serif" font-size="10.00">htmlhelp.h</text>
</a>
</g>
</g>
<!-- Node1&#45;&gt;Node24 -->
<g id="edge34_Node000001_Node000024" class="edge">
<title>Node1&#45;&gt;Node24</title>
<g id="a_edge34_Node000001_Node000024"><a xlink:title=" ">
<path fill="none" stroke="#63b8ff" d="M379.25,-219.84C383.65,-211.78 389.21,-201.62 393.9,-193.06"/>
<polygon fill="#63b8ff" stroke="#63b8ff" points="396.98,-194.72 398.7,-184.27 390.84,-191.36 396.98,-194.72"/>
</a>
</g>
</g>
<!-- Node25 -->
<g id="Node000025" class="node">
<title>Node25</title>
<g id="a_Node000025"><a xlink:href="../../dc/d20/qhp_8h.html" target="_top" xlink:title=" ">
<polygon fill="white" stroke="#666666" points="500.5,-184 456.5,-184 456.5,-165 500.5,-165 500.5,-184"/>
<text text-anchor="middle" x="478.5" y="-172" font-family="Helvetica,sans-Serif" font-size="10.00">qhp.h</text>
</a>
</g>
</g>
<!-- Node1&#45;&gt;Node25 -->
<g id="edge37_Node000001_Node000025" class="edge">
<title>Node1&#45;&gt;Node25</title>
<g id="a_edge37_Node000001_Node000025"><a xlink:title=" ">
<path fill="none" stroke="#63b8ff" d="M397.13,-219.99C414.34,-210.58 436.9,-198.24 453.9,-188.95"/>
<polygon fill="#63b8ff" stroke="#63b8ff" points="455.6,-192.01 462.7,-184.14 452.25,-185.87 455.6,-192.01"/>
</a>
</g>
</g>
<!-- Node8 -->
<g id="Node000008" class="node">
<title>Node8</title>
<g id="a_Node000008"><a xlink:title=" ">
<polygon fill="#e0e0e0" stroke="#999999" points="352.5,-19 308.5,-19 308.5,0 352.5,0 352.5,-19"/>
<text text-anchor="middle" x="330.5" y="-7" font-family="Helvetica,sans-Serif" font-size="10.00">string</text>
</a>
</g>
</g>
<!-- Node7&#45;&gt;Node8 -->
<g id="edge7_Node000007_Node000008" class="edge">
<title>Node7&#45;&gt;Node8</title>
<g id="a_edge7_Node000007_Node000008"><a xlink:title=" ">
<path fill="none" stroke="#63b8ff" d="M517,-112C456.41,-99.86 332.25,-74.9 331.5,-74 321.28,-61.68 322.33,-42.91 325.15,-28.97"/>
<polygon fill="#63b8ff" stroke="#63b8ff" points="328.61,-29.59 327.62,-19.04 321.81,-27.9 328.61,-29.59"/>
</a>
</g>
</g>
<!-- Node9 -->
<g id="Node000009" class="node">
<title>Node9</title>
<g id="a_Node000009"><a xlink:title=" ">
<polygon fill="#e0e0e0" stroke="#999999" points="506.5,-74 442.5,-74 442.5,-55 506.5,-55 506.5,-74"/>
<text text-anchor="middle" x="474.5" y="-62" font-family="Helvetica,sans-Serif" font-size="10.00">algorithm</text>
</a>
</g>
</g>
<!-- Node7&#45;&gt;Node9 -->
<g id="edge8_Node000007_Node000009" class="edge">
<title>Node7&#45;&gt;Node9</title>
<g id="a_edge8_Node000007_Node000009"><a xlink:title=" ">
<path fill="none" stroke="#63b8ff" d="M537.45,-109.98C526.04,-101.92 508.67,-89.65 495.07,-80.03"/>
<polygon fill="#63b8ff" stroke="#63b8ff" points="496.96,-77.08 486.77,-74.17 492.92,-82.8 496.96,-77.08"/>
</a>
</g>
</g>
<!-- Node10 -->
<g id="Node000010" class="node">
<title>Node10</title>
<g id="a_Node000010"><a xlink:title=" ">
<polygon fill="#e0e0e0" stroke="#999999" points="574,-74 525,-74 525,-55 574,-55 574,-74"/>
<text text-anchor="middle" x="549.5" y="-62" font-family="Helvetica,sans-Serif" font-size="10.00">cctype</text>
</a>
</g>
</g>
<!-- Node7&#45;&gt;Node10 -->
<g id="edge9_Node000007_Node000010" class="edge">
<title>Node7&#45;&gt;Node10</title>
<g id="a_edge9_Node000007_Node000010"><a xlink:title=" ">
<path fill="none" stroke="#63b8ff" d="M549.5,-109.75C549.5,-102.8 549.5,-92.85 549.5,-84.13"/>
<polygon fill="#63b8ff" stroke="#63b8ff" points="553,-84.09 549.5,-74.09 546,-84.09 553,-84.09"/>
</a>
</g>
</g>
<!-- Node11 -->
<g id="Node000011" class="node">
<title>Node11</title>
<g id="a_Node000011"><a xlink:title=" ">
<polygon fill="#e0e0e0" stroke="#999999" points="642.5,-74 592.5,-74 592.5,-55 642.5,-55 642.5,-74"/>
<text text-anchor="middle" x="617.5" y="-62" font-family="Helvetica,sans-Serif" font-size="10.00">cstring</text>
</a>
</g>
</g>
<!-- Node7&#45;&gt;Node11 -->
<g id="edge10_Node000007_Node000011" class="edge">
<title>Node7&#45;&gt;Node11</title>
<g id="a_edge10_Node000007_Node000011"><a xlink:title=" ">
<path fill="none" stroke="#63b8ff" d="M560.43,-109.98C570.58,-102.07 585.92,-90.11 598.15,-80.58"/>
<polygon fill="#63b8ff" stroke="#63b8ff" points="600.64,-83.08 606.38,-74.17 596.34,-77.56 600.64,-83.08"/>
</a>
</g>
</g>
<!-- Node12 -->
<g id="Node000012" class="node">
<title>Node12</title>
<g id="a_Node000012"><a xlink:title=" ">
<polygon fill="#e0e0e0" stroke="#999999" points="706.5,-74 660.5,-74 660.5,-55 706.5,-55 706.5,-74"/>
<text text-anchor="middle" x="683.5" y="-62" font-family="Helvetica,sans-Serif" font-size="10.00">cstdio</text>
</a>
</g>
</g>
<!-- Node7&#45;&gt;Node12 -->
<g id="edge11_Node000007_Node000012" class="edge">
<title>Node7&#45;&gt;Node12</title>
<g id="a_edge11_Node000007_Node000012"><a xlink:title=" ">
<path fill="none" stroke="#63b8ff" d="M571.03,-109.98C592.97,-101.3 627.24,-87.75 652.19,-77.88"/>
<polygon fill="#63b8ff" stroke="#63b8ff" points="653.57,-81.1 661.58,-74.17 650.99,-74.59 653.57,-81.1"/>
</a>
</g>
</g>
<!-- Node13 -->
<g id="Node000013" class="node">
<title>Node13</title>
<g id="a_Node000013"><a xlink:title=" ">
<polygon fill="#e0e0e0" stroke="#999999" points="774,-74 725,-74 725,-55 774,-55 774,-74"/>
<text text-anchor="middle" x="749.5" y="-62" font-family="Helvetica,sans-Serif" font-size="10.00">cstdlib</text>
</a>
</g>
</g>
<!-- Node7&#45;&gt;Node13 -->
<g id="edge12_Node000007_Node000013" class="edge">
<title>Node7&#45;&gt;Node13</title>
<g id="a_edge12_Node000007_Node000013"><a xlink:title=" ">
<path fill="none" stroke="#63b8ff" d="M581.63,-109.98C618.07,-100.33 677.27,-84.64 714.75,-74.71"/>
<polygon fill="#63b8ff" stroke="#63b8ff" points="715.94,-78.01 724.71,-72.07 714.15,-71.25 715.94,-78.01"/>
</a>
</g>
</g>
<!-- Node14 -->
<g id="Node000014" class="node">
<title>Node14</title>
<g id="a_Node000014"><a xlink:title=" ">
<polygon fill="#e0e0e0" stroke="#999999" points="429.5,-19 379.5,-19 379.5,0 429.5,0 429.5,-19"/>
<text text-anchor="middle" x="404.5" y="-7" font-family="Helvetica,sans-Serif" font-size="10.00">cstdint</text>
</a>
</g>
</g>
<!-- Node7&#45;&gt;Node14 -->
<g id="edge13_Node000007_Node000014" class="edge">
<title>Node7&#45;&gt;Node14</title>
<g id="a_edge13_Node000007_Node000014"><a xlink:title=" ">
<path fill="none" stroke="#63b8ff" d="M520.04,-110C490.1,-100.88 446.35,-86.08 433.5,-74 420.68,-61.95 413.07,-43.14 408.89,-29.12"/>
<polygon fill="#63b8ff" stroke="#63b8ff" points="412.18,-27.89 406.24,-19.12 405.42,-29.68 412.18,-27.89"/>
</a>
</g>
</g>
<!-- Node15 -->
<g id="Node000015" class="node">
<title>Node15</title>
<g id="a_Node000015"><a xlink:title=" ">
<polygon fill="#e0e0e0" stroke="#999999" points="849,-74 792,-74 792,-55 849,-55 849,-74"/>
<text text-anchor="middle" x="820.5" y="-62" font-family="Helvetica,sans-Serif" font-size="10.00">ostream</text>
</a>
</g>
</g>
<!-- Node7&#45;&gt;Node15 -->
<g id="edge14_Node000007_Node000015" class="edge">
<title>Node7&#45;&gt;Node15</title>
<g id="a_edge14_Node000007_Node000015"><a xlink:title=" ">
<path fill="none" stroke="#63b8ff" d="M582.13,-112.7C625.57,-104.89 705,-90.29 781.98,-74.26"/>
<polygon fill="#63b8ff" stroke="#63b8ff" points="782.77,-77.67 791.84,-72.2 781.34,-70.82 782.77,-77.67"/>
</a>
</g>
</g>
<!-- Node16 -->
<g id="Node000016" class="node">
<title>Node16</title>
<g id="a_Node000016"><a xlink:href="../../db/d7c/utf8_8h.html" target="_top" xlink:title="Various UTF8 related helper functions.">
<polygon fill="white" stroke="#666666" points="386,-74 341,-74 341,-55 386,-55 386,-74"/>
<text text-anchor="middle" x="363.5" y="-62" font-family="Helvetica,sans-Serif" font-size="10.00">utf8.h</text>
</a>
</g>
</g>
<!-- Node7&#45;&gt;Node16 -->
<g id="edge15_Node000007_Node000016" class="edge">
<title>Node7&#45;&gt;Node16</title>
<g id="a_edge15_Node000007_Node000016"><a xlink:title=" ">
<path fill="none" stroke="#63b8ff" d="M519.62,-109.98C485.78,-100.34 430.84,-84.69 395.98,-74.75"/>
<polygon fill="#63b8ff" stroke="#63b8ff" points="396.85,-71.36 386.28,-71.99 394.93,-78.1 396.85,-71.36"/>
</a>
</g>
</g>
<!-- Node16&#45;&gt;Node8 -->
<g id="edge17_Node000016_Node000008" class="edge">
<title>Node16&#45;&gt;Node8</title>
<g id="a_edge17_Node000016_Node000008"><a xlink:title=" ">
<path fill="none" stroke="#63b8ff" d="M358.05,-54.75C353.49,-47.42 346.83,-36.73 341.21,-27.7"/>
<polygon fill="#63b8ff" stroke="#63b8ff" points="344.1,-25.73 335.85,-19.09 338.16,-29.43 344.1,-25.73"/>
</a>
</g>
</g>
<!-- Node16&#45;&gt;Node14 -->
<g id="edge16_Node000016_Node000014" class="edge">
<title>Node16&#45;&gt;Node14</title>
<g id="a_edge16_Node000016_Node000014"><a xlink:title=" ">
<path fill="none" stroke="#63b8ff" d="M370.27,-54.75C376.06,-47.26 384.56,-36.28 391.64,-27.13"/>
<polygon fill="#63b8ff" stroke="#63b8ff" points="394.51,-29.14 397.86,-19.09 388.97,-24.86 394.51,-29.14"/>
</a>
</g>
</g>
<!-- Node17&#45;&gt;Node2 -->
<g id="edge20_Node000017_Node000002" class="edge">
<title>Node17&#45;&gt;Node2</title>
<g id="a_edge20_Node000017_Node000002"><a xlink:title=" ">
<path fill="none" stroke="#63b8ff" d="M136.65,-164.98C114.38,-156.3 79.6,-142.75 54.28,-132.88"/>
<polygon fill="#63b8ff" stroke="#63b8ff" points="55.34,-129.54 44.75,-129.17 52.79,-136.06 55.34,-129.54"/>
</a>
</g>
</g>
<!-- Node17&#45;&gt;Node6 -->
<g id="edge22_Node000017_Node000006" class="edge">
<title>Node17&#45;&gt;Node6</title>
<g id="a_edge22_Node000017_Node000006"><a xlink:title=" ">
<path fill="none" stroke="#63b8ff" d="M147.25,-164.98C136.7,-157 120.7,-144.88 108.06,-135.31"/>
<polygon fill="#63b8ff" stroke="#63b8ff" points="110.04,-132.42 99.95,-129.17 105.81,-138 110.04,-132.42"/>
</a>
</g>
</g>
<!-- Node18 -->
<g id="Node000018" class="node">
<title>Node18</title>
<g id="a_Node000018"><a xlink:title=" ">
<polygon fill="#e0e0e0" stroke="#999999" points="185,-129 132,-129 132,-110 185,-110 185,-129"/>
<text text-anchor="middle" x="158.5" y="-117" font-family="Helvetica,sans-Serif" font-size="10.00">cstddef</text>
</a>
</g>
</g>
<!-- Node17&#45;&gt;Node18 -->
<g id="edge19_Node000017_Node000018" class="edge">
<title>Node17&#45;&gt;Node18</title>
<g id="a_edge19_Node000017_Node000018"><a xlink:title=" ">
<path fill="none" stroke="#63b8ff" d="M158.5,-164.75C158.5,-157.8 158.5,-147.85 158.5,-139.13"/>
<polygon fill="#63b8ff" stroke="#63b8ff" points="162,-139.09 158.5,-129.09 155,-139.09 162,-139.09"/>
</a>
</g>
</g>
<!-- Node19 -->
<g id="Node000019" class="node">
<title>Node19</title>
<g id="a_Node000019"><a xlink:title=" ">
<polygon fill="#e0e0e0" stroke="#999999" points="268,-129 203,-129 203,-110 268,-110 268,-129"/>
<text text-anchor="middle" x="235.5" y="-117" font-family="Helvetica,sans-Serif" font-size="10.00">functional</text>
</a>
</g>
</g>
<!-- Node17&#45;&gt;Node19 -->
<g id="edge21_Node000017_Node000019" class="edge">
<title>Node17&#45;&gt;Node19</title>
<g id="a_edge21_Node000017_Node000019"><a xlink:title=" ">
<path fill="none" stroke="#63b8ff" d="M170.87,-164.98C182.59,-156.92 200.42,-144.65 214.39,-135.03"/>
<polygon fill="#63b8ff" stroke="#63b8ff" points="216.65,-137.72 222.9,-129.17 212.68,-131.96 216.65,-137.72"/>
</a>
</g>
</g>
<!-- Node20 -->
<g id="Node000020" class="node">
<title>Node20</title>
<g id="a_Node000020"><a xlink:title=" ">
<polygon fill="#e0e0e0" stroke="#999999" points="355,-129 286,-129 286,-110 355,-110 355,-129"/>
<text text-anchor="middle" x="320.5" y="-117" font-family="Helvetica,sans-Serif" font-size="10.00">type_traits</text>
</a>
</g>
</g>
<!-- Node17&#45;&gt;Node20 -->
<g id="edge23_Node000017_Node000020" class="edge">
<title>Node17&#45;&gt;Node20</title>
<g id="a_edge23_Node000017_Node000020"><a xlink:title=" ">
<path fill="none" stroke="#63b8ff" d="M184.53,-164.98C211.61,-156.13 254.21,-142.19 284.51,-132.28"/>
<polygon fill="#63b8ff" stroke="#63b8ff" points="285.85,-135.52 294.27,-129.08 283.68,-128.87 285.85,-135.52"/>
</a>
</g>
</g>
<!-- Node21&#45;&gt;Node4 -->
<g id="edge25_Node000021_Node000004" class="edge">
<title>Node21&#45;&gt;Node4</title>
<g id="a_edge25_Node000021_Node000004"><a xlink:title=" ">
<path fill="none" stroke="#63b8ff" d="M537.33,-164.98C524.73,-156.84 505.5,-144.41 490.56,-134.76"/>
<polygon fill="#63b8ff" stroke="#63b8ff" points="492.21,-131.66 481.91,-129.17 488.41,-137.54 492.21,-131.66"/>
</a>
</g>
</g>
<!-- Node21&#45;&gt;Node7 -->
<g id="edge26_Node000021_Node000007" class="edge">
<title>Node21&#45;&gt;Node7</title>
<g id="a_edge26_Node000021_Node000007"><a xlink:title=" ">
<path fill="none" stroke="#63b8ff" d="M550.33,-164.75C550.2,-157.8 550.02,-147.85 549.85,-139.13"/>
<polygon fill="#63b8ff" stroke="#63b8ff" points="553.35,-139.02 549.66,-129.09 546.35,-139.15 553.35,-139.02"/>
</a>
</g>
</g>
<!-- Node22&#45;&gt;Node4 -->
<g id="edge28_Node000022_Node000004" class="edge">
<title>Node22&#45;&gt;Node4</title>
<g id="a_edge28_Node000022_Node000004"><a xlink:title=" ">
<path fill="none" stroke="#63b8ff" d="M612.87,-164.98C583.99,-156.09 538.49,-142.07 506.3,-132.15"/>
<polygon fill="#63b8ff" stroke="#63b8ff" points="506.94,-128.68 496.35,-129.08 504.88,-135.37 506.94,-128.68"/>
</a>
</g>
</g>
<!-- Node22&#45;&gt;Node7 -->
<g id="edge29_Node000022_Node000007" class="edge">
<title>Node22&#45;&gt;Node7</title>
<g id="a_edge29_Node000022_Node000007"><a xlink:title=" ">
<path fill="none" stroke="#63b8ff" d="M625.88,-164.98C611.64,-156.69 589.75,-143.94 573.05,-134.22"/>
<polygon fill="#63b8ff" stroke="#63b8ff" points="574.79,-131.18 564.39,-129.17 571.27,-137.23 574.79,-131.18"/>
</a>
</g>
</g>
<!-- Node23&#45;&gt;Node3 -->
<g id="edge32_Node000023_Node000003" class="edge">
<title>Node23&#45;&gt;Node3</title>
<g id="a_edge32_Node000023_Node000003"><a xlink:title=" ">
<path fill="none" stroke="#63b8ff" d="M300.82,-164.98C319.16,-156.46 347.61,-143.23 368.73,-133.41"/>
<polygon fill="#63b8ff" stroke="#63b8ff" points="370.26,-136.56 377.85,-129.17 367.31,-130.21 370.26,-136.56"/>
</a>
</g>
</g>
<!-- Node23&#45;&gt;Node4 -->
<g id="edge31_Node000023_Node000004" class="edge">
<title>Node23&#45;&gt;Node4</title>
<g id="a_edge31_Node000023_Node000004"><a xlink:title=" ">
<path fill="none" stroke="#63b8ff" d="M312.38,-164.98C344.16,-155.93 394.56,-141.57 429.45,-131.63"/>
<polygon fill="#63b8ff" stroke="#63b8ff" points="430.65,-134.93 439.3,-128.82 428.73,-128.19 430.65,-134.93"/>
</a>
</g>
</g>
<!-- Node23&#45;&gt;Node7 -->
<g id="edge33_Node000023_Node000007" class="edge">
<title>Node23&#45;&gt;Node7</title>
<g id="a_edge33_Node000023_Node000007"><a xlink:title=" ">
<path fill="none" stroke="#63b8ff" d="M312.09,-167.63C359.42,-158.23 452.33,-139.79 506.83,-128.97"/>
<polygon fill="#63b8ff" stroke="#63b8ff" points="507.74,-132.36 516.86,-126.98 506.37,-125.49 507.74,-132.36"/>
</a>
</g>
</g>
<!-- Node24&#45;&gt;Node4 -->
<g id="edge35_Node000024_Node000004" class="edge">
<title>Node24&#45;&gt;Node4</title>
<g id="a_edge35_Node000024_Node000004"><a xlink:title=" ">
<path fill="none" stroke="#63b8ff" d="M413.94,-164.98C423.65,-157.07 438.32,-145.11 450,-135.58"/>
<polygon fill="#63b8ff" stroke="#63b8ff" points="452.33,-138.2 457.87,-129.17 447.9,-132.78 452.33,-138.2"/>
</a>
</g>
</g>
<!-- Node24&#45;&gt;Node7 -->
<g id="edge36_Node000024_Node000007" class="edge">
<title>Node24&#45;&gt;Node7</title>
<g id="a_edge36_Node000024_Node000007"><a xlink:title=" ">
<path fill="none" stroke="#63b8ff" d="M426.96,-164.98C451.08,-156.23 488.87,-142.51 516.1,-132.62"/>
<polygon fill="#63b8ff" stroke="#63b8ff" points="517.41,-135.87 525.62,-129.17 515.02,-129.29 517.41,-135.87"/>
</a>
</g>
</g>
<!-- Node25&#45;&gt;Node4 -->
<g id="edge38_Node000025_Node000004" class="edge">
<title>Node25&#45;&gt;Node4</title>
<g id="a_edge38_Node000025_Node000004"><a xlink:title=" ">
<path fill="none" stroke="#63b8ff" d="M476.85,-164.75C475.54,-157.8 473.66,-147.85 472.02,-139.13"/>
<polygon fill="#63b8ff" stroke="#63b8ff" points="475.41,-138.27 470.12,-129.09 468.54,-139.56 475.41,-138.27"/>
</a>
</g>
</g>
<!-- Node25&#45;&gt;Node7 -->
<g id="edge39_Node000025_Node000007" class="edge">
<title>Node25&#45;&gt;Node7</title>
<g id="a_edge39_Node000025_Node000007"><a xlink:title=" ">
<path fill="none" stroke="#63b8ff" d="M489.91,-164.98C500.61,-157 516.84,-144.88 529.66,-135.31"/>
<polygon fill="#63b8ff" stroke="#63b8ff" points="531.97,-137.96 537.89,-129.17 527.78,-132.35 531.97,-137.96"/>
</a>
</g>
</g>
</g>
</svg>

<g id="navigator" transform="translate(0 0)" fill="#404254">
  <rect fill="#f2f5e9" fill-opacity="0.5" stroke="#606060" stroke-width=".5" x="0" y="0" width="60" height="60"/>
  <use id="zoomplus" xlink:href="#zoomPlus" x="17" y="9" onmousedown="handleZoom(evt,'in')"/>
  <use id="zoomminus" xlink:href="#zoomMin" x="42" y="9" onmousedown="handleZoom(evt,'out')"/>
  <use id="reset" xlink:href="#resetDef" x="30" y="36" onmousedown="handleReset()"/>
  <g id="arrowUp" xlink:href="#dirArrow" transform="translate(30 24)" onmousedown="handlePan(0,-1)">
    <use xlink:href="#rim" fill="#404040">
          <set attributeName="fill" to="#808080" begin="arrowUp.mouseover" end="arrowUp.mouseout"/>
    </use>
    <path fill="none" stroke="white" stroke-width="1.5" d="M0,-3.0v7 M-2.5,-0.5L0,-3.0L2.5,-0.5"/>
  </g>
  <g id="arrowRight" xlink:href="#dirArrow" transform="rotate(90) translate(36 -43)" onmousedown="handlePan(1,0)">
    <use xlink:href="#rim" fill="#404040">
          <set attributeName="fill" to="#808080" begin="arrowRight.mouseover" end="arrowRight.mouseout"/>
    </use>
    <path fill="none" stroke="white" stroke-width="1.5" d="M0,-3.0v7 M-2.5,-0.5L0,-3.0L2.5,-0.5"/>
  </g>
  <g id="arrowDown" xlink:href="#dirArrow" transform="rotate(180) translate(-30 -48)" onmousedown="handlePan(0,1)">
    <use xlink:href="#rim" fill="#404040">
          <set attributeName="fill" to="#808080" begin="arrowDown.mouseover" end="arrowDown.mouseout"/>
    </use>
    <path fill="none" stroke="white" stroke-width="1.5" d="M0,-3.0v7 M-2.5,-0.5L0,-3.0L2.5,-0.5"/>
  </g>
  <g id="arrowLeft" xlink:href="#dirArrow" transform="rotate(270) translate(-36 17)" onmousedown="handlePan(-1,0)">
    <use xlink:href="#rim" fill="#404040">
          <set attributeName="fill" to="#808080" begin="arrowLeft.mouseover" end="arrowLeft.mouseout"/>
    </use>
    <path fill="none" stroke="white" stroke-width="1.5" d="M0,-3.0v7 M-2.5,-0.5L0,-3.0L2.5,-0.5"/>
  </g>
</g>
<svg viewBox="0 0 15 15" width="100%" height="30px" preserveAspectRatio="xMaxYMin meet">
 <g id="arrow_out" transform="scale(0.3 0.3)">
  <a xlink:href="indexlist_8h__incl_org.svg" target="_base">
   <rect id="button" ry="5" rx="5" y="6" x="6" height="38" width="38"
        fill="#f2f5e9" fill-opacity="0.5" stroke="#606060" stroke-width="1.0"/>
   <path id="arrow"
     d="M 11.500037,31.436501 C 11.940474,20.09759 22.043105,11.32322 32.158766,21.979434 L 37.068811,17.246167 C 37.068811,17.246167 37.088388,32 37.088388,32 L 22.160133,31.978069 C 22.160133,31.978069 26.997745,27.140456 26.997745,27.140456 C 18.528582,18.264221 13.291696,25.230495 11.500037,31.436501 z"
     style="fill:#404040;"/>
  </a>
 </g>
</svg>

<style type='text/css'>
<![CDATA[
[data-mouse-over-selected='false'] { opacity: 0.7; }
[data-mouse-over-selected='true']  { opacity: 1.0; }
]]>
</style>
<script><![CDATA[
document.addEventListener('DOMContentLoaded', (event) => {
  highlightEdges();
  highlightAdjacentNodes();
});
]]></script>
</svg>
